GeezHandwritingDotsRules.ufo
<glyph name="exclam" format="2">
  <advance width="819"/>
  <unicode hex="0021"/>
  <outline>
    <contour>
      <point x="262" y="1280" type="curve" smooth="yes"/>
      <point x="262" y="1245"/>
      <point x="246" y="1229"/>
      <point x="211" y="1229" type="curve" smooth="yes"/>
      <point x="176" y="1229"/>
      <point x="158" y="1245"/>
      <point x="158" y="1280" type="curve" smooth="yes"/>
      <point x="158" y="1315"/>
      <point x="176" y="1333"/>
      <point x="211" y="1333" type="curve" smooth="yes"/>
      <point x="246" y="1333"/>
      <point x="262" y="1315"/>
    </contour>
    <contour>
      <point x="262" y="1075" type="curve" smooth="yes"/>
      <point x="262" y="1040"/>
      <point x="246" y="1024"/>
      <point x="211" y="1024" type="curve" smooth="yes"/>
      <point x="176" y="1024"/>
      <point x="158" y="1040"/>
      <point x="158" y="1075" type="curve" smooth="yes"/>
      <point x="158" y="1110"/>
      <point x="176" y="1128"/>
      <point x="211" y="1128" type="curve" smooth="yes"/>
      <point x="246" y="1128"/>
      <point x="262" y="1110"/>
    </contour>
    <contour>
      <point x="262" y="870" type="curve" smooth="yes"/>
      <point x="262" y="836"/>
      <point x="246" y="819"/>
      <point x="211" y="819" type="curve" smooth="yes"/>
      <point x="176" y="819"/>
      <point x="158" y="836"/>
      <point x="158" y="870" type="curve" smooth="yes"/>
      <point x="158" y="905"/>
      <point x="176" y="924"/>
      <point x="211" y="924" type="curve" smooth="yes"/>
      <point x="246" y="924"/>
      <point x="262" y="905"/>
    </contour>
    <contour>
      <point x="262" y="666" type="curve" smooth="yes"/>
      <point x="262" y="631"/>
      <point x="246" y="614"/>
      <point x="211" y="614" type="curve" smooth="yes"/>
      <point x="176" y="614"/>
      <point x="158" y="631"/>
      <point x="158" y="666" type="curve" smooth="yes"/>
      <point x="158" y="700"/>
      <point x="176" y="719"/>
      <point x="211" y="719" type="curve" smooth="yes"/>
      <point x="246" y="719"/>
      <point x="262" y="700"/>
    </contour>
    <contour>
      <point x="262" y="461" type="curve" smooth="yes"/>
      <point x="262" y="426"/>
      <point x="246" y="410"/>
      <point x="211" y="410" type="curve" smooth="yes"/>
      <point x="176" y="410"/>
      <point x="158" y="426"/>
      <point x="158" y="461" type="curve" smooth="yes"/>
      <point x="158" y="496"/>
      <point x="176" y="514"/>
      <point x="211" y="514" type="curve" smooth="yes"/>
      <point x="246" y="514"/>
      <point x="262" y="496"/>
    </contour>
    <contour>
      <point x="270" y="59" type="curve" smooth="yes"/>
      <point x="270" y="20"/>
      <point x="250" y="0"/>
      <point x="211" y="0" type="curve" smooth="yes"/>
      <point x="172" y="0"/>
      <point x="152" y="20"/>
      <point x="152" y="59" type="curve" smooth="yes"/>
      <point x="152" y="98"/>
      <point x="172" y="119"/>
      <point x="211" y="119" type="curve" smooth="yes"/>
      <point x="250" y="119" name=".hr01"/>
      <point x="270" y="98"/>
    </contour>
  </outline>
</glyph>
<glyph name="numbersign" format="2">
  <advance width="1331"/>
  <unicode hex="0023"/>
  <outline>
    <contour>
      <point x="870" y="1309" type="curve" smooth="yes"/>
      <point x="870" y="1274"/>
      <point x="852" y="1257"/>
      <point x="817" y="1257" type="curve" smooth="yes"/>
      <point x="782" y="1257"/>
      <point x="766" y="1274"/>
      <point x="766" y="1309" type="curve" smooth="yes"/>
      <point x="766" y="1343"/>
      <point x="782" y="1362"/>
      <point x="817" y="1362" type="curve" smooth="yes"/>
      <point x="852" y="1362"/>
      <point x="870" y="1343"/>
    </contour>
    <contour>
      <point x="1163" y="905" type="curve" smooth="yes"/>
      <point x="1163" y="870"/>
      <point x="1145" y="852"/>
      <point x="1110" y="852" type="curve" smooth="yes"/>
      <point x="1075" y="852"/>
      <point x="1059" y="870"/>
      <point x="1059" y="905" type="curve" smooth="yes"/>
      <point x="1059" y="940"/>
      <point x="1075" y="956"/>
      <point x="1110" y="956" type="curve" smooth="yes"/>
      <point x="1145" y="956"/>
      <point x="1163" y="940"/>
    </contour>
    <contour>
      <point x="870" y="1104" type="curve" smooth="yes"/>
      <point x="870" y="1069"/>
      <point x="852" y="1053"/>
      <point x="817" y="1053" type="curve" smooth="yes"/>
      <point x="782" y="1053"/>
      <point x="766" y="1069"/>
      <point x="766" y="1104" type="curve" smooth="yes"/>
      <point x="766" y="1139"/>
      <point x="782" y="1157"/>
      <point x="817" y="1157" type="curve" smooth="yes"/>
      <point x="852" y="1157"/>
      <point x="870" y="1139"/>
    </contour>
    <contour>
      <point x="461" y="1309" type="curve" smooth="yes"/>
      <point x="461" y="1274"/>
      <point x="442" y="1257"/>
      <point x="408" y="1257" type="curve" smooth="yes"/>
      <point x="373" y="1257"/>
      <point x="356" y="1274"/>
      <point x="356" y="1309" type="curve" smooth="yes"/>
      <point x="356" y="1343"/>
      <point x="373" y="1362"/>
      <point x="408" y="1362" type="curve" smooth="yes"/>
      <point x="442" y="1362"/>
      <point x="461" y="1343"/>
    </contour>
    <contour>
      <point x="870" y="899" type="curve" smooth="yes"/>
      <point x="870" y="864"/>
      <point x="852" y="848"/>
      <point x="817" y="848" type="curve" smooth="yes"/>
      <point x="782" y="848"/>
      <point x="766" y="864"/>
      <point x="766" y="899" type="curve" smooth="yes" name=".hr01"/>
      <point x="766" y="934"/>
      <point x="782" y="952"/>
      <point x="817" y="952" type="curve" smooth="yes"/>
      <point x="852" y="952"/>
      <point x="870" y="934"/>
    </contour>
    <contour>
      <point x="1190" y="496" type="curve" smooth="yes"/>
      <point x="1190" y="461"/>
      <point x="1174" y="442"/>
      <point x="1139" y="442" type="curve" smooth="yes"/>
      <point x="1104" y="442"/>
      <point x="1085" y="461"/>
      <point x="1085" y="496" type="curve" smooth="yes"/>
      <point x="1085" y="530"/>
      <point x="1104" y="547"/>
      <point x="1139" y="547" type="curve" smooth="yes"/>
      <point x="1174" y="547"/>
      <point x="1190" y="530"/>
    </contour>
    <contour>
      <point x="676" y="905" type="curve" smooth="yes"/>
      <point x="676" y="870"/>
      <point x="659" y="852"/>
      <point x="625" y="852" type="curve" smooth="yes"/>
      <point x="590" y="852"/>
      <point x="571" y="870"/>
      <point x="571" y="905" type="curve" smooth="yes"/>
      <point x="571" y="940"/>
      <point x="590" y="956" name=".hr02"/>
      <point x="625" y="956" type="curve" smooth="yes"/>
      <point x="659" y="956"/>
      <point x="676" y="940"/>
    </contour>
    <contour>
      <point x="461" y="1104" type="curve" smooth="yes"/>
      <point x="461" y="1069"/>
      <point x="442" y="1053"/>
      <point x="408" y="1053" type="curve" smooth="yes"/>
      <point x="373" y="1053"/>
      <point x="356" y="1069"/>
      <point x="356" y="1104" type="curve" smooth="yes"/>
      <point x="356" y="1139"/>
      <point x="373" y="1157"/>
      <point x="408" y="1157" type="curve" smooth="yes"/>
      <point x="442" y="1157"/>
      <point x="461" y="1139"/>
    </contour>
    <contour>
      <point x="870" y="694" type="curve" smooth="yes"/>
      <point x="870" y="659"/>
      <point x="852" y="643"/>
      <point x="817" y="643" type="curve" smooth="yes"/>
      <point x="782" y="643"/>
      <point x="766" y="659"/>
      <point x="766" y="694" type="curve" smooth="yes"/>
      <point x="766" y="729"/>
      <point x="782" y="748"/>
      <point x="817" y="748" type="curve" smooth="yes"/>
      <point x="852" y="748"/>
      <point x="870" y="729"/>
    </contour>
    <contour>
      <point x="461" y="899" type="curve" smooth="yes"/>
      <point x="461" y="864"/>
      <point x="442" y="848"/>
      <point x="408" y="848" type="curve" smooth="yes"/>
      <point x="373" y="848"/>
      <point x="356" y="864"/>
      <point x="356" y="899" type="curve" smooth="yes"/>
      <point x="356" y="934"/>
      <point x="373" y="952"/>
      <point x="408" y="952" type="curve" smooth="yes"/>
      <point x="442" y="952"/>
      <point x="461" y="934" name=".hr03"/>
    </contour>
    <contour>
      <point x="870" y="489" type="curve" smooth="yes"/>
      <point x="870" y="455"/>
      <point x="852" y="438"/>
      <point x="817" y="438" type="curve" smooth="yes"/>
      <point x="782" y="438"/>
      <point x="766" y="455"/>
      <point x="766" y="489" type="curve" smooth="yes"/>
      <point x="766" y="524"/>
      <point x="782" y="543"/>
      <point x="817" y="543" type="curve" smooth="yes"/>
      <point x="852" y="543"/>
      <point x="870" y="524"/>
    </contour>
    <contour>
      <point x="682" y="489" type="curve" smooth="yes"/>
      <point x="682" y="455"/>
      <point x="664" y="438"/>
      <point x="629" y="438" type="curve" smooth="yes"/>
      <point x="594" y="438"/>
      <point x="578" y="455"/>
      <point x="578" y="489" type="curve" smooth="yes"/>
      <point x="578" y="524"/>
      <point x="594" y="543"/>
      <point x="629" y="543" type="curve" smooth="yes"/>
      <point x="664" y="543"/>
      <point x="682" y="524"/>
    </contour>
    <contour>
      <point x="461" y="694" type="curve" smooth="yes"/>
      <point x="461" y="659"/>
      <point x="442" y="643"/>
      <point x="408" y="643" type="curve" smooth="yes"/>
      <point x="373" y="643"/>
      <point x="356" y="659"/>
      <point x="356" y="694" type="curve" smooth="yes"/>
      <point x="356" y="729"/>
      <point x="373" y="748"/>
      <point x="408" y="748" type="curve" smooth="yes"/>
      <point x="442" y="748"/>
      <point x="461" y="729"/>
    </contour>
    <contour>
      <point x="870" y="285" type="curve" smooth="yes"/>
      <point x="870" y="250"/>
      <point x="852" y="233"/>
      <point x="817" y="233" type="curve" smooth="yes"/>
      <point x="782" y="233"/>
      <point x="766" y="250"/>
      <point x="766" y="285" type="curve" smooth="yes"/>
      <point x="766" y="319"/>
      <point x="782" y="338"/>
      <point x="817" y="338" type="curve" smooth="yes"/>
      <point x="852" y="338"/>
      <point x="870" y="319"/>
    </contour>
    <contour>
      <point x="178" y="909" type="curve" smooth="yes"/>
      <point x="178" y="874"/>
      <point x="160" y="856"/>
      <point x="125" y="856" type="curve" smooth="yes"/>
      <point x="90" y="856"/>
      <point x="74" y="874"/>
      <point x="74" y="909" type="curve" smooth="yes"/>
      <point x="74" y="944"/>
      <point x="90" y="961"/>
      <point x="125" y="961" type="curve" smooth="yes"/>
      <point x="160" y="961"/>
      <point x="178" y="944"/>
    </contour>
    <contour>
      <point x="461" y="489" type="curve" smooth="yes"/>
      <point x="461" y="455"/>
      <point x="442" y="438"/>
      <point x="408" y="438" type="curve" smooth="yes"/>
      <point x="373" y="438"/>
      <point x="356" y="455"/>
      <point x="356" y="489" type="curve" smooth="yes"/>
      <point x="356" y="524"/>
      <point x="373" y="543"/>
      <point x="408" y="543" type="curve" smooth="yes"/>
      <point x="442" y="543"/>
      <point x="461" y="524"/>
    </contour>
    <contour>
      <point x="870" y="80" type="curve" smooth="yes"/>
      <point x="870" y="45"/>
      <point x="852" y="29"/>
      <point x="817" y="29" type="curve" smooth="yes"/>
      <point x="782" y="29"/>
      <point x="766" y="45"/>
      <point x="766" y="80" type="curve" smooth="yes"/>
      <point x="766" y="115"/>
      <point x="782" y="133"/>
      <point x="817" y="133" type="curve" smooth="yes"/>
      <point x="852" y="133"/>
      <point x="870" y="115"/>
    </contour>
    <contour>
      <point x="461" y="285" type="curve" smooth="yes"/>
      <point x="461" y="250"/>
      <point x="442" y="233"/>
      <point x="408" y="233" type="curve" smooth="yes"/>
      <point x="373" y="233"/>
      <point x="356" y="250"/>
      <point x="356" y="285" type="curve" smooth="yes"/>
      <point x="356" y="319"/>
      <point x="373" y="338"/>
      <point x="408" y="338" type="curve" smooth="yes"/>
      <point x="442" y="338"/>
      <point x="461" y="319"/>
    </contour>
    <contour>
      <point x="178" y="500" type="curve" smooth="yes"/>
      <point x="178" y="465"/>
      <point x="160" y="446"/>
      <point x="125" y="446" type="curve" smooth="yes"/>
      <point x="90" y="446"/>
      <point x="74" y="465"/>
      <point x="74" y="500" type="curve" smooth="yes"/>
      <point x="74" y="535"/>
      <point x="90" y="551"/>
      <point x="125" y="551" type="curve" smooth="yes"/>
      <point x="160" y="551"/>
      <point x="178" y="535"/>
    </contour>
    <contour>
      <point x="461" y="80" type="curve" smooth="yes"/>
      <point x="461" y="45"/>
      <point x="442" y="29"/>
      <point x="408" y="29" type="curve" smooth="yes"/>
      <point x="373" y="29"/>
      <point x="356" y="45"/>
      <point x="356" y="80" type="curve" smooth="yes"/>
      <point x="356" y="115"/>
      <point x="373" y="133" name=".hr04"/>
      <point x="408" y="133" type="curve" smooth="yes"/>
      <point x="442" y="133"/>
      <point x="461" y="115"/>
    </contour>
  </outline>
</glyph>
<glyph name="dollar" format="2">
  <advance width="1434"/>
  <unicode hex="0024"/>
  <outline>
    <contour>
      <point x="918" y="1169" type="curve" smooth="yes"/>
      <point x="918" y="1135"/>
      <point x="901" y="1116"/>
      <point x="866" y="1116" type="curve" smooth="yes"/>
      <point x="831" y="1116"/>
      <point x="813" y="1135"/>
      <point x="813" y="1169" type="curve" smooth="yes"/>
      <point x="813" y="1204"/>
      <point x="831" y="1221"/>
      <point x="866" y="1221" type="curve" smooth="yes"/>
      <point x="901" y="1221"/>
      <point x="918" y="1204"/>
    </contour>
    <contour>
      <point x="1057" y="1016" type="curve" smooth="yes"/>
      <point x="1057" y="981"/>
      <point x="1038" y="963"/>
      <point x="1004" y="963" type="curve" smooth="yes"/>
      <point x="969" y="963"/>
      <point x="952" y="981"/>
      <point x="952" y="1016" type="curve" smooth="yes"/>
      <point x="952" y="1051"/>
      <point x="969" y="1067"/>
      <point x="1004" y="1067" type="curve" smooth="yes"/>
      <point x="1038" y="1067"/>
      <point x="1057" y="1051"/>
    </contour>
    <contour>
      <point x="762" y="1276" type="curve" smooth="yes"/>
      <point x="762" y="1241"/>
      <point x="745" y="1225"/>
      <point x="711" y="1225" type="curve" smooth="yes"/>
      <point x="676" y="1225"/>
      <point x="657" y="1241"/>
      <point x="657" y="1276" type="curve" smooth="yes"/>
      <point x="657" y="1311"/>
      <point x="676" y="1329"/>
      <point x="711" y="1329" type="curve" smooth="yes"/>
      <point x="745" y="1329"/>
      <point x="762" y="1311"/>
    </contour>
    <contour>
      <point x="762" y="1071" type="curve" smooth="yes"/>
      <point x="762" y="1036"/>
      <point x="745" y="1020"/>
      <point x="711" y="1020" type="curve" smooth="yes"/>
      <point x="676" y="1020"/>
      <point x="657" y="1036" name=".hr01"/>
      <point x="657" y="1071" type="curve" smooth="yes"/>
      <point x="657" y="1106"/>
      <point x="676" y="1124"/>
      <point x="711" y="1124" type="curve" smooth="yes"/>
      <point x="745" y="1124"/>
      <point x="762" y="1106"/>
    </contour>
    <contour>
      <point x="627" y="1171" type="curve" smooth="yes"/>
      <point x="627" y="1137"/>
      <point x="608" y="1118"/>
      <point x="573" y="1118" type="curve" smooth="yes"/>
      <point x="539" y="1118"/>
      <point x="522" y="1137"/>
      <point x="522" y="1171" type="curve" smooth="yes" name=".hr02"/>
      <point x="522" y="1206"/>
      <point x="539" y="1223"/>
      <point x="573" y="1223" type="curve" smooth="yes"/>
      <point x="608" y="1223"/>
      <point x="627" y="1206"/>
    </contour>
    <contour>
      <point x="762" y="866" type="curve" smooth="yes"/>
      <point x="762" y="831"/>
      <point x="745" y="815"/>
      <point x="711" y="815" type="curve" smooth="yes"/>
      <point x="676" y="815"/>
      <point x="657" y="831"/>
      <point x="657" y="866" type="curve" smooth="yes"/>
      <point x="657" y="901"/>
      <point x="676" y="920"/>
      <point x="711" y="920" type="curve" smooth="yes"/>
      <point x="745" y="920"/>
      <point x="762" y="901"/>
    </contour>
    <contour>
      <point x="1004" y="571" type="curve" smooth="yes"/>
      <point x="1004" y="537"/>
      <point x="987" y="520"/>
      <point x="952" y="520" type="curve" smooth="yes"/>
      <point x="918" y="520"/>
      <point x="899" y="537"/>
      <point x="899" y="571" type="curve" smooth="yes"/>
      <point x="899" y="606"/>
      <point x="918" y="625"/>
      <point x="952" y="625" type="curve" smooth="yes"/>
      <point x="987" y="625"/>
      <point x="1004" y="606" name=".hr03"/>
    </contour>
    <contour>
      <point x="496" y="1012" type="curve" smooth="yes"/>
      <point x="496" y="977"/>
      <point x="477" y="958"/>
      <point x="442" y="958" type="curve" smooth="yes" name=".hr04"/>
      <point x="408" y="958"/>
      <point x="391" y="977"/>
      <point x="391" y="1012" type="curve" smooth="yes"/>
      <point x="391" y="1047"/>
      <point x="408" y="1063"/>
      <point x="442" y="1063" type="curve" smooth="yes"/>
      <point x="477" y="1063"/>
      <point x="496" y="1047"/>
    </contour>
    <contour>
      <point x="762" y="662" type="curve" smooth="yes"/>
      <point x="762" y="627"/>
      <point x="745" y="610"/>
      <point x="711" y="610" type="curve" smooth="yes"/>
      <point x="676" y="610"/>
      <point x="657" y="627"/>
      <point x="657" y="662" type="curve" smooth="yes"/>
      <point x="657" y="696"/>
      <point x="676" y="715"/>
      <point x="711" y="715" type="curve" smooth="yes"/>
      <point x="745" y="715"/>
      <point x="762" y="696"/>
    </contour>
    <contour>
      <point x="592" y="801" type="curve" smooth="yes"/>
      <point x="592" y="766"/>
      <point x="573" y="748"/>
      <point x="539" y="748" type="curve" smooth="yes"/>
      <point x="504" y="748"/>
      <point x="487" y="766"/>
      <point x="487" y="801" type="curve" smooth="yes"/>
      <point x="487" y="836"/>
      <point x="504" y="852"/>
      <point x="539" y="852" type="curve" smooth="yes"/>
      <point x="573" y="852"/>
      <point x="592" y="836"/>
    </contour>
    <contour>
      <point x="1040" y="303" type="curve" smooth="yes"/>
      <point x="1040" y="268"/>
      <point x="1024" y="252" name=".hr05"/>
      <point x="989" y="252" type="curve" smooth="yes"/>
      <point x="954" y="252"/>
      <point x="936" y="268"/>
      <point x="936" y="303" type="curve" smooth="yes"/>
      <point x="936" y="338"/>
      <point x="954" y="356"/>
      <point x="989" y="356" type="curve" smooth="yes"/>
      <point x="1024" y="356"/>
      <point x="1040" y="338"/>
    </contour>
    <contour>
      <point x="762" y="457" type="curve" smooth="yes"/>
      <point x="762" y="422"/>
      <point x="745" y="406"/>
      <point x="711" y="406" type="curve" smooth="yes"/>
      <point x="676" y="406"/>
      <point x="657" y="422"/>
      <point x="657" y="457" type="curve" smooth="yes"/>
      <point x="657" y="492"/>
      <point x="676" y="510"/>
      <point x="711" y="510" type="curve" smooth="yes"/>
      <point x="745" y="510"/>
      <point x="762" y="492"/>
    </contour>
    <contour>
      <point x="913" y="176" type="curve" smooth="yes"/>
      <point x="913" y="141"/>
      <point x="895" y="123"/>
      <point x="860" y="123" type="curve" smooth="yes"/>
      <point x="825" y="123"/>
      <point x="809" y="141"/>
      <point x="809" y="176" type="curve" smooth="yes"/>
      <point x="809" y="211"/>
      <point x="825" y="227"/>
      <point x="860" y="227" type="curve" smooth="yes"/>
      <point x="895" y="227"/>
      <point x="913" y="211"/>
    </contour>
    <contour>
      <point x="762" y="252" type="curve" smooth="yes"/>
      <point x="762" y="217"/>
      <point x="745" y="201"/>
      <point x="711" y="201" type="curve" smooth="yes"/>
      <point x="676" y="201"/>
      <point x="657" y="217"/>
      <point x="657" y="252" type="curve" smooth="yes"/>
      <point x="657" y="287"/>
      <point x="676" y="305"/>
      <point x="711" y="305" type="curve" smooth="yes"/>
      <point x="745" y="305"/>
      <point x="762" y="287"/>
    </contour>
    <contour>
      <point x="762" y="47" type="curve" smooth="yes"/>
      <point x="762" y="12"/>
      <point x="745" y="-6"/>
      <point x="711" y="-6" type="curve" smooth="yes" name=".hr06"/>
      <point x="676" y="-6"/>
      <point x="657" y="12"/>
      <point x="657" y="47" type="curve" smooth="yes"/>
      <point x="657" y="82" name=".hr07"/>
      <point x="676" y="100"/>
      <point x="711" y="100" type="curve" smooth="yes" name=".hr08"/>
      <point x="745" y="100"/>
      <point x="762" y="82"/>
    </contour>
    <contour>
      <point x="463" y="334" type="curve" smooth="yes"/>
      <point x="463" y="299" name=".hr09"/>
      <point x="446" y="283"/>
      <point x="412" y="283" type="curve" smooth="yes"/>
      <point x="377" y="283"/>
      <point x="358" y="299"/>
      <point x="358" y="334" type="curve" smooth="yes"/>
      <point x="358" y="369"/>
      <point x="377" y="387"/>
      <point x="412" y="387" type="curve" smooth="yes"/>
      <point x="446" y="387"/>
      <point x="463" y="369"/>
    </contour>
    <contour>
      <point x="600" y="188" type="curve" smooth="yes"/>
      <point x="600" y="154"/>
      <point x="582" y="135"/>
      <point x="547" y="135" type="curve" smooth="yes"/>
      <point x="512" y="135"/>
      <point x="496" y="154" name=".hr10"/>
      <point x="496" y="188" type="curve" smooth="yes"/>
      <point x="496" y="223"/>
      <point x="512" y="240"/>
      <point x="547" y="240" type="curve" smooth="yes"/>
      <point x="582" y="240"/>
      <point x="600" y="223"/>
    </contour>
  </outline>
</glyph>
<glyph name="parenright" format="2">
  <advance width="717"/>
  <unicode hex="0029"/>
  <outline>
    <contour>
      <point x="272" y="1300" type="curve" smooth="yes"/>
      <point x="272" y="1266"/>
      <point x="254" y="1249"/>
      <point x="219" y="1249" type="curve" smooth="yes"/>
      <point x="184" y="1249"/>
      <point x="168" y="1266"/>
      <point x="168" y="1300" type="curve" smooth="yes"/>
      <point x="168" y="1335"/>
      <point x="184" y="1354"/>
      <point x="219" y="1354" type="curve" smooth="yes"/>
      <point x="254" y="1354"/>
      <point x="272" y="1335"/>
    </contour>
    <contour>
      <point x="377" y="1176" type="curve" smooth="yes"/>
      <point x="377" y="1141"/>
      <point x="358" y="1124"/>
      <point x="324" y="1124" type="curve" smooth="yes"/>
      <point x="289" y="1124"/>
      <point x="272" y="1141"/>
      <point x="272" y="1176" type="curve" smooth="yes"/>
      <point x="272" y="1210"/>
      <point x="289" y="1229"/>
      <point x="324" y="1229" type="curve" smooth="yes"/>
      <point x="358" y="1229"/>
      <point x="377" y="1210"/>
    </contour>
    <contour>
      <point x="467" y="1030" type="curve" smooth="yes"/>
      <point x="467" y="995"/>
      <point x="451" y="979"/>
      <point x="416" y="979" type="curve" smooth="yes"/>
      <point x="381" y="979"/>
      <point x="362" y="995"/>
      <point x="362" y="1030" type="curve" smooth="yes"/>
      <point x="362" y="1065"/>
      <point x="381" y="1083"/>
      <point x="416" y="1083" type="curve" smooth="yes"/>
      <point x="451" y="1083"/>
      <point x="467" y="1065"/>
    </contour>
    <contour>
      <point x="524" y="870" type="curve" smooth="yes"/>
      <point x="524" y="836"/>
      <point x="508" y="817"/>
      <point x="473" y="817" type="curve" smooth="yes" name=".hr01"/>
      <point x="438" y="817"/>
      <point x="420" y="836"/>
      <point x="420" y="870" type="curve" smooth="yes"/>
      <point x="420" y="905"/>
      <point x="438" y="922"/>
      <point x="473" y="922" type="curve" smooth="yes"/>
      <point x="508" y="922"/>
      <point x="524" y="905"/>
    </contour>
    <contour>
      <point x="551" y="684" type="curve" smooth="yes"/>
      <point x="551" y="649"/>
      <point x="532" y="633"/>
      <point x="498" y="633" type="curve" smooth="yes"/>
      <point x="463" y="633"/>
      <point x="446" y="649"/>
      <point x="446" y="684" type="curve" smooth="yes"/>
      <point x="446" y="719"/>
      <point x="463" y="737"/>
      <point x="498" y="737" type="curve" smooth="yes" name=".hr02"/>
      <point x="532" y="737"/>
      <point x="551" y="719"/>
    </contour>
    <contour>
      <point x="524" y="483" type="curve" smooth="yes"/>
      <point x="524" y="449"/>
      <point x="508" y="432"/>
      <point x="473" y="432" type="curve" smooth="yes"/>
      <point x="438" y="432"/>
      <point x="420" y="449" name=".hr03"/>
      <point x="420" y="483" type="curve" smooth="yes"/>
      <point x="420" y="518"/>
      <point x="438" y="537"/>
      <point x="473" y="537" type="curve" smooth="yes"/>
      <point x="508" y="537"/>
      <point x="524" y="518"/>
    </contour>
    <contour>
      <point x="467" y="324" type="curve" smooth="yes"/>
      <point x="467" y="289"/>
      <point x="451" y="270"/>
      <point x="416" y="270" type="curve" smooth="yes"/>
      <point x="381" y="270"/>
      <point x="362" y="289"/>
      <point x="362" y="324" type="curve" smooth="yes"/>
      <point x="362" y="358"/>
      <point x="381" y="375"/>
      <point x="416" y="375" type="curve" smooth="yes"/>
      <point x="451" y="375"/>
      <point x="467" y="358" name=".hr04"/>
    </contour>
    <contour>
      <point x="377" y="178" type="curve" smooth="yes"/>
      <point x="377" y="143"/>
      <point x="358" y="125"/>
      <point x="324" y="125" type="curve" smooth="yes"/>
      <point x="289" y="125"/>
      <point x="272" y="143"/>
      <point x="272" y="178" type="curve" smooth="yes"/>
      <point x="272" y="213"/>
      <point x="289" y="229"/>
      <point x="324" y="229" type="curve" smooth="yes"/>
      <point x="358" y="229"/>
      <point x="377" y="213"/>
    </contour>
    <contour>
      <point x="272" y="53" type="curve" smooth="yes"/>
      <point x="272" y="18"/>
      <point x="254" y="0"/>
      <point x="219" y="0" type="curve" smooth="yes"/>
      <point x="184" y="0"/>
      <point x="168" y="18"/>
      <point x="168" y="53" type="curve" smooth="yes"/>
      <point x="168" y="88"/>
      <point x="184" y="104"/>
      <point x="219" y="104" type="curve" smooth="yes"/>
      <point x="254" y="104"/>
      <point x="272" y="88"/>
    </contour>
  </outline>
</glyph>
<glyph name="plus" format="2">
  <advance width="1024"/>
  <unicode hex="002B"/>
  <outline>
    <contour>
      <point x="862" y="690" type="curve" smooth="yes"/>
      <point x="862" y="655"/>
      <point x="844" y="637"/>
      <point x="809" y="637" type="curve" smooth="yes"/>
      <point x="774" y="637"/>
      <point x="758" y="655"/>
      <point x="758" y="690" type="curve" smooth="yes"/>
      <point x="758" y="725"/>
      <point x="774" y="741"/>
      <point x="809" y="741" type="curve" smooth="yes"/>
      <point x="844" y="741"/>
      <point x="862" y="725"/>
    </contour>
    <contour>
      <point x="563" y="987" type="curve" smooth="yes"/>
      <point x="563" y="952"/>
      <point x="545" y="934"/>
      <point x="510" y="934" type="curve" smooth="yes"/>
      <point x="475" y="934"/>
      <point x="459" y="952"/>
      <point x="459" y="987" type="curve" smooth="yes"/>
      <point x="459" y="1022"/>
      <point x="475" y="1038"/>
      <point x="510" y="1038" type="curve" smooth="yes"/>
      <point x="545" y="1038"/>
      <point x="563" y="1022"/>
    </contour>
    <contour>
      <point x="657" y="690" type="curve" smooth="yes"/>
      <point x="657" y="655"/>
      <point x="639" y="637" name=".hr01"/>
      <point x="604" y="637" type="curve" smooth="yes"/>
      <point x="569" y="637"/>
      <point x="553" y="655"/>
      <point x="553" y="690" type="curve" smooth="yes"/>
      <point x="553" y="725"/>
      <point x="569" y="741"/>
      <point x="604" y="741" type="curve" smooth="yes"/>
      <point x="639" y="741"/>
      <point x="657" y="725"/>
    </contour>
    <contour>
      <point x="563" y="782" type="curve" smooth="yes"/>
      <point x="563" y="748"/>
      <point x="545" y="729"/>
      <point x="510" y="729" type="curve" smooth="yes" name=".hr02"/>
      <point x="475" y="729"/>
      <point x="459" y="748"/>
      <point x="459" y="782" type="curve" smooth="yes"/>
      <point x="459" y="817"/>
      <point x="475" y="834"/>
      <point x="510" y="834" type="curve" smooth="yes"/>
      <point x="545" y="834"/>
      <point x="563" y="817"/>
    </contour>
    <contour>
      <point x="453" y="690" type="curve" smooth="yes"/>
      <point x="453" y="655"/>
      <point x="434" y="637"/>
      <point x="399" y="637" type="curve" smooth="yes"/>
      <point x="365" y="637"/>
      <point x="348" y="655"/>
      <point x="348" y="690" type="curve" smooth="yes" name=".hr03"/>
      <point x="348" y="725"/>
      <point x="365" y="741"/>
      <point x="399" y="741" type="curve" smooth="yes"/>
      <point x="434" y="741"/>
      <point x="453" y="725"/>
    </contour>
    <contour>
      <point x="563" y="578" type="curve" smooth="yes"/>
      <point x="563" y="543"/>
      <point x="545" y="524"/>
      <point x="510" y="524" type="curve" smooth="yes"/>
      <point x="475" y="524"/>
      <point x="459" y="543"/>
      <point x="459" y="578" type="curve" smooth="yes"/>
      <point x="459" y="612"/>
      <point x="475" y="629"/>
      <point x="510" y="629" type="curve" smooth="yes"/>
      <point x="545" y="629"/>
      <point x="563" y="612"/>
    </contour>
    <contour>
      <point x="248" y="690" type="curve" smooth="yes"/>
      <point x="248" y="655"/>
      <point x="229" y="637"/>
      <point x="195" y="637" type="curve" smooth="yes"/>
      <point x="160" y="637"/>
      <point x="143" y="655"/>
      <point x="143" y="690" type="curve" smooth="yes"/>
      <point x="143" y="725"/>
      <point x="160" y="741"/>
      <point x="195" y="741" type="curve" smooth="yes"/>
      <point x="229" y="741"/>
      <point x="248" y="725"/>
    </contour>
    <contour>
      <point x="563" y="373" type="curve" smooth="yes"/>
      <point x="563" y="338"/>
      <point x="545" y="319"/>
      <point x="510" y="319" type="curve" smooth="yes"/>
      <point x="475" y="319"/>
      <point x="459" y="338"/>
      <point x="459" y="373" type="curve" smooth="yes"/>
      <point x="459" y="408"/>
      <point x="475" y="424"/>
      <point x="510" y="424" type="curve" smooth="yes"/>
      <point x="545" y="424"/>
      <point x="563" y="408"/>
    </contour>
  </outline>
</glyph>
<glyph name="comma" format="2">
  <advance width="307"/>
  <unicode hex="002C"/>
  <outline>
    <contour>
      <point x="193" y="84" type="curve" smooth="yes"/>
      <point x="193" y="49"/>
      <point x="174" y="31"/>
      <point x="139" y="31" type="curve" smooth="yes"/>
      <point x="104" y="31"/>
      <point x="88" y="49"/>
      <point x="88" y="84" type="curve" smooth="yes"/>
      <point x="88" y="119"/>
      <point x="104" y="135"/>
      <point x="139" y="135" type="curve" smooth="yes"/>
      <point x="174" y="135"/>
      <point x="193" y="119"/>
    </contour>
    <contour>
      <point x="150" y="-74" type="curve" smooth="yes"/>
      <point x="150" y="-109"/>
      <point x="131" y="-125"/>
      <point x="96" y="-125" type="curve" smooth="yes"/>
      <point x="61" y="-125"/>
      <point x="45" y="-109"/>
      <point x="45" y="-74" type="curve" smooth="yes" name=".hr01"/>
      <point x="45" y="-39"/>
      <point x="61" y="-20"/>
      <point x="96" y="-20" type="curve" smooth="yes"/>
      <point x="131" y="-20"/>
      <point x="150" y="-39"/>
    </contour>
  </outline>
</glyph>
<glyph name="one" format="2">
  <advance width="1024"/>
  <unicode hex="0031"/>
  <outline>
    <contour>
      <point x="606" y="1266" type="curve" smooth="yes"/>
      <point x="606" y="1214"/>
      <point x="565" y="1174"/>
      <point x="514" y="1174" type="curve" smooth="yes"/>
      <point x="463" y="1174"/>
      <point x="422" y="1214"/>
      <point x="422" y="1266" type="curve" smooth="yes"/>
      <point x="422" y="1317"/>
      <point x="463" y="1358"/>
      <point x="514" y="1358" type="curve" smooth="yes"/>
      <point x="565" y="1358"/>
      <point x="606" y="1317"/>
    </contour>
    <contour>
      <point x="567" y="1069" type="curve" smooth="yes"/>
      <point x="567" y="1034"/>
      <point x="549" y="1016"/>
      <point x="514" y="1016" type="curve" smooth="yes"/>
      <point x="479" y="1016"/>
      <point x="463" y="1034"/>
      <point x="463" y="1069" type="curve" smooth="yes"/>
      <point x="463" y="1104"/>
      <point x="479" y="1120"/>
      <point x="514" y="1120" type="curve" smooth="yes"/>
      <point x="549" y="1120"/>
      <point x="567" y="1104"/>
    </contour>
    <contour>
      <point x="567" y="864" type="curve" smooth="yes"/>
      <point x="567" y="829"/>
      <point x="549" y="811"/>
      <point x="514" y="811" type="curve" smooth="yes"/>
      <point x="479" y="811"/>
      <point x="463" y="829"/>
      <point x="463" y="864" type="curve" smooth="yes"/>
      <point x="463" y="899"/>
      <point x="479" y="915"/>
      <point x="514" y="915" type="curve" smooth="yes"/>
      <point x="549" y="915"/>
      <point x="567" y="899"/>
    </contour>
    <contour>
      <point x="567" y="659" type="curve" smooth="yes"/>
      <point x="567" y="625"/>
      <point x="549" y="606"/>
      <point x="514" y="606" type="curve" smooth="yes"/>
      <point x="479" y="606"/>
      <point x="463" y="625"/>
      <point x="463" y="659" type="curve" smooth="yes"/>
      <point x="463" y="694"/>
      <point x="479" y="711"/>
      <point x="514" y="711" type="curve" smooth="yes"/>
      <point x="549" y="711"/>
      <point x="567" y="694"/>
    </contour>
    <contour>
      <point x="567" y="455" type="curve" smooth="yes"/>
      <point x="567" y="420"/>
      <point x="549" y="401"/>
      <point x="514" y="401" type="curve" smooth="yes"/>
      <point x="479" y="401"/>
      <point x="463" y="420"/>
      <point x="463" y="455" type="curve" smooth="yes"/>
      <point x="463" y="489"/>
      <point x="479" y="506"/>
      <point x="514" y="506" type="curve" smooth="yes"/>
      <point x="549" y="506"/>
      <point x="567" y="489"/>
    </contour>
    <contour>
      <point x="567" y="250" type="curve" smooth="yes"/>
      <point x="567" y="215"/>
      <point x="549" y="197"/>
      <point x="514" y="197" type="curve" smooth="yes"/>
      <point x="479" y="197"/>
      <point x="463" y="215"/>
      <point x="463" y="250" type="curve" smooth="yes"/>
      <point x="463" y="285"/>
      <point x="479" y="301"/>
      <point x="514" y="301" type="curve" smooth="yes"/>
      <point x="549" y="301"/>
      <point x="567" y="285"/>
    </contour>
    <contour>
      <point x="567" y="45" type="curve" smooth="yes"/>
      <point x="567" y="10"/>
      <point x="549" y="-8"/>
      <point x="514" y="-8" type="curve" smooth="yes"/>
      <point x="479" y="-8"/>
      <point x="463" y="10"/>
      <point x="463" y="45" type="curve" smooth="yes"/>
      <point x="463" y="80"/>
      <point x="479" y="96"/>
      <point x="514" y="96" type="curve" smooth="yes"/>
      <point x="549" y="96"/>
      <point x="567" y="80"/>
    </contour>
    <contour>
      <point x="586" y="1266" type="curve" smooth="yes"/>
      <point x="586" y="1305"/>
      <point x="553" y="1337"/>
      <point x="514" y="1337" type="curve" smooth="yes"/>
      <point x="475" y="1337"/>
      <point x="442" y="1305"/>
      <point x="442" y="1266" type="curve" smooth="yes"/>
      <point x="442" y="1227"/>
      <point x="475" y="1194"/>
      <point x="514" y="1194" type="curve" smooth="yes"/>
      <point x="553" y="1194"/>
      <point x="586" y="1227"/>
    </contour>
  </outline>
</glyph>
<glyph name="two" format="2">
  <advance width="1024"/>
  <unicode hex="0032"/>
  <outline>
    <contour>
      <point x="784" y="1176" type="curve" smooth="yes"/>
      <point x="784" y="1141"/>
      <point x="766" y="1122"/>
      <point x="731" y="1122" type="curve" smooth="yes"/>
      <point x="696" y="1122"/>
      <point x="680" y="1141"/>
      <point x="680" y="1176" type="curve" smooth="yes"/>
      <point x="680" y="1210"/>
      <point x="696" y="1227"/>
      <point x="731" y="1227" type="curve" smooth="yes"/>
      <point x="766" y="1227"/>
      <point x="784" y="1210"/>
    </contour>
    <contour>
      <point x="575" y="1280" type="curve" smooth="yes"/>
      <point x="575" y="1245"/>
      <point x="557" y="1227"/>
      <point x="522" y="1227" type="curve" smooth="yes"/>
      <point x="487" y="1227"/>
      <point x="471" y="1245"/>
      <point x="471" y="1280" type="curve" smooth="yes"/>
      <point x="471" y="1315"/>
      <point x="487" y="1331"/>
      <point x="522" y="1331" type="curve" smooth="yes"/>
      <point x="557" y="1331"/>
      <point x="575" y="1315"/>
    </contour>
    <contour>
      <point x="813" y="946" type="curve" smooth="yes"/>
      <point x="813" y="911"/>
      <point x="795" y="893" name=".hr01"/>
      <point x="760" y="893" type="curve" smooth="yes"/>
      <point x="725" y="893"/>
      <point x="709" y="911"/>
      <point x="709" y="946" type="curve" smooth="yes"/>
      <point x="709" y="981"/>
      <point x="725" y="997"/>
      <point x="760" y="997" type="curve" smooth="yes"/>
      <point x="795" y="997"/>
      <point x="813" y="981"/>
    </contour>
    <contour>
      <point x="365" y="1219" type="curve" smooth="yes"/>
      <point x="365" y="1184"/>
      <point x="346" y="1165"/>
      <point x="311" y="1165" type="curve" smooth="yes"/>
      <point x="276" y="1165"/>
      <point x="260" y="1184"/>
      <point x="260" y="1219" type="curve" smooth="yes"/>
      <point x="260" y="1253" name=".hr02"/>
      <point x="276" y="1270" name=".hr03"/>
      <point x="311" y="1270" type="curve" smooth="yes"/>
      <point x="346" y="1270"/>
      <point x="365" y="1253" name=".hr04"/>
    </contour>
    <contour>
      <point x="715" y="754" type="curve" smooth="yes"/>
      <point x="715" y="719" name=".hr05"/>
      <point x="696" y="700"/>
      <point x="662" y="700" type="curve" smooth="yes"/>
      <point x="627" y="700"/>
      <point x="610" y="719"/>
      <point x="610" y="754" type="curve" smooth="yes"/>
      <point x="610" y="788"/>
      <point x="627" y="805"/>
      <point x="662" y="805" type="curve" smooth="yes"/>
      <point x="696" y="805"/>
      <point x="715" y="788"/>
    </contour>
    <contour>
      <point x="297" y="1077" type="curve" smooth="yes"/>
      <point x="297" y="1026"/>
      <point x="256" y="985"/>
      <point x="205" y="985" type="curve" smooth="yes"/>
      <point x="154" y="985"/>
      <point x="113" y="1026"/>
      <point x="113" y="1077" type="curve" smooth="yes"/>
      <point x="113" y="1128"/>
      <point x="154" y="1169"/>
      <point x="205" y="1169" type="curve" smooth="yes"/>
      <point x="256" y="1169"/>
      <point x="297" y="1128"/>
    </contour>
    <contour>
      <point x="588" y="575" type="curve" smooth="yes"/>
      <point x="588" y="541"/>
      <point x="569" y="522"/>
      <point x="535" y="522" type="curve" smooth="yes"/>
      <point x="500" y="522"/>
      <point x="483" y="541"/>
      <point x="483" y="575" type="curve" smooth="yes"/>
      <point x="483" y="610"/>
      <point x="500" y="627"/>
      <point x="535" y="627" type="curve" smooth="yes"/>
      <point x="569" y="627"/>
      <point x="588" y="610"/>
    </contour>
    <contour>
      <point x="854" y="51" type="curve" smooth="yes"/>
      <point x="854" y="16"/>
      <point x="838" y="-2"/>
      <point x="803" y="-2" type="curve" smooth="yes"/>
      <point x="768" y="-2"/>
      <point x="750" y="16"/>
      <point x="750" y="51" type="curve" smooth="yes"/>
      <point x="750" y="86"/>
      <point x="768" y="104"/>
      <point x="803" y="104" type="curve" smooth="yes"/>
      <point x="838" y="104"/>
      <point x="854" y="86"/>
    </contour>
    <contour>
      <point x="465" y="395" type="curve" smooth="yes"/>
      <point x="465" y="360"/>
      <point x="446" y="342"/>
      <point x="412" y="342" type="curve" smooth="yes"/>
      <point x="377" y="342"/>
      <point x="360" y="360"/>
      <point x="360" y="395" type="curve" smooth="yes"/>
      <point x="360" y="430"/>
      <point x="377" y="446"/>
      <point x="412" y="446" type="curve" smooth="yes"/>
      <point x="446" y="446"/>
      <point x="465" y="430"/>
    </contour>
    <contour>
      <point x="649" y="51" type="curve" smooth="yes"/>
      <point x="649" y="16"/>
      <point x="633" y="-2"/>
      <point x="598" y="-2" type="curve" smooth="yes"/>
      <point x="563" y="-2"/>
      <point x="545" y="16"/>
      <point x="545" y="51" type="curve" smooth="yes"/>
      <point x="545" y="86"/>
      <point x="563" y="104"/>
      <point x="598" y="104" type="curve" smooth="yes" name=".hr06"/>
      <point x="633" y="104"/>
      <point x="649" y="86"/>
    </contour>
    <contour>
      <point x="346" y="225" type="curve" smooth="yes"/>
      <point x="346" y="190"/>
      <point x="328" y="172"/>
      <point x="293" y="172" type="curve" smooth="yes"/>
      <point x="258" y="172"/>
      <point x="242" y="190"/>
      <point x="242" y="225" type="curve" smooth="yes"/>
      <point x="242" y="260"/>
      <point x="258" y="276"/>
      <point x="293" y="276" type="curve" smooth="yes"/>
      <point x="328" y="276"/>
      <point x="346" y="260"/>
    </contour>
    <contour>
      <point x="444" y="51" type="curve" smooth="yes"/>
      <point x="444" y="16"/>
      <point x="428" y="-2"/>
      <point x="393" y="-2" type="curve" smooth="yes"/>
      <point x="358" y="-2"/>
      <point x="340" y="16"/>
      <point x="340" y="51" type="curve" smooth="yes"/>
      <point x="340" y="86"/>
      <point x="358" y="104"/>
      <point x="393" y="104" type="curve" smooth="yes"/>
      <point x="428" y="104"/>
      <point x="444" y="86" name=".hr07"/>
    </contour>
    <contour>
      <point x="240" y="51" type="curve" smooth="yes"/>
      <point x="240" y="16"/>
      <point x="223" y="-2"/>
      <point x="188" y="-2" type="curve" smooth="yes"/>
      <point x="154" y="-2"/>
      <point x="135" y="16"/>
      <point x="135" y="51" type="curve" smooth="yes"/>
      <point x="135" y="86"/>
      <point x="154" y="104"/>
      <point x="188" y="104" type="curve" smooth="yes"/>
      <point x="223" y="104"/>
      <point x="240" y="86"/>
    </contour>
    <contour>
      <point x="276" y="1077" type="curve" smooth="yes"/>
      <point x="276" y="1116"/>
      <point x="244" y="1149"/>
      <point x="205" y="1149" type="curve" smooth="yes"/>
      <point x="166" y="1149"/>
      <point x="133" y="1116"/>
      <point x="133" y="1077" type="curve" smooth="yes"/>
      <point x="133" y="1038"/>
      <point x="166" y="1006"/>
      <point x="205" y="1006" type="curve" smooth="yes"/>
      <point x="244" y="1006"/>
      <point x="276" y="1038"/>
    </contour>
  </outline>
</glyph>
<glyph name="three" format="2">
  <advance width="1024"/>
  <unicode hex="0033"/>
  <outline>
    <contour>
      <point x="758" y="1221" type="curve" smooth="yes"/>
      <point x="758" y="1186"/>
      <point x="739" y="1167"/>
      <point x="705" y="1167" type="curve" smooth="yes"/>
      <point x="670" y="1167"/>
      <point x="653" y="1186"/>
      <point x="653" y="1221" type="curve" smooth="yes"/>
      <point x="653" y="1255"/>
      <point x="670" y="1272"/>
      <point x="705" y="1272" type="curve" smooth="yes"/>
      <point x="739" y="1272"/>
      <point x="758" y="1255"/>
    </contour>
    <contour>
      <point x="860" y="1094" type="curve" smooth="yes"/>
      <point x="860" y="1059" name=".hr01"/>
      <point x="842" y="1040"/>
      <point x="807" y="1040" type="curve" smooth="yes"/>
      <point x="772" y="1040"/>
      <point x="756" y="1059"/>
      <point x="756" y="1094" type="curve" smooth="yes"/>
      <point x="756" y="1128"/>
      <point x="772" y="1145" name=".hr02"/>
      <point x="807" y="1145" type="curve" smooth="yes"/>
      <point x="842" y="1145"/>
      <point x="860" y="1128"/>
    </contour>
    <contour>
      <point x="551" y="1282" type="curve" smooth="yes"/>
      <point x="551" y="1247"/>
      <point x="532" y="1229"/>
      <point x="498" y="1229" type="curve" smooth="yes"/>
      <point x="463" y="1229"/>
      <point x="446" y="1247"/>
      <point x="446" y="1282" type="curve" smooth="yes"/>
      <point x="446" y="1317"/>
      <point x="463" y="1333"/>
      <point x="498" y="1333" type="curve" smooth="yes"/>
      <point x="532" y="1333"/>
      <point x="551" y="1317"/>
    </contour>
    <contour>
      <point x="868" y="920" type="curve" smooth="yes"/>
      <point x="868" y="885"/>
      <point x="850" y="866"/>
      <point x="815" y="866" type="curve" smooth="yes" name=".hr03"/>
      <point x="780" y="866"/>
      <point x="764" y="885"/>
      <point x="764" y="920" type="curve" smooth="yes"/>
      <point x="764" y="954" name=".hr04"/>
      <point x="780" y="971" name=".hr05"/>
      <point x="815" y="971" type="curve" smooth="yes"/>
      <point x="850" y="971"/>
      <point x="868" y="954" name=".hr06"/>
    </contour>
    <contour>
      <point x="356" y="1206" type="curve" smooth="yes"/>
      <point x="356" y="1171"/>
      <point x="338" y="1153" name=".hr07"/>
      <point x="303" y="1153" type="curve" smooth="yes"/>
      <point x="268" y="1153"/>
      <point x="252" y="1171"/>
      <point x="252" y="1206" type="curve" smooth="yes"/>
      <point x="252" y="1241" name=".hr08"/>
      <point x="268" y="1257"/>
      <point x="303" y="1257" type="curve" smooth="yes" name=".hr09"/>
      <point x="338" y="1257"/>
      <point x="356" y="1241"/>
    </contour>
    <contour>
      <point x="782" y="764" type="curve" smooth="yes"/>
      <point x="782" y="729" name=".hr10"/>
      <point x="764" y="711"/>
      <point x="729" y="711" type="curve" smooth="yes" name=".hr11"/>
      <point x="694" y="711"/>
      <point x="678" y="729"/>
      <point x="678" y="764" type="curve" smooth="yes"/>
      <point x="678" y="799"/>
      <point x="694" y="815"/>
      <point x="729" y="815" type="curve" smooth="yes"/>
      <point x="764" y="815"/>
      <point x="782" y="799"/>
    </contour>
    <contour>
      <point x="780" y="596" type="curve" smooth="yes"/>
      <point x="780" y="561"/>
      <point x="762" y="543"/>
      <point x="727" y="543" type="curve" smooth="yes"/>
      <point x="692" y="543"/>
      <point x="676" y="561"/>
      <point x="676" y="596" type="curve" smooth="yes" name=".hr12"/>
      <point x="676" y="631"/>
      <point x="692" y="647"/>
      <point x="727" y="647" type="curve" smooth="yes"/>
      <point x="762" y="647"/>
      <point x="780" y="631"/>
    </contour>
    <contour>
      <point x="662" y="664" type="curve" smooth="yes"/>
      <point x="662" y="629"/>
      <point x="643" y="610"/>
      <point x="608" y="610" type="curve" smooth="yes"/>
      <point x="573" y="610"/>
      <point x="557" y="629"/>
      <point x="557" y="664" type="curve" smooth="yes"/>
      <point x="557" y="698"/>
      <point x="573" y="715"/>
      <point x="608" y="715" type="curve" smooth="yes" name=".hr13"/>
      <point x="643" y="715"/>
      <point x="662" y="698"/>
    </contour>
    <contour>
      <point x="303" y="1057" type="curve" smooth="yes" name=".hr14"/>
      <point x="303" y="1006"/>
      <point x="262" y="965"/>
      <point x="211" y="965" type="curve" smooth="yes"/>
      <point x="160" y="965"/>
      <point x="119" y="1006" name=".hr15"/>
      <point x="119" y="1057" type="curve" smooth="yes"/>
      <point x="119" y="1108"/>
      <point x="160" y="1149"/>
      <point x="211" y="1149" type="curve" smooth="yes"/>
      <point x="262" y="1149"/>
      <point x="303" y="1108"/>
    </contour>
    <contour>
      <point x="870" y="444" type="curve" smooth="yes"/>
      <point x="870" y="410"/>
      <point x="852" y="391"/>
      <point x="817" y="391" type="curve" smooth="yes"/>
      <point x="782" y="391"/>
      <point x="766" y="410"/>
      <point x="766" y="444" type="curve" smooth="yes"/>
      <point x="766" y="479"/>
      <point x="782" y="496"/>
      <point x="817" y="496" type="curve" smooth="yes"/>
      <point x="852" y="496"/>
      <point x="870" y="479"/>
    </contour>
    <contour>
      <point x="502" y="700" type="curve" smooth="yes"/>
      <point x="502" y="666"/>
      <point x="483" y="647"/>
      <point x="449" y="647" type="curve" smooth="yes"/>
      <point x="414" y="647"/>
      <point x="397" y="666"/>
      <point x="397" y="700" type="curve" smooth="yes"/>
      <point x="397" y="735"/>
      <point x="414" y="752"/>
      <point x="449" y="752" type="curve" smooth="yes"/>
      <point x="483" y="752"/>
      <point x="502" y="735"/>
    </contour>
    <contour>
      <point x="860" y="272" type="curve" smooth="yes"/>
      <point x="860" y="238"/>
      <point x="842" y="219"/>
      <point x="807" y="219" type="curve" smooth="yes"/>
      <point x="772" y="219"/>
      <point x="756" y="238"/>
      <point x="756" y="272" type="curve" smooth="yes"/>
      <point x="756" y="307"/>
      <point x="772" y="324"/>
      <point x="807" y="324" type="curve" smooth="yes"/>
      <point x="842" y="324"/>
      <point x="860" y="307"/>
    </contour>
    <contour>
      <point x="748" y="113" type="curve" smooth="yes"/>
      <point x="748" y="78"/>
      <point x="729" y="59"/>
      <point x="694" y="59" type="curve" smooth="yes"/>
      <point x="659" y="59"/>
      <point x="643" y="78"/>
      <point x="643" y="113" type="curve" smooth="yes"/>
      <point x="643" y="147"/>
      <point x="659" y="164"/>
      <point x="694" y="164" type="curve" smooth="yes"/>
      <point x="729" y="164"/>
      <point x="748" y="147"/>
    </contour>
    <contour>
      <point x="551" y="53" type="curve" smooth="yes"/>
      <point x="551" y="18"/>
      <point x="532" y="0"/>
      <point x="498" y="0" type="curve" smooth="yes"/>
      <point x="463" y="0"/>
      <point x="446" y="18"/>
      <point x="446" y="53" type="curve" smooth="yes"/>
      <point x="446" y="88"/>
      <point x="463" y="104"/>
      <point x="498" y="104" type="curve" smooth="yes"/>
      <point x="532" y="104"/>
      <point x="551" y="88"/>
    </contour>
    <contour>
      <point x="254" y="289" type="curve" smooth="yes"/>
      <point x="254" y="254"/>
      <point x="236" y="236"/>
      <point x="201" y="236" type="curve" smooth="yes" name=".hr16"/>
      <point x="166" y="236"/>
      <point x="150" y="254"/>
      <point x="150" y="289" type="curve" smooth="yes"/>
      <point x="150" y="324"/>
      <point x="166" y="340"/>
      <point x="201" y="340" type="curve" smooth="yes"/>
      <point x="236" y="340"/>
      <point x="254" y="324"/>
    </contour>
    <contour>
      <point x="360" y="123" type="curve" smooth="yes"/>
      <point x="360" y="88"/>
      <point x="342" y="70"/>
      <point x="307" y="70" type="curve" smooth="yes"/>
      <point x="272" y="70"/>
      <point x="256" y="88"/>
      <point x="256" y="123" type="curve" smooth="yes"/>
      <point x="256" y="158"/>
      <point x="272" y="174"/>
      <point x="307" y="174" type="curve" smooth="yes"/>
      <point x="342" y="174"/>
      <point x="360" y="158"/>
    </contour>
    <contour>
      <point x="283" y="1057" type="curve" smooth="yes"/>
      <point x="283" y="1096"/>
      <point x="250" y="1128"/>
      <point x="211" y="1128" type="curve" smooth="yes"/>
      <point x="172" y="1128"/>
      <point x="139" y="1096" name=".hr17"/>
      <point x="139" y="1057" type="curve" smooth="yes"/>
      <point x="139" y="1018"/>
      <point x="172" y="985"/>
      <point x="211" y="985" type="curve" smooth="yes"/>
      <point x="250" y="985"/>
      <point x="283" y="1018"/>
    </contour>
  </outline>
</glyph>
<glyph name="four" format="2">
  <advance width="1024"/>
  <unicode hex="0034"/>
  <outline>
    <contour>
      <point x="811" y="1282" type="curve" smooth="yes"/>
      <point x="811" y="1247"/>
      <point x="793" y="1229"/>
      <point x="758" y="1229" type="curve" smooth="yes"/>
      <point x="723" y="1229"/>
      <point x="707" y="1247"/>
      <point x="707" y="1282" type="curve" smooth="yes"/>
      <point x="707" y="1317"/>
      <point x="723" y="1333"/>
      <point x="758" y="1333" type="curve" smooth="yes"/>
      <point x="793" y="1333"/>
      <point x="811" y="1317"/>
    </contour>
    <contour>
      <point x="811" y="1077" type="curve" smooth="yes"/>
      <point x="811" y="1042"/>
      <point x="793" y="1024"/>
      <point x="758" y="1024" type="curve" smooth="yes"/>
      <point x="723" y="1024"/>
      <point x="707" y="1042"/>
      <point x="707" y="1077" type="curve" smooth="yes"/>
      <point x="707" y="1112"/>
      <point x="723" y="1128"/>
      <point x="758" y="1128" type="curve" smooth="yes"/>
      <point x="793" y="1128"/>
      <point x="811" y="1112"/>
    </contour>
    <contour>
      <point x="811" y="872" type="curve" smooth="yes"/>
      <point x="811" y="838"/>
      <point x="793" y="819"/>
      <point x="758" y="819" type="curve" smooth="yes"/>
      <point x="723" y="819"/>
      <point x="707" y="838"/>
      <point x="707" y="872" type="curve" smooth="yes"/>
      <point x="707" y="907"/>
      <point x="723" y="924"/>
      <point x="758" y="924" type="curve" smooth="yes"/>
      <point x="793" y="924"/>
      <point x="811" y="907"/>
    </contour>
    <contour>
      <point x="997" y="676" type="curve" smooth="yes"/>
      <point x="997" y="641"/>
      <point x="979" y="623"/>
      <point x="944" y="623" type="curve" smooth="yes"/>
      <point x="909" y="623"/>
      <point x="893" y="641"/>
      <point x="893" y="676" type="curve" smooth="yes"/>
      <point x="893" y="711"/>
      <point x="909" y="727"/>
      <point x="944" y="727" type="curve" smooth="yes"/>
      <point x="979" y="727"/>
      <point x="997" y="711"/>
    </contour>
    <contour>
      <point x="811" y="668" type="curve" smooth="yes"/>
      <point x="811" y="633"/>
      <point x="793" y="614"/>
      <point x="758" y="614" type="curve" smooth="yes"/>
      <point x="723" y="614"/>
      <point x="707" y="633"/>
      <point x="707" y="668" type="curve" smooth="yes"/>
      <point x="707" y="702"/>
      <point x="723" y="719"/>
      <point x="758" y="719" type="curve" smooth="yes"/>
      <point x="793" y="719"/>
      <point x="811" y="702"/>
    </contour>
    <contour>
      <point x="233" y="1274" type="curve" smooth="yes"/>
      <point x="233" y="1223"/>
      <point x="193" y="1182"/>
      <point x="141" y="1182" type="curve" smooth="yes"/>
      <point x="90" y="1182"/>
      <point x="49" y="1223"/>
      <point x="49" y="1274" type="curve" smooth="yes"/>
      <point x="49" y="1325"/>
      <point x="90" y="1366"/>
      <point x="141" y="1366" type="curve" smooth="yes"/>
      <point x="193" y="1366"/>
      <point x="233" y="1325"/>
    </contour>
    <contour>
      <point x="811" y="463" type="curve" smooth="yes"/>
      <point x="811" y="428"/>
      <point x="793" y="410"/>
      <point x="758" y="410" type="curve" smooth="yes"/>
      <point x="723" y="410"/>
      <point x="707" y="428"/>
      <point x="707" y="463" type="curve" smooth="yes"/>
      <point x="707" y="498"/>
      <point x="723" y="514"/>
      <point x="758" y="514" type="curve" smooth="yes"/>
      <point x="793" y="514"/>
      <point x="811" y="498"/>
    </contour>
    <contour>
      <point x="600" y="670" type="curve" smooth="yes"/>
      <point x="600" y="635"/>
      <point x="582" y="616"/>
      <point x="547" y="616" type="curve" smooth="yes"/>
      <point x="512" y="616"/>
      <point x="496" y="635"/>
      <point x="496" y="670" type="curve" smooth="yes"/>
      <point x="496" y="705"/>
      <point x="512" y="721"/>
      <point x="547" y="721" type="curve" smooth="yes" name=".hr01"/>
      <point x="582" y="721"/>
      <point x="600" y="705"/>
    </contour>
    <contour>
      <point x="190" y="1079" type="curve" smooth="yes"/>
      <point x="190" y="1044"/>
      <point x="172" y="1026"/>
      <point x="137" y="1026" type="curve" smooth="yes"/>
      <point x="102" y="1026"/>
      <point x="86" y="1044"/>
      <point x="86" y="1079" type="curve" smooth="yes"/>
      <point x="86" y="1114"/>
      <point x="102" y="1130"/>
      <point x="137" y="1130" type="curve" smooth="yes"/>
      <point x="172" y="1130"/>
      <point x="190" y="1114"/>
    </contour>
    <contour>
      <point x="811" y="258" type="curve" smooth="yes"/>
      <point x="811" y="223"/>
      <point x="793" y="205"/>
      <point x="758" y="205" type="curve" smooth="yes"/>
      <point x="723" y="205"/>
      <point x="707" y="223"/>
      <point x="707" y="258" type="curve" smooth="yes"/>
      <point x="707" y="293"/>
      <point x="723" y="309"/>
      <point x="758" y="309" type="curve" smooth="yes"/>
      <point x="793" y="309"/>
      <point x="811" y="293"/>
    </contour>
    <contour>
      <point x="190" y="874" type="curve" smooth="yes"/>
      <point x="190" y="840"/>
      <point x="172" y="821"/>
      <point x="137" y="821" type="curve" smooth="yes"/>
      <point x="102" y="821"/>
      <point x="86" y="840"/>
      <point x="86" y="874" type="curve" smooth="yes"/>
      <point x="86" y="909"/>
      <point x="102" y="926"/>
      <point x="137" y="926" type="curve" smooth="yes"/>
      <point x="172" y="926"/>
      <point x="190" y="909"/>
    </contour>
    <contour>
      <point x="395" y="670" type="curve" smooth="yes"/>
      <point x="395" y="635"/>
      <point x="377" y="616"/>
      <point x="342" y="616" type="curve" smooth="yes"/>
      <point x="307" y="616"/>
      <point x="291" y="635"/>
      <point x="291" y="670" type="curve" smooth="yes"/>
      <point x="291" y="705"/>
      <point x="307" y="721"/>
      <point x="342" y="721" type="curve" smooth="yes"/>
      <point x="377" y="721"/>
      <point x="395" y="705"/>
    </contour>
    <contour>
      <point x="811" y="53" type="curve" smooth="yes"/>
      <point x="811" y="18"/>
      <point x="793" y="0"/>
      <point x="758" y="0" type="curve" smooth="yes"/>
      <point x="723" y="0"/>
      <point x="707" y="18"/>
      <point x="707" y="53" type="curve" smooth="yes"/>
      <point x="707" y="88"/>
      <point x="723" y="104"/>
      <point x="758" y="104" type="curve" smooth="yes"/>
      <point x="793" y="104"/>
      <point x="811" y="88"/>
    </contour>
    <contour>
      <point x="190" y="670" type="curve" smooth="yes"/>
      <point x="190" y="635"/>
      <point x="172" y="616"/>
      <point x="137" y="616" type="curve" smooth="yes"/>
      <point x="102" y="616"/>
      <point x="86" y="635"/>
      <point x="86" y="670" type="curve" smooth="yes"/>
      <point x="86" y="705"/>
      <point x="102" y="721"/>
      <point x="137" y="721" type="curve" smooth="yes"/>
      <point x="172" y="721"/>
      <point x="190" y="705"/>
    </contour>
    <contour>
      <point x="213" y="1274" type="curve" smooth="yes"/>
      <point x="213" y="1313"/>
      <point x="180" y="1346"/>
      <point x="141" y="1346" type="curve" smooth="yes"/>
      <point x="102" y="1346"/>
      <point x="70" y="1313"/>
      <point x="70" y="1274" type="curve" smooth="yes"/>
      <point x="70" y="1235"/>
      <point x="102" y="1202"/>
      <point x="141" y="1202" type="curve" smooth="yes"/>
      <point x="180" y="1202"/>
      <point x="213" y="1235"/>
    </contour>
  </outline>
</glyph>
<glyph name="five" format="2">
  <advance width="1024"/>
  <unicode hex="0035"/>
  <outline>
    <contour>
      <point x="825" y="1286" type="curve" smooth="yes"/>
      <point x="825" y="1251"/>
      <point x="807" y="1233"/>
      <point x="772" y="1233" type="curve" smooth="yes"/>
      <point x="737" y="1233"/>
      <point x="721" y="1251"/>
      <point x="721" y="1286" type="curve" smooth="yes"/>
      <point x="721" y="1321"/>
      <point x="737" y="1337"/>
      <point x="772" y="1337" type="curve" smooth="yes"/>
      <point x="807" y="1337"/>
      <point x="825" y="1321"/>
    </contour>
    <contour>
      <point x="621" y="1286" type="curve" smooth="yes"/>
      <point x="621" y="1251"/>
      <point x="602" y="1233"/>
      <point x="567" y="1233" type="curve" smooth="yes"/>
      <point x="532" y="1233"/>
      <point x="516" y="1251"/>
      <point x="516" y="1286" type="curve" smooth="yes"/>
      <point x="516" y="1321"/>
      <point x="532" y="1337"/>
      <point x="567" y="1337" type="curve" smooth="yes"/>
      <point x="602" y="1337"/>
      <point x="621" y="1321"/>
    </contour>
    <contour>
      <point x="416" y="1286" type="curve" smooth="yes"/>
      <point x="416" y="1251"/>
      <point x="397" y="1233"/>
      <point x="362" y="1233" type="curve" smooth="yes"/>
      <point x="328" y="1233"/>
      <point x="311" y="1251"/>
      <point x="311" y="1286" type="curve" smooth="yes"/>
      <point x="311" y="1321"/>
      <point x="328" y="1337"/>
      <point x="362" y="1337" type="curve" smooth="yes"/>
      <point x="397" y="1337"/>
      <point x="416" y="1321"/>
    </contour>
    <contour>
      <point x="268" y="1274" type="curve" smooth="yes"/>
      <point x="268" y="1223"/>
      <point x="227" y="1182"/>
      <point x="176" y="1182" type="curve" smooth="yes"/>
      <point x="125" y="1182"/>
      <point x="84" y="1223"/>
      <point x="84" y="1274" type="curve" smooth="yes"/>
      <point x="84" y="1325"/>
      <point x="125" y="1366"/>
      <point x="176" y="1366" type="curve" smooth="yes"/>
      <point x="227" y="1366"/>
      <point x="268" y="1325"/>
    </contour>
    <contour>
      <point x="780" y="717" type="curve" smooth="yes"/>
      <point x="780" y="682"/>
      <point x="764" y="666"/>
      <point x="729" y="666" type="curve" smooth="yes"/>
      <point x="694" y="666" name=".hr01"/>
      <point x="676" y="682"/>
      <point x="676" y="717" type="curve" smooth="yes"/>
      <point x="676" y="752"/>
      <point x="694" y="770"/>
      <point x="729" y="770" type="curve" smooth="yes"/>
      <point x="764" y="770"/>
      <point x="780" y="752"/>
    </contour>
    <contour>
      <point x="874" y="596" type="curve" smooth="yes"/>
      <point x="874" y="561"/>
      <point x="858" y="545"/>
      <point x="823" y="545" type="curve" smooth="yes"/>
      <point x="788" y="545"/>
      <point x="770" y="561" name=".hr02"/>
      <point x="770" y="596" type="curve" smooth="yes"/>
      <point x="770" y="631"/>
      <point x="788" y="649"/>
      <point x="823" y="649" type="curve" smooth="yes"/>
      <point x="858" y="649"/>
      <point x="874" y="631"/>
    </contour>
    <contour>
      <point x="586" y="797" type="curve" smooth="yes"/>
      <point x="586" y="762"/>
      <point x="567" y="743"/>
      <point x="532" y="743" type="curve" smooth="yes"/>
      <point x="498" y="743"/>
      <point x="481" y="762"/>
      <point x="481" y="797" type="curve" smooth="yes"/>
      <point x="481" y="831"/>
      <point x="498" y="848"/>
      <point x="532" y="848" type="curve" smooth="yes"/>
      <point x="567" y="848"/>
      <point x="586" y="831"/>
    </contour>
    <contour>
      <point x="915" y="455" type="curve" smooth="yes"/>
      <point x="915" y="420"/>
      <point x="897" y="401"/>
      <point x="862" y="401" type="curve" smooth="yes"/>
      <point x="827" y="401"/>
      <point x="811" y="420"/>
      <point x="811" y="455" type="curve" smooth="yes"/>
      <point x="811" y="489" name=".hr03"/>
      <point x="827" y="506"/>
      <point x="862" y="506" type="curve" smooth="yes"/>
      <point x="897" y="506"/>
      <point x="915" y="489"/>
    </contour>
    <contour>
      <point x="229" y="1071" type="curve" smooth="yes"/>
      <point x="229" y="1036"/>
      <point x="211" y="1018"/>
      <point x="176" y="1018" type="curve" smooth="yes"/>
      <point x="141" y="1018"/>
      <point x="125" y="1036"/>
      <point x="125" y="1071" type="curve" smooth="yes"/>
      <point x="125" y="1106"/>
      <point x="141" y="1122"/>
      <point x="176" y="1122" type="curve" smooth="yes"/>
      <point x="211" y="1122"/>
      <point x="229" y="1106"/>
    </contour>
    <contour>
      <point x="389" y="766" type="curve" smooth="yes"/>
      <point x="389" y="731"/>
      <point x="371" y="713"/>
      <point x="336" y="713" type="curve" smooth="yes"/>
      <point x="301" y="713"/>
      <point x="285" y="731"/>
      <point x="285" y="766" type="curve" smooth="yes"/>
      <point x="285" y="801"/>
      <point x="301" y="817"/>
      <point x="336" y="817" type="curve" smooth="yes"/>
      <point x="371" y="817"/>
      <point x="389" y="801"/>
    </contour>
    <contour>
      <point x="874" y="254" type="curve" smooth="yes"/>
      <point x="874" y="219"/>
      <point x="856" y="201"/>
      <point x="821" y="201" type="curve" smooth="yes"/>
      <point x="786" y="201"/>
      <point x="770" y="219"/>
      <point x="770" y="254" type="curve" smooth="yes"/>
      <point x="770" y="289"/>
      <point x="786" y="305"/>
      <point x="821" y="305" type="curve" smooth="yes"/>
      <point x="856" y="305" name=".hr04"/>
      <point x="874" y="289"/>
    </contour>
    <contour>
      <point x="229" y="866" type="curve" smooth="yes"/>
      <point x="229" y="831"/>
      <point x="211" y="813"/>
      <point x="176" y="813" type="curve" smooth="yes"/>
      <point x="141" y="813"/>
      <point x="125" y="831"/>
      <point x="125" y="866" type="curve" smooth="yes"/>
      <point x="125" y="901"/>
      <point x="141" y="918"/>
      <point x="176" y="918" type="curve" smooth="yes"/>
      <point x="211" y="918"/>
      <point x="229" y="901"/>
    </contour>
    <contour>
      <point x="229" y="662" type="curve" smooth="yes"/>
      <point x="229" y="627"/>
      <point x="211" y="608"/>
      <point x="176" y="608" type="curve" smooth="yes"/>
      <point x="141" y="608"/>
      <point x="125" y="627"/>
      <point x="125" y="662" type="curve" smooth="yes"/>
      <point x="125" y="696"/>
      <point x="141" y="713"/>
      <point x="176" y="713" type="curve" smooth="yes"/>
      <point x="211" y="713"/>
      <point x="229" y="696"/>
    </contour>
    <contour>
      <point x="743" y="109" type="curve" smooth="yes"/>
      <point x="743" y="74"/>
      <point x="725" y="55"/>
      <point x="690" y="55" type="curve" smooth="yes"/>
      <point x="655" y="55"/>
      <point x="639" y="74"/>
      <point x="639" y="109" type="curve" smooth="yes"/>
      <point x="639" y="143"/>
      <point x="655" y="160" name=".hr05"/>
      <point x="690" y="160" type="curve" smooth="yes"/>
      <point x="725" y="160"/>
      <point x="743" y="143"/>
    </contour>
    <contour>
      <point x="543" y="53" type="curve" smooth="yes"/>
      <point x="543" y="18"/>
      <point x="524" y="0"/>
      <point x="489" y="0" type="curve" smooth="yes"/>
      <point x="455" y="0"/>
      <point x="438" y="18"/>
      <point x="438" y="53" type="curve" smooth="yes"/>
      <point x="438" y="88"/>
      <point x="455" y="104"/>
      <point x="489" y="104" type="curve" smooth="yes"/>
      <point x="524" y="104"/>
      <point x="543" y="88"/>
    </contour>
    <contour>
      <point x="211" y="266" type="curve" smooth="yes"/>
      <point x="211" y="231"/>
      <point x="193" y="213"/>
      <point x="158" y="213" type="curve" smooth="yes"/>
      <point x="123" y="213"/>
      <point x="106" y="231"/>
      <point x="106" y="266" type="curve" smooth="yes"/>
      <point x="106" y="301"/>
      <point x="123" y="317"/>
      <point x="158" y="317" type="curve" smooth="yes"/>
      <point x="193" y="317"/>
      <point x="211" y="301"/>
    </contour>
    <contour>
      <point x="342" y="111" type="curve" smooth="yes"/>
      <point x="342" y="76"/>
      <point x="324" y="57"/>
      <point x="289" y="57" type="curve" smooth="yes"/>
      <point x="254" y="57"/>
      <point x="238" y="76"/>
      <point x="238" y="111" type="curve" smooth="yes"/>
      <point x="238" y="145"/>
      <point x="254" y="162" name=".hr06"/>
      <point x="289" y="162" type="curve" smooth="yes"/>
      <point x="324" y="162"/>
      <point x="342" y="145"/>
    </contour>
    <contour>
      <point x="248" y="1274" type="curve" smooth="yes"/>
      <point x="248" y="1313"/>
      <point x="215" y="1346"/>
      <point x="176" y="1346" type="curve" smooth="yes"/>
      <point x="137" y="1346"/>
      <point x="104" y="1313"/>
      <point x="104" y="1274" type="curve" smooth="yes"/>
      <point x="104" y="1235"/>
      <point x="137" y="1202"/>
      <point x="176" y="1202" type="curve" smooth="yes"/>
      <point x="215" y="1202"/>
      <point x="248" y="1235"/>
    </contour>
  </outline>
</glyph>
<glyph name="six" format="2">
  <advance width="1024"/>
  <unicode hex="0036"/>
  <outline>
    <contour>
      <point x="686" y="1274" type="curve" smooth="yes"/>
      <point x="686" y="1223"/>
      <point x="645" y="1182"/>
      <point x="594" y="1182" type="curve" smooth="yes"/>
      <point x="543" y="1182"/>
      <point x="502" y="1223"/>
      <point x="502" y="1274" type="curve" smooth="yes"/>
      <point x="502" y="1325"/>
      <point x="543" y="1366"/>
      <point x="594" y="1366" type="curve" smooth="yes"/>
      <point x="645" y="1366"/>
      <point x="686" y="1325"/>
    </contour>
    <contour>
      <point x="528" y="1147" type="curve" smooth="yes"/>
      <point x="528" y="1112" name=".hr01"/>
      <point x="510" y="1094"/>
      <point x="475" y="1094" type="curve" smooth="yes"/>
      <point x="440" y="1094"/>
      <point x="424" y="1112"/>
      <point x="424" y="1147" type="curve" smooth="yes"/>
      <point x="424" y="1182"/>
      <point x="440" y="1198" name=".hr02"/>
      <point x="475" y="1198" type="curve" smooth="yes" name=".hr03"/>
      <point x="510" y="1198"/>
      <point x="528" y="1182"/>
    </contour>
    <contour>
      <point x="856" y="629" type="curve" smooth="yes" name=".hr04"/>
      <point x="856" y="594"/>
      <point x="838" y="575"/>
      <point x="803" y="575" type="curve" smooth="yes"/>
      <point x="768" y="575"/>
      <point x="752" y="594"/>
      <point x="752" y="629" type="curve" smooth="yes" name=".hr05"/>
      <point x="752" y="664" name=".hr06"/>
      <point x="768" y="680"/>
      <point x="803" y="680" type="curve" smooth="yes"/>
      <point x="838" y="680" name=".hr07"/>
      <point x="856" y="664"/>
    </contour>
    <contour>
      <point x="436" y="1020" type="curve" smooth="yes"/>
      <point x="436" y="985" name=".hr08"/>
      <point x="418" y="967"/>
      <point x="383" y="967" type="curve" smooth="yes"/>
      <point x="348" y="967"/>
      <point x="332" y="985"/>
      <point x="332" y="1020" type="curve" smooth="yes"/>
      <point x="332" y="1055"/>
      <point x="348" y="1071"/>
      <point x="383" y="1071" type="curve" smooth="yes"/>
      <point x="418" y="1071"/>
      <point x="436" y="1055"/>
    </contour>
    <contour>
      <point x="672" y="758" type="curve" smooth="yes"/>
      <point x="672" y="723"/>
      <point x="653" y="705"/>
      <point x="618" y="705" type="curve" smooth="yes"/>
      <point x="584" y="705"/>
      <point x="567" y="723"/>
      <point x="567" y="758" type="curve" smooth="yes"/>
      <point x="567" y="793"/>
      <point x="584" y="809"/>
      <point x="618" y="809" type="curve" smooth="yes"/>
      <point x="653" y="809"/>
      <point x="672" y="793"/>
    </contour>
    <contour>
      <point x="926" y="453" type="curve" smooth="yes"/>
      <point x="926" y="418"/>
      <point x="907" y="399"/>
      <point x="872" y="399" type="curve" smooth="yes"/>
      <point x="838" y="399"/>
      <point x="821" y="418"/>
      <point x="821" y="453" type="curve" smooth="yes"/>
      <point x="821" y="487"/>
      <point x="838" y="504"/>
      <point x="872" y="504" type="curve" smooth="yes"/>
      <point x="907" y="504" name=".hr09"/>
      <point x="926" y="487"/>
    </contour>
    <contour>
      <point x="340" y="854" type="curve" smooth="yes"/>
      <point x="340" y="819"/>
      <point x="322" y="801"/>
      <point x="287" y="801" type="curve" smooth="yes"/>
      <point x="252" y="801"/>
      <point x="236" y="819"/>
      <point x="236" y="854" type="curve" smooth="yes"/>
      <point x="236" y="889"/>
      <point x="252" y="905"/>
      <point x="287" y="905" type="curve" smooth="yes"/>
      <point x="322" y="905"/>
      <point x="340" y="889"/>
    </contour>
    <contour>
      <point x="897" y="260" type="curve" smooth="yes"/>
      <point x="897" y="225"/>
      <point x="879" y="207"/>
      <point x="844" y="207" type="curve" smooth="yes"/>
      <point x="809" y="207"/>
      <point x="793" y="225"/>
      <point x="793" y="260" type="curve" smooth="yes"/>
      <point x="793" y="295" name=".hr10"/>
      <point x="809" y="311"/>
      <point x="844" y="311" type="curve" smooth="yes"/>
      <point x="879" y="311"/>
      <point x="897" y="295"/>
    </contour>
    <contour>
      <point x="416" y="731" type="curve" smooth="yes"/>
      <point x="416" y="696"/>
      <point x="397" y="678"/>
      <point x="362" y="678" type="curve" smooth="yes"/>
      <point x="328" y="678"/>
      <point x="311" y="696"/>
      <point x="311" y="731" type="curve" smooth="yes"/>
      <point x="311" y="766"/>
      <point x="328" y="782"/>
      <point x="362" y="782" type="curve" smooth="yes"/>
      <point x="397" y="782"/>
      <point x="416" y="766"/>
    </contour>
    <contour>
      <point x="254" y="657" type="curve" smooth="yes"/>
      <point x="254" y="623"/>
      <point x="236" y="604"/>
      <point x="201" y="604" type="curve" smooth="yes"/>
      <point x="166" y="604"/>
      <point x="150" y="623"/>
      <point x="150" y="657" type="curve" smooth="yes"/>
      <point x="150" y="692"/>
      <point x="166" y="709"/>
      <point x="201" y="709" type="curve" smooth="yes"/>
      <point x="236" y="709"/>
      <point x="254" y="692" name=".hr11"/>
    </contour>
    <contour>
      <point x="768" y="113" type="curve" smooth="yes"/>
      <point x="768" y="78"/>
      <point x="750" y="59" name=".hr12"/>
      <point x="715" y="59" type="curve" smooth="yes"/>
      <point x="680" y="59"/>
      <point x="664" y="78"/>
      <point x="664" y="113" type="curve" smooth="yes"/>
      <point x="664" y="147" name=".hr13"/>
      <point x="680" y="164" name=".hr14"/>
      <point x="715" y="164" type="curve" smooth="yes"/>
      <point x="750" y="164"/>
      <point x="768" y="147"/>
    </contour>
    <contour>
      <point x="211" y="453" type="curve" smooth="yes"/>
      <point x="211" y="418"/>
      <point x="193" y="399"/>
      <point x="158" y="399" type="curve" smooth="yes"/>
      <point x="123" y="399"/>
      <point x="106" y="418"/>
      <point x="106" y="453" type="curve" smooth="yes"/>
      <point x="106" y="487"/>
      <point x="123" y="504"/>
      <point x="158" y="504" type="curve" smooth="yes"/>
      <point x="193" y="504"/>
      <point x="211" y="487"/>
    </contour>
    <contour>
      <point x="565" y="53" type="curve" smooth="yes"/>
      <point x="565" y="18"/>
      <point x="547" y="0"/>
      <point x="512" y="0" type="curve" smooth="yes"/>
      <point x="477" y="0" name=".hr15"/>
      <point x="461" y="18"/>
      <point x="461" y="53" type="curve" smooth="yes"/>
      <point x="461" y="88"/>
      <point x="477" y="104"/>
      <point x="512" y="104" type="curve" smooth="yes"/>
      <point x="547" y="104"/>
      <point x="565" y="88"/>
    </contour>
    <contour>
      <point x="242" y="260" type="curve" smooth="yes"/>
      <point x="242" y="225"/>
      <point x="223" y="207"/>
      <point x="188" y="207" type="curve" smooth="yes"/>
      <point x="154" y="207"/>
      <point x="137" y="225"/>
      <point x="137" y="260" type="curve" smooth="yes"/>
      <point x="137" y="295"/>
      <point x="154" y="311"/>
      <point x="188" y="311" type="curve" smooth="yes"/>
      <point x="223" y="311"/>
      <point x="242" y="295"/>
    </contour>
    <contour>
      <point x="371" y="109" type="curve" smooth="yes"/>
      <point x="371" y="74"/>
      <point x="352" y="55"/>
      <point x="317" y="55" type="curve" smooth="yes"/>
      <point x="283" y="55"/>
      <point x="266" y="74"/>
      <point x="266" y="109" type="curve" smooth="yes" name=".hr16"/>
      <point x="266" y="143"/>
      <point x="283" y="160"/>
      <point x="317" y="160" type="curve" smooth="yes"/>
      <point x="352" y="160"/>
      <point x="371" y="143"/>
    </contour>
    <contour>
      <point x="666" y="1276" type="curve" smooth="yes"/>
      <point x="666" y="1315"/>
      <point x="633" y="1348"/>
      <point x="594" y="1348" type="curve" smooth="yes"/>
      <point x="555" y="1348"/>
      <point x="522" y="1315"/>
      <point x="522" y="1276" type="curve" smooth="yes"/>
      <point x="522" y="1237"/>
      <point x="555" y="1204"/>
      <point x="594" y="1204" type="curve" smooth="yes"/>
      <point x="633" y="1204"/>
      <point x="666" y="1237"/>
    </contour>
  </outline>
</glyph>
<glyph name="colon" format="2">
  <advance width="307"/>
  <unicode hex="003A"/>
  <outline>
    <contour>
      <point x="170" y="618" type="curve" smooth="yes"/>
      <point x="170" y="580"/>
      <point x="150" y="559"/>
      <point x="111" y="559" type="curve" smooth="yes"/>
      <point x="72" y="559"/>
      <point x="51" y="580"/>
      <point x="51" y="618" type="curve" smooth="yes"/>
      <point x="51" y="657"/>
      <point x="72" y="678"/>
      <point x="111" y="678" type="curve" smooth="yes"/>
      <point x="150" y="678"/>
      <point x="170" y="657"/>
    </contour>
    <contour>
      <point x="170" y="59" type="curve" smooth="yes"/>
      <point x="170" y="20"/>
      <point x="150" y="0"/>
      <point x="111" y="0" type="curve" smooth="yes"/>
      <point x="72" y="0"/>
      <point x="51" y="20"/>
      <point x="51" y="59" type="curve" smooth="yes"/>
      <point x="51" y="98"/>
      <point x="72" y="119"/>
      <point x="111" y="119" type="curve" smooth="yes"/>
      <point x="150" y="119"/>
      <point x="170" y="98"/>
    </contour>
  </outline>
</glyph>
<glyph name="semicolon" format="2">
  <advance width="307"/>
  <unicode hex="003B"/>
  <outline>
    <contour>
      <point x="162" y="612" type="curve" smooth="yes"/>
      <point x="162" y="578"/>
      <point x="145" y="559"/>
      <point x="111" y="559" type="curve" smooth="yes"/>
      <point x="76" y="559"/>
      <point x="57" y="578"/>
      <point x="57" y="612" type="curve" smooth="yes"/>
      <point x="57" y="647"/>
      <point x="76" y="664"/>
      <point x="111" y="664" type="curve" smooth="yes"/>
      <point x="145" y="664"/>
      <point x="162" y="647"/>
    </contour>
    <contour>
      <point x="154" y="80" type="curve" smooth="yes"/>
      <point x="154" y="45"/>
      <point x="137" y="27"/>
      <point x="102" y="27" type="curve" smooth="yes"/>
      <point x="68" y="27" name=".hr01"/>
      <point x="49" y="45"/>
      <point x="49" y="80" type="curve" smooth="yes" name=".hr02"/>
      <point x="49" y="115"/>
      <point x="68" y="131"/>
      <point x="102" y="131" type="curve" smooth="yes"/>
      <point x="137" y="131" name=".hr03"/>
      <point x="154" y="115"/>
    </contour>
    <contour>
      <point x="102" y="-70" type="curve" smooth="yes"/>
      <point x="102" y="-104"/>
      <point x="86" y="-121"/>
      <point x="51" y="-121" type="curve" smooth="yes"/>
      <point x="16" y="-121"/>
      <point x="-2" y="-104"/>
      <point x="-2" y="-70" type="curve" smooth="yes"/>
      <point x="-2" y="-35"/>
      <point x="16" y="-16"/>
      <point x="51" y="-16" type="curve" smooth="yes"/>
      <point x="86" y="-16"/>
      <point x="102" y="-35"/>
    </contour>
  </outline>
</glyph>
<glyph name="less" format="2">
  <advance width="1024"/>
  <unicode hex="003C"/>
  <outline>
    <contour>
      <point x="809" y="1034" type="curve" smooth="yes"/>
      <point x="809" y="999"/>
      <point x="793" y="981"/>
      <point x="758" y="981" type="curve" smooth="yes"/>
      <point x="723" y="981"/>
      <point x="705" y="999"/>
      <point x="705" y="1034" type="curve" smooth="yes"/>
      <point x="705" y="1069"/>
      <point x="723" y="1085" name=".hr01"/>
      <point x="758" y="1085" type="curve" smooth="yes"/>
      <point x="793" y="1085"/>
      <point x="809" y="1069"/>
    </contour>
    <contour>
      <point x="659" y="928" type="curve" smooth="yes"/>
      <point x="659" y="893"/>
      <point x="641" y="877"/>
      <point x="606" y="877" type="curve" smooth="yes" name=".hr02"/>
      <point x="571" y="877"/>
      <point x="555" y="893"/>
      <point x="555" y="928" type="curve" smooth="yes"/>
      <point x="555" y="963"/>
      <point x="571" y="981"/>
      <point x="606" y="981" type="curve" smooth="yes"/>
      <point x="641" y="981"/>
      <point x="659" y="963"/>
    </contour>
    <contour>
      <point x="508" y="819" type="curve" smooth="yes"/>
      <point x="508" y="784"/>
      <point x="489" y="766"/>
      <point x="455" y="766" type="curve" smooth="yes"/>
      <point x="420" y="766"/>
      <point x="403" y="784"/>
      <point x="403" y="819" type="curve" smooth="yes"/>
      <point x="403" y="854"/>
      <point x="420" y="870"/>
      <point x="455" y="870" type="curve" smooth="yes"/>
      <point x="489" y="870"/>
      <point x="508" y="854"/>
    </contour>
    <contour>
      <point x="807" y="342" type="curve" smooth="yes"/>
      <point x="807" y="307"/>
      <point x="788" y="289"/>
      <point x="754" y="289" type="curve" smooth="yes"/>
      <point x="719" y="289"/>
      <point x="702" y="307"/>
      <point x="702" y="342" type="curve" smooth="yes"/>
      <point x="702" y="377"/>
      <point x="719" y="393"/>
      <point x="754" y="393" type="curve" smooth="yes"/>
      <point x="788" y="393"/>
      <point x="807" y="377"/>
    </contour>
    <contour>
      <point x="655" y="451" type="curve" smooth="yes"/>
      <point x="655" y="416"/>
      <point x="637" y="399"/>
      <point x="602" y="399" type="curve" smooth="yes"/>
      <point x="567" y="399"/>
      <point x="551" y="416"/>
      <point x="551" y="451" type="curve" smooth="yes"/>
      <point x="551" y="485"/>
      <point x="567" y="504"/>
      <point x="602" y="504" type="curve" smooth="yes"/>
      <point x="637" y="504"/>
      <point x="655" y="485"/>
    </contour>
    <contour>
      <point x="473" y="584" type="curve" smooth="yes"/>
      <point x="473" y="549"/>
      <point x="457" y="532"/>
      <point x="422" y="532" type="curve" smooth="yes"/>
      <point x="387" y="532"/>
      <point x="369" y="549" name=".hr03"/>
      <point x="369" y="584" type="curve" smooth="yes"/>
      <point x="369" y="618"/>
      <point x="387" y="637"/>
      <point x="422" y="637" type="curve" smooth="yes"/>
      <point x="457" y="637"/>
      <point x="473" y="618"/>
    </contour>
    <contour>
      <point x="330" y="690" type="curve" smooth="yes"/>
      <point x="330" y="655"/>
      <point x="313" y="637"/>
      <point x="279" y="637" type="curve" smooth="yes"/>
      <point x="244" y="637"/>
      <point x="225" y="655"/>
      <point x="225" y="690" type="curve" smooth="yes"/>
      <point x="225" y="725"/>
      <point x="244" y="741"/>
      <point x="279" y="741" type="curve" smooth="yes"/>
      <point x="313" y="741"/>
      <point x="330" y="725"/>
    </contour>
    <contour>
      <point x="809" y="1034" type="curve" smooth="yes"/>
      <point x="809" y="1069"/>
      <point x="793" y="1085"/>
      <point x="758" y="1085" type="curve" smooth="yes"/>
      <point x="723" y="1085"/>
      <point x="705" y="1069"/>
      <point x="705" y="1034" type="curve" smooth="yes"/>
      <point x="705" y="999"/>
      <point x="723" y="981"/>
      <point x="758" y="981" type="curve" smooth="yes"/>
      <point x="793" y="981"/>
      <point x="809" y="999"/>
    </contour>
    <contour>
      <point x="659" y="928" type="curve" smooth="yes"/>
      <point x="659" y="963"/>
      <point x="641" y="981"/>
      <point x="606" y="981" type="curve" smooth="yes"/>
      <point x="571" y="981"/>
      <point x="555" y="963"/>
      <point x="555" y="928" type="curve" smooth="yes"/>
      <point x="555" y="893"/>
      <point x="571" y="877"/>
      <point x="606" y="877" type="curve" smooth="yes"/>
      <point x="641" y="877"/>
      <point x="659" y="893"/>
    </contour>
    <contour>
      <point x="508" y="819" type="curve" smooth="yes"/>
      <point x="508" y="854"/>
      <point x="489" y="870"/>
      <point x="455" y="870" type="curve" smooth="yes"/>
      <point x="420" y="870" name=".hr04"/>
      <point x="403" y="854"/>
      <point x="403" y="819" type="curve" smooth="yes"/>
      <point x="403" y="784"/>
      <point x="420" y="766"/>
      <point x="455" y="766" type="curve" smooth="yes"/>
      <point x="489" y="766"/>
      <point x="508" y="784"/>
    </contour>
    <contour>
      <point x="807" y="342" type="curve" smooth="yes"/>
      <point x="807" y="377"/>
      <point x="788" y="393"/>
      <point x="754" y="393" type="curve" smooth="yes"/>
      <point x="719" y="393"/>
      <point x="702" y="377"/>
      <point x="702" y="342" type="curve" smooth="yes"/>
      <point x="702" y="307"/>
      <point x="719" y="289"/>
      <point x="754" y="289" type="curve" smooth="yes"/>
      <point x="788" y="289"/>
      <point x="807" y="307"/>
    </contour>
    <contour>
      <point x="655" y="451" type="curve" smooth="yes"/>
      <point x="655" y="485"/>
      <point x="637" y="504"/>
      <point x="602" y="504" type="curve" smooth="yes"/>
      <point x="567" y="504"/>
      <point x="551" y="485"/>
      <point x="551" y="451" type="curve" smooth="yes"/>
      <point x="551" y="416"/>
      <point x="567" y="399"/>
      <point x="602" y="399" type="curve" smooth="yes"/>
      <point x="637" y="399"/>
      <point x="655" y="416"/>
    </contour>
    <contour>
      <point x="473" y="584" type="curve" smooth="yes"/>
      <point x="473" y="618"/>
      <point x="457" y="637"/>
      <point x="422" y="637" type="curve" smooth="yes"/>
      <point x="387" y="637"/>
      <point x="369" y="618"/>
      <point x="369" y="584" type="curve" smooth="yes"/>
      <point x="369" y="549"/>
      <point x="387" y="532"/>
      <point x="422" y="532" type="curve" smooth="yes"/>
      <point x="457" y="532"/>
      <point x="473" y="549"/>
    </contour>
    <contour>
      <point x="330" y="690" type="curve" smooth="yes" name=".hr05"/>
      <point x="330" y="725"/>
      <point x="313" y="741"/>
      <point x="279" y="741" type="curve" smooth="yes"/>
      <point x="244" y="741"/>
      <point x="225" y="725"/>
      <point x="225" y="690" type="curve" smooth="yes"/>
      <point x="225" y="655"/>
      <point x="244" y="637"/>
      <point x="279" y="637" type="curve" smooth="yes"/>
      <point x="313" y="637"/>
      <point x="330" y="655"/>
    </contour>
  </outline>
</glyph>
<glyph name="question" format="2">
  <advance width="1024"/>
  <unicode hex="003F"/>
  <outline>
    <contour>
      <point x="647" y="1268" type="curve" smooth="yes"/>
      <point x="647" y="1233"/>
      <point x="629" y="1217"/>
      <point x="594" y="1217" type="curve" smooth="yes"/>
      <point x="559" y="1217"/>
      <point x="543" y="1233"/>
      <point x="543" y="1268" type="curve" smooth="yes"/>
      <point x="543" y="1303"/>
      <point x="559" y="1321"/>
      <point x="594" y="1321" type="curve" smooth="yes"/>
      <point x="629" y="1321"/>
      <point x="647" y="1303"/>
    </contour>
    <contour>
      <point x="752" y="1110" type="curve" smooth="yes"/>
      <point x="752" y="1075"/>
      <point x="735" y="1057"/>
      <point x="700" y="1057" type="curve" smooth="yes"/>
      <point x="666" y="1057"/>
      <point x="647" y="1075"/>
      <point x="647" y="1110" type="curve" smooth="yes"/>
      <point x="647" y="1145"/>
      <point x="666" y="1161"/>
      <point x="700" y="1161" type="curve" smooth="yes"/>
      <point x="735" y="1161"/>
      <point x="752" y="1145"/>
    </contour>
    <contour>
      <point x="438" y="1221" type="curve" smooth="yes"/>
      <point x="438" y="1186"/>
      <point x="422" y="1167"/>
      <point x="387" y="1167" type="curve" smooth="yes"/>
      <point x="352" y="1167" name=".hr01"/>
      <point x="334" y="1186"/>
      <point x="334" y="1221" type="curve" smooth="yes"/>
      <point x="334" y="1255"/>
      <point x="352" y="1272"/>
      <point x="387" y="1272" type="curve" smooth="yes"/>
      <point x="422" y="1272"/>
      <point x="438" y="1255"/>
    </contour>
    <contour>
      <point x="702" y="928" type="curve" smooth="yes"/>
      <point x="702" y="893"/>
      <point x="686" y="874"/>
      <point x="651" y="874" type="curve" smooth="yes"/>
      <point x="616" y="874"/>
      <point x="598" y="893"/>
      <point x="598" y="928" type="curve" smooth="yes"/>
      <point x="598" y="963"/>
      <point x="616" y="979"/>
      <point x="651" y="979" type="curve" smooth="yes"/>
      <point x="686" y="979"/>
      <point x="702" y="963"/>
    </contour>
    <contour>
      <point x="377" y="1075" type="curve" smooth="yes"/>
      <point x="377" y="1040"/>
      <point x="360" y="1022"/>
      <point x="326" y="1022" type="curve" smooth="yes"/>
      <point x="291" y="1022"/>
      <point x="272" y="1040"/>
      <point x="272" y="1075" type="curve" smooth="yes"/>
      <point x="272" y="1110"/>
      <point x="291" y="1126"/>
      <point x="326" y="1126" type="curve" smooth="yes" name=".hr02"/>
      <point x="360" y="1126"/>
      <point x="377" y="1110"/>
    </contour>
    <contour>
      <point x="627" y="756" type="curve" smooth="yes"/>
      <point x="627" y="721"/>
      <point x="610" y="702"/>
      <point x="575" y="702" type="curve" smooth="yes"/>
      <point x="541" y="702"/>
      <point x="522" y="721"/>
      <point x="522" y="756" type="curve" smooth="yes"/>
      <point x="522" y="791"/>
      <point x="541" y="807"/>
      <point x="575" y="807" type="curve" smooth="yes"/>
      <point x="610" y="807" name=".hr03"/>
      <point x="627" y="791"/>
    </contour>
    <contour>
      <point x="610" y="553" type="curve" smooth="yes"/>
      <point x="610" y="518"/>
      <point x="594" y="500"/>
      <point x="559" y="500" type="curve" smooth="yes" name=".hr04"/>
      <point x="524" y="500"/>
      <point x="506" y="518"/>
      <point x="506" y="553" type="curve" smooth="yes"/>
      <point x="506" y="588"/>
      <point x="524" y="604"/>
      <point x="559" y="604" type="curve" smooth="yes"/>
      <point x="594" y="604"/>
      <point x="610" y="588"/>
    </contour>
    <contour>
      <point x="610" y="348" type="curve" smooth="yes"/>
      <point x="610" y="313"/>
      <point x="594" y="295"/>
      <point x="559" y="295" type="curve" smooth="yes"/>
      <point x="524" y="295"/>
      <point x="506" y="313"/>
      <point x="506" y="348" type="curve" smooth="yes"/>
      <point x="506" y="383"/>
      <point x="524" y="399"/>
      <point x="559" y="399" type="curve" smooth="yes"/>
      <point x="594" y="399"/>
      <point x="610" y="383"/>
    </contour>
    <contour>
      <point x="621" y="59" type="curve" smooth="yes"/>
      <point x="621" y="20"/>
      <point x="602" y="0"/>
      <point x="563" y="0" type="curve" smooth="yes"/>
      <point x="524" y="0"/>
      <point x="504" y="20"/>
      <point x="504" y="59" type="curve" smooth="yes"/>
      <point x="504" y="98"/>
      <point x="524" y="119" name=".hr05"/>
      <point x="563" y="119" type="curve" smooth="yes"/>
      <point x="602" y="119"/>
      <point x="621" y="98"/>
    </contour>
  </outline>
</glyph>
<glyph name="at" format="2">
  <advance width="1434"/>
  <unicode hex="0040"/>
  <outline>
    <contour>
      <point x="1243" y="889" type="curve" smooth="yes"/>
      <point x="1243" y="854"/>
      <point x="1225" y="836"/>
      <point x="1190" y="836" type="curve" smooth="yes"/>
      <point x="1155" y="836"/>
      <point x="1139" y="854"/>
      <point x="1139" y="889" type="curve" smooth="yes"/>
      <point x="1139" y="924"/>
      <point x="1155" y="940"/>
      <point x="1190" y="940" type="curve" smooth="yes"/>
      <point x="1225" y="940"/>
      <point x="1243" y="924"/>
    </contour>
    <contour>
      <point x="1083" y="1020" type="curve" smooth="yes"/>
      <point x="1083" y="985"/>
      <point x="1065" y="967"/>
      <point x="1030" y="967" type="curve" smooth="yes"/>
      <point x="995" y="967"/>
      <point x="979" y="985"/>
      <point x="979" y="1020" type="curve" smooth="yes"/>
      <point x="979" y="1055"/>
      <point x="995" y="1071"/>
      <point x="1030" y="1071" type="curve" smooth="yes"/>
      <point x="1065" y="1071"/>
      <point x="1083" y="1055"/>
    </contour>
    <contour>
      <point x="1300" y="657" type="curve" smooth="yes"/>
      <point x="1300" y="623"/>
      <point x="1282" y="604" name=".hr01"/>
      <point x="1247" y="604" type="curve" smooth="yes"/>
      <point x="1212" y="604"/>
      <point x="1196" y="623"/>
      <point x="1196" y="657" type="curve" smooth="yes"/>
      <point x="1196" y="692"/>
      <point x="1212" y="709"/>
      <point x="1247" y="709" type="curve" smooth="yes"/>
      <point x="1282" y="709"/>
      <point x="1300" y="692"/>
    </contour>
    <contour>
      <point x="817" y="1059" type="curve" smooth="yes"/>
      <point x="817" y="1024"/>
      <point x="799" y="1006"/>
      <point x="764" y="1006" type="curve" smooth="yes"/>
      <point x="729" y="1006"/>
      <point x="713" y="1024"/>
      <point x="713" y="1059" type="curve" smooth="yes"/>
      <point x="713" y="1094"/>
      <point x="729" y="1110"/>
      <point x="764" y="1110" type="curve" smooth="yes"/>
      <point x="799" y="1110"/>
      <point x="817" y="1094"/>
    </contour>
    <contour>
      <point x="1034" y="786" type="curve" smooth="yes"/>
      <point x="1034" y="752"/>
      <point x="1016" y="733"/>
      <point x="981" y="733" type="curve" smooth="yes"/>
      <point x="946" y="733"/>
      <point x="930" y="752"/>
      <point x="930" y="786" type="curve" smooth="yes"/>
      <point x="930" y="821"/>
      <point x="946" y="838"/>
      <point x="981" y="838" type="curve" smooth="yes"/>
      <point x="1016" y="838"/>
      <point x="1034" y="821"/>
    </contour>
    <contour>
      <point x="649" y="1055" type="curve" smooth="yes"/>
      <point x="649" y="1020"/>
      <point x="631" y="1001"/>
      <point x="596" y="1001" type="curve" smooth="yes"/>
      <point x="561" y="1001"/>
      <point x="545" y="1020"/>
      <point x="545" y="1055" type="curve" smooth="yes"/>
      <point x="545" y="1090" name=".hr02"/>
      <point x="561" y="1106"/>
      <point x="596" y="1106" type="curve" smooth="yes"/>
      <point x="631" y="1106"/>
      <point x="649" y="1090"/>
    </contour>
    <contour>
      <point x="877" y="793" type="curve" smooth="yes"/>
      <point x="877" y="758"/>
      <point x="860" y="741"/>
      <point x="825" y="741" type="curve" smooth="yes"/>
      <point x="791" y="741"/>
      <point x="772" y="758"/>
      <point x="772" y="793" type="curve" smooth="yes"/>
      <point x="772" y="827"/>
      <point x="791" y="846"/>
      <point x="825" y="846" type="curve" smooth="yes"/>
      <point x="860" y="846"/>
      <point x="877" y="827"/>
    </contour>
    <contour>
      <point x="1235" y="428" type="curve" smooth="yes"/>
      <point x="1235" y="393"/>
      <point x="1219" y="377"/>
      <point x="1184" y="377" type="curve" smooth="yes"/>
      <point x="1149" y="377"/>
      <point x="1130" y="393"/>
      <point x="1130" y="428" type="curve" smooth="yes"/>
      <point x="1130" y="463"/>
      <point x="1149" y="481"/>
      <point x="1184" y="481" type="curve" smooth="yes"/>
      <point x="1219" y="481"/>
      <point x="1235" y="463"/>
    </contour>
    <contour>
      <point x="975" y="612" type="curve" smooth="yes"/>
      <point x="975" y="578"/>
      <point x="956" y="559"/>
      <point x="922" y="559" type="curve" smooth="yes"/>
      <point x="887" y="559"/>
      <point x="870" y="578"/>
      <point x="870" y="612" type="curve" smooth="yes"/>
      <point x="870" y="647"/>
      <point x="887" y="664"/>
      <point x="922" y="664" type="curve" smooth="yes"/>
      <point x="956" y="664"/>
      <point x="975" y="647"/>
    </contour>
    <contour>
      <point x="690" y="791" type="curve" smooth="yes"/>
      <point x="690" y="756" name=".hr03"/>
      <point x="674" y="739"/>
      <point x="639" y="739" type="curve" smooth="yes"/>
      <point x="604" y="739"/>
      <point x="586" y="756"/>
      <point x="586" y="791" type="curve" smooth="yes"/>
      <point x="586" y="825"/>
      <point x="604" y="844"/>
      <point x="639" y="844" type="curve" smooth="yes"/>
      <point x="674" y="844"/>
      <point x="690" y="825"/>
    </contour>
    <contour>
      <point x="461" y="975" type="curve" smooth="yes"/>
      <point x="461" y="940"/>
      <point x="442" y="922"/>
      <point x="408" y="922" type="curve" smooth="yes"/>
      <point x="373" y="922"/>
      <point x="356" y="940"/>
      <point x="356" y="975" type="curve" smooth="yes"/>
      <point x="356" y="1010"/>
      <point x="373" y="1026"/>
      <point x="408" y="1026" type="curve" smooth="yes"/>
      <point x="442" y="1026"/>
      <point x="461" y="1010" name=".hr04"/>
    </contour>
    <contour>
      <point x="1102" y="322" type="curve" smooth="yes" name=".hr05"/>
      <point x="1102" y="287"/>
      <point x="1085" y="270"/>
      <point x="1051" y="270" type="curve" smooth="yes" name=".hr06"/>
      <point x="1016" y="270"/>
      <point x="997" y="287"/>
      <point x="997" y="322" type="curve" smooth="yes" name=".hr07"/>
      <point x="997" y="356"/>
      <point x="1016" y="375"/>
      <point x="1051" y="375" type="curve" smooth="yes"/>
      <point x="1085" y="375"/>
      <point x="1102" y="356"/>
    </contour>
    <contour>
      <point x="934" y="483" type="curve" smooth="yes"/>
      <point x="934" y="449"/>
      <point x="915" y="430"/>
      <point x="881" y="430" type="curve" smooth="yes"/>
      <point x="846" y="430"/>
      <point x="829" y="449"/>
      <point x="829" y="483" type="curve" smooth="yes"/>
      <point x="829" y="518"/>
      <point x="846" y="535"/>
      <point x="881" y="535" type="curve" smooth="yes"/>
      <point x="915" y="535"/>
      <point x="934" y="518"/>
    </contour>
    <contour>
      <point x="1221" y="150" type="curve" smooth="yes"/>
      <point x="1221" y="115"/>
      <point x="1202" y="96"/>
      <point x="1167" y="96" type="curve" smooth="yes"/>
      <point x="1133" y="96"/>
      <point x="1116" y="115"/>
      <point x="1116" y="150" type="curve" smooth="yes"/>
      <point x="1116" y="184"/>
      <point x="1133" y="201"/>
      <point x="1167" y="201" type="curve" smooth="yes"/>
      <point x="1202" y="201"/>
      <point x="1221" y="184"/>
    </contour>
    <contour>
      <point x="958" y="354" type="curve" smooth="yes"/>
      <point x="958" y="319"/>
      <point x="940" y="301"/>
      <point x="905" y="301" type="curve" smooth="yes"/>
      <point x="870" y="301"/>
      <point x="854" y="319"/>
      <point x="854" y="354" type="curve" smooth="yes"/>
      <point x="854" y="389"/>
      <point x="870" y="406"/>
      <point x="905" y="406" type="curve" smooth="yes"/>
      <point x="940" y="406"/>
      <point x="958" y="389"/>
    </contour>
    <contour>
      <point x="586" y="657" type="curve" smooth="yes"/>
      <point x="586" y="623"/>
      <point x="569" y="606" name=".hr08"/>
      <point x="535" y="606" type="curve" smooth="yes"/>
      <point x="500" y="606" name=".hr09"/>
      <point x="481" y="623"/>
      <point x="481" y="657" type="curve" smooth="yes"/>
      <point x="481" y="692" name=".hr10"/>
      <point x="500" y="711"/>
      <point x="535" y="711" type="curve" smooth="yes"/>
      <point x="569" y="711" name=".hr11"/>
      <point x="586" y="692"/>
    </contour>
    <contour>
      <point x="840" y="395" type="curve" smooth="yes"/>
      <point x="840" y="360" name=".hr12"/>
      <point x="821" y="342"/>
      <point x="786" y="342" type="curve" smooth="yes"/>
      <point x="752" y="342"/>
      <point x="735" y="360"/>
      <point x="735" y="395" type="curve" smooth="yes"/>
      <point x="735" y="430"/>
      <point x="752" y="446"/>
      <point x="786" y="446" type="curve" smooth="yes"/>
      <point x="821" y="446"/>
      <point x="840" y="430"/>
    </contour>
    <contour>
      <point x="317" y="821" type="curve" smooth="yes"/>
      <point x="317" y="786"/>
      <point x="299" y="768"/>
      <point x="264" y="768" type="curve" smooth="yes"/>
      <point x="229" y="768"/>
      <point x="213" y="786"/>
      <point x="213" y="821" type="curve" smooth="yes"/>
      <point x="213" y="856"/>
      <point x="229" y="872"/>
      <point x="264" y="872" type="curve" smooth="yes"/>
      <point x="299" y="872"/>
      <point x="317" y="856" name=".hr13"/>
    </contour>
    <contour>
      <point x="1036" y="84" type="curve" smooth="yes" name=".hr14"/>
      <point x="1036" y="49"/>
      <point x="1020" y="33"/>
      <point x="985" y="33" type="curve" smooth="yes" name=".hr15"/>
      <point x="950" y="33"/>
      <point x="932" y="49"/>
      <point x="932" y="84" type="curve" smooth="yes"/>
      <point x="932" y="119"/>
      <point x="950" y="137"/>
      <point x="985" y="137" type="curve" smooth="yes"/>
      <point x="1020" y="137"/>
      <point x="1036" y="119"/>
    </contour>
    <contour>
      <point x="733" y="317" type="curve" smooth="yes"/>
      <point x="733" y="283"/>
      <point x="717" y="266"/>
      <point x="682" y="266" type="curve" smooth="yes"/>
      <point x="647" y="266"/>
      <point x="629" y="283"/>
      <point x="629" y="317" type="curve" smooth="yes"/>
      <point x="629" y="352"/>
      <point x="647" y="371"/>
      <point x="682" y="371" type="curve" smooth="yes"/>
      <point x="717" y="371"/>
      <point x="733" y="352"/>
    </contour>
    <contour>
      <point x="535" y="510" type="curve" smooth="yes"/>
      <point x="535" y="475"/>
      <point x="518" y="459"/>
      <point x="483" y="459" type="curve" smooth="yes"/>
      <point x="449" y="459"/>
      <point x="430" y="475"/>
      <point x="430" y="510" type="curve" smooth="yes"/>
      <point x="430" y="545"/>
      <point x="449" y="563"/>
      <point x="483" y="563" type="curve" smooth="yes"/>
      <point x="518" y="563"/>
      <point x="535" y="545"/>
    </contour>
    <contour>
      <point x="580" y="381" type="curve" smooth="yes"/>
      <point x="580" y="346"/>
      <point x="563" y="330"/>
      <point x="528" y="330" type="curve" smooth="yes"/>
      <point x="494" y="330"/>
      <point x="475" y="346"/>
      <point x="475" y="381" type="curve" smooth="yes"/>
      <point x="475" y="416"/>
      <point x="494" y="434"/>
      <point x="528" y="434" type="curve" smooth="yes"/>
      <point x="563" y="434" name=".hr16"/>
      <point x="580" y="416"/>
    </contour>
    <contour>
      <point x="791" y="49" type="curve" smooth="yes"/>
      <point x="791" y="14"/>
      <point x="774" y="-4"/>
      <point x="739" y="-4" type="curve" smooth="yes"/>
      <point x="705" y="-4"/>
      <point x="686" y="14"/>
      <point x="686" y="49" type="curve" smooth="yes"/>
      <point x="686" y="84"/>
      <point x="705" y="102"/>
      <point x="739" y="102" type="curve" smooth="yes"/>
      <point x="774" y="102"/>
      <point x="791" y="84"/>
    </contour>
    <contour>
      <point x="246" y="588" type="curve" smooth="yes"/>
      <point x="246" y="553"/>
      <point x="227" y="535" name=".hr17"/>
      <point x="193" y="535" type="curve" smooth="yes"/>
      <point x="158" y="535"/>
      <point x="141" y="553"/>
      <point x="141" y="588" type="curve" smooth="yes"/>
      <point x="141" y="623"/>
      <point x="158" y="639"/>
      <point x="193" y="639" type="curve" smooth="yes"/>
      <point x="227" y="639"/>
      <point x="246" y="623"/>
    </contour>
    <contour>
      <point x="268" y="373" type="curve" smooth="yes"/>
      <point x="268" y="338"/>
      <point x="250" y="319"/>
      <point x="215" y="319" type="curve" smooth="yes"/>
      <point x="180" y="319"/>
      <point x="164" y="338"/>
      <point x="164" y="373" type="curve" smooth="yes"/>
      <point x="164" y="408"/>
      <point x="180" y="424"/>
      <point x="215" y="424" type="curve" smooth="yes"/>
      <point x="250" y="424"/>
      <point x="268" y="408"/>
    </contour>
    <contour>
      <point x="549" y="80" type="curve" smooth="yes"/>
      <point x="549" y="45"/>
      <point x="530" y="27"/>
      <point x="496" y="27" type="curve" smooth="yes"/>
      <point x="461" y="27"/>
      <point x="444" y="45"/>
      <point x="444" y="80" type="curve" smooth="yes"/>
      <point x="444" y="115"/>
      <point x="461" y="131"/>
      <point x="496" y="131" type="curve" smooth="yes"/>
      <point x="530" y="131"/>
      <point x="549" y="115"/>
    </contour>
    <contour>
      <point x="371" y="201" type="curve" smooth="yes" name=".hr18"/>
      <point x="371" y="166"/>
      <point x="352" y="147"/>
      <point x="317" y="147" type="curve" smooth="yes"/>
      <point x="283" y="147"/>
      <point x="266" y="166"/>
      <point x="266" y="201" type="curve" smooth="yes"/>
      <point x="266" y="236"/>
      <point x="283" y="252"/>
      <point x="317" y="252" type="curve" smooth="yes"/>
      <point x="352" y="252"/>
      <point x="371" y="236"/>
    </contour>
  </outline>
</glyph>
<glyph name="E" format="2">
  <advance width="1126"/>
  <unicode hex="0045"/>
  <outline>
    <contour>
      <point x="981" y="1280" type="curve" smooth="yes"/>
      <point x="981" y="1245"/>
      <point x="965" y="1229"/>
      <point x="930" y="1229" type="curve" smooth="yes"/>
      <point x="895" y="1229"/>
      <point x="877" y="1245"/>
      <point x="877" y="1280" type="curve" smooth="yes"/>
      <point x="877" y="1315"/>
      <point x="895" y="1333"/>
      <point x="930" y="1333" type="curve" smooth="yes"/>
      <point x="965" y="1333"/>
      <point x="981" y="1315"/>
    </contour>
    <contour>
      <point x="776" y="1280" type="curve" smooth="yes"/>
      <point x="776" y="1245"/>
      <point x="760" y="1229"/>
      <point x="725" y="1229" type="curve" smooth="yes"/>
      <point x="690" y="1229"/>
      <point x="672" y="1245"/>
      <point x="672" y="1280" type="curve" smooth="yes"/>
      <point x="672" y="1315"/>
      <point x="690" y="1333"/>
      <point x="725" y="1333" type="curve" smooth="yes"/>
      <point x="760" y="1333"/>
      <point x="776" y="1315"/>
    </contour>
    <contour>
      <point x="571" y="1280" type="curve" smooth="yes"/>
      <point x="571" y="1245"/>
      <point x="555" y="1229"/>
      <point x="520" y="1229" type="curve" smooth="yes"/>
      <point x="485" y="1229"/>
      <point x="467" y="1245"/>
      <point x="467" y="1280" type="curve" smooth="yes"/>
      <point x="467" y="1315"/>
      <point x="485" y="1333"/>
      <point x="520" y="1333" type="curve" smooth="yes"/>
      <point x="555" y="1333"/>
      <point x="571" y="1315"/>
    </contour>
    <contour>
      <point x="383" y="1280" type="curve" smooth="yes"/>
      <point x="383" y="1245"/>
      <point x="365" y="1227"/>
      <point x="330" y="1227" type="curve" smooth="yes"/>
      <point x="295" y="1227"/>
      <point x="279" y="1245"/>
      <point x="279" y="1280" type="curve" smooth="yes"/>
      <point x="279" y="1315"/>
      <point x="295" y="1331"/>
      <point x="330" y="1331" type="curve" smooth="yes"/>
      <point x="365" y="1331"/>
      <point x="383" y="1315"/>
    </contour>
    <contour>
      <point x="262" y="1276" type="curve" smooth="yes"/>
      <point x="262" y="1225"/>
      <point x="221" y="1184"/>
      <point x="170" y="1184" type="curve" smooth="yes"/>
      <point x="119" y="1184"/>
      <point x="78" y="1225"/>
      <point x="78" y="1276" type="curve" smooth="yes"/>
      <point x="78" y="1327"/>
      <point x="119" y="1368"/>
      <point x="170" y="1368" type="curve" smooth="yes"/>
      <point x="221" y="1368"/>
      <point x="262" y="1327"/>
    </contour>
    <contour>
      <point x="688" y="686" type="curve" smooth="yes"/>
      <point x="688" y="651"/>
      <point x="670" y="633"/>
      <point x="635" y="633" type="curve" smooth="yes"/>
      <point x="600" y="633"/>
      <point x="584" y="651" name=".hr01"/>
      <point x="584" y="686" type="curve" smooth="yes"/>
      <point x="584" y="721"/>
      <point x="600" y="737"/>
      <point x="635" y="737" type="curve" smooth="yes"/>
      <point x="670" y="737"/>
      <point x="688" y="721"/>
    </contour>
    <contour>
      <point x="207" y="1077" type="curve" smooth="yes"/>
      <point x="207" y="1042"/>
      <point x="188" y="1024"/>
      <point x="154" y="1024" type="curve" smooth="yes"/>
      <point x="119" y="1024"/>
      <point x="102" y="1042"/>
      <point x="102" y="1077" type="curve" smooth="yes"/>
      <point x="102" y="1112"/>
      <point x="119" y="1128"/>
      <point x="154" y="1128" type="curve" smooth="yes"/>
      <point x="188" y="1128"/>
      <point x="207" y="1112"/>
    </contour>
    <contour>
      <point x="422" y="686" type="curve" smooth="yes"/>
      <point x="422" y="651"/>
      <point x="403" y="633"/>
      <point x="369" y="633" type="curve" smooth="yes"/>
      <point x="334" y="633"/>
      <point x="317" y="651"/>
      <point x="317" y="686" type="curve" smooth="yes"/>
      <point x="317" y="721"/>
      <point x="334" y="737"/>
      <point x="369" y="737" type="curve" smooth="yes"/>
      <point x="403" y="737"/>
      <point x="422" y="721"/>
    </contour>
    <contour>
      <point x="207" y="872" type="curve" smooth="yes"/>
      <point x="207" y="838"/>
      <point x="188" y="819"/>
      <point x="154" y="819" type="curve" smooth="yes"/>
      <point x="119" y="819"/>
      <point x="102" y="838"/>
      <point x="102" y="872" type="curve" smooth="yes"/>
      <point x="102" y="907"/>
      <point x="119" y="924"/>
      <point x="154" y="924" type="curve" smooth="yes"/>
      <point x="188" y="924"/>
      <point x="207" y="907"/>
    </contour>
    <contour>
      <point x="983" y="53" type="curve" smooth="yes"/>
      <point x="983" y="18"/>
      <point x="965" y="0"/>
      <point x="930" y="0" type="curve" smooth="yes"/>
      <point x="895" y="0"/>
      <point x="879" y="18"/>
      <point x="879" y="53" type="curve" smooth="yes"/>
      <point x="879" y="88"/>
      <point x="895" y="104"/>
      <point x="930" y="104" type="curve" smooth="yes"/>
      <point x="965" y="104"/>
      <point x="983" y="88"/>
    </contour>
    <contour>
      <point x="207" y="668" type="curve" smooth="yes"/>
      <point x="207" y="633"/>
      <point x="188" y="614"/>
      <point x="154" y="614" type="curve" smooth="yes"/>
      <point x="119" y="614"/>
      <point x="102" y="633"/>
      <point x="102" y="668" type="curve" smooth="yes"/>
      <point x="102" y="702"/>
      <point x="119" y="719"/>
      <point x="154" y="719" type="curve" smooth="yes"/>
      <point x="188" y="719"/>
      <point x="207" y="702"/>
    </contour>
    <contour>
      <point x="778" y="53" type="curve" smooth="yes" name=".hr02"/>
      <point x="778" y="18"/>
      <point x="760" y="0"/>
      <point x="725" y="0" type="curve" smooth="yes" name=".hr03"/>
      <point x="690" y="0"/>
      <point x="674" y="18"/>
      <point x="674" y="53" type="curve" smooth="yes"/>
      <point x="674" y="88"/>
      <point x="690" y="104"/>
      <point x="725" y="104" type="curve" smooth="yes"/>
      <point x="760" y="104"/>
      <point x="778" y="88"/>
    </contour>
    <contour>
      <point x="207" y="463" type="curve" smooth="yes"/>
      <point x="207" y="428"/>
      <point x="188" y="410"/>
      <point x="154" y="410" type="curve" smooth="yes"/>
      <point x="119" y="410"/>
      <point x="102" y="428"/>
      <point x="102" y="463" type="curve" smooth="yes"/>
      <point x="102" y="498"/>
      <point x="119" y="514"/>
      <point x="154" y="514" type="curve" smooth="yes"/>
      <point x="188" y="514"/>
      <point x="207" y="498"/>
    </contour>
    <contour>
      <point x="573" y="53" type="curve" smooth="yes"/>
      <point x="573" y="18"/>
      <point x="555" y="0"/>
      <point x="520" y="0" type="curve" smooth="yes"/>
      <point x="485" y="0"/>
      <point x="469" y="18"/>
      <point x="469" y="53" type="curve" smooth="yes"/>
      <point x="469" y="88"/>
      <point x="485" y="104"/>
      <point x="520" y="104" type="curve" smooth="yes"/>
      <point x="555" y="104"/>
      <point x="573" y="88"/>
    </contour>
    <contour>
      <point x="207" y="258" type="curve" smooth="yes"/>
      <point x="207" y="223"/>
      <point x="188" y="205"/>
      <point x="154" y="205" type="curve" smooth="yes"/>
      <point x="119" y="205"/>
      <point x="102" y="223"/>
      <point x="102" y="258" type="curve" smooth="yes"/>
      <point x="102" y="293"/>
      <point x="119" y="309"/>
      <point x="154" y="309" type="curve" smooth="yes"/>
      <point x="188" y="309"/>
      <point x="207" y="293"/>
    </contour>
    <contour>
      <point x="393" y="53" type="curve" smooth="yes"/>
      <point x="393" y="18"/>
      <point x="375" y="0"/>
      <point x="340" y="0" type="curve" smooth="yes"/>
      <point x="305" y="0"/>
      <point x="289" y="18"/>
      <point x="289" y="53" type="curve" smooth="yes"/>
      <point x="289" y="88"/>
      <point x="305" y="104"/>
      <point x="340" y="104" type="curve" smooth="yes"/>
      <point x="375" y="104"/>
      <point x="393" y="88"/>
    </contour>
    <contour>
      <point x="207" y="53" type="curve" smooth="yes"/>
      <point x="207" y="18"/>
      <point x="188" y="0"/>
      <point x="154" y="0" type="curve" smooth="yes"/>
      <point x="119" y="0"/>
      <point x="102" y="18"/>
      <point x="102" y="53" type="curve" smooth="yes"/>
      <point x="102" y="88"/>
      <point x="119" y="104"/>
      <point x="154" y="104" type="curve" smooth="yes"/>
      <point x="188" y="104"/>
      <point x="207" y="88"/>
    </contour>
    <contour>
      <point x="242" y="1276" type="curve" smooth="yes"/>
      <point x="242" y="1315"/>
      <point x="209" y="1348"/>
      <point x="170" y="1348" type="curve" smooth="yes"/>
      <point x="131" y="1348"/>
      <point x="98" y="1315"/>
      <point x="98" y="1276" type="curve" smooth="yes"/>
      <point x="98" y="1237"/>
      <point x="131" y="1204"/>
      <point x="170" y="1204" type="curve" smooth="yes"/>
      <point x="209" y="1204"/>
      <point x="242" y="1237"/>
    </contour>
  </outline>
</glyph>
<glyph name="G" format="2">
  <advance width="1536"/>
  <unicode hex="0047"/>
  <outline>
    <contour>
      <point x="1311" y="1165" type="curve" smooth="yes"/>
      <point x="1311" y="1114"/>
      <point x="1270" y="1073"/>
      <point x="1219" y="1073" type="curve" smooth="yes"/>
      <point x="1167" y="1073"/>
      <point x="1126" y="1114"/>
      <point x="1126" y="1165" type="curve" smooth="yes"/>
      <point x="1126" y="1217"/>
      <point x="1167" y="1257" name=".hr01"/>
      <point x="1219" y="1257" type="curve" smooth="yes"/>
      <point x="1270" y="1257"/>
      <point x="1311" y="1217" name=".hr02"/>
    </contour>
    <contour>
      <point x="1081" y="1270" type="curve" smooth="yes"/>
      <point x="1081" y="1235"/>
      <point x="1063" y="1217"/>
      <point x="1028" y="1217" type="curve" smooth="yes"/>
      <point x="993" y="1217"/>
      <point x="977" y="1235"/>
      <point x="977" y="1270" type="curve" smooth="yes"/>
      <point x="977" y="1305"/>
      <point x="993" y="1321"/>
      <point x="1028" y="1321" type="curve" smooth="yes"/>
      <point x="1063" y="1321"/>
      <point x="1081" y="1305"/>
    </contour>
    <contour>
      <point x="842" y="1309" type="curve" smooth="yes"/>
      <point x="842" y="1274"/>
      <point x="825" y="1257"/>
      <point x="791" y="1257" type="curve" smooth="yes"/>
      <point x="756" y="1257" name=".hr03"/>
      <point x="737" y="1274"/>
      <point x="737" y="1309" type="curve" smooth="yes"/>
      <point x="737" y="1343"/>
      <point x="756" y="1362"/>
      <point x="791" y="1362" type="curve" smooth="yes"/>
      <point x="825" y="1362"/>
      <point x="842" y="1343"/>
    </contour>
    <contour>
      <point x="1468" y="633" type="curve" smooth="yes"/>
      <point x="1468" y="598"/>
      <point x="1450" y="580"/>
      <point x="1415" y="580" type="curve" smooth="yes"/>
      <point x="1380" y="580"/>
      <point x="1364" y="598"/>
      <point x="1364" y="633" type="curve" smooth="yes"/>
      <point x="1364" y="668"/>
      <point x="1380" y="684"/>
      <point x="1415" y="684" type="curve" smooth="yes"/>
      <point x="1450" y="684"/>
      <point x="1468" y="668"/>
    </contour>
    <contour>
      <point x="1264" y="633" type="curve" smooth="yes"/>
      <point x="1264" y="598"/>
      <point x="1245" y="580"/>
      <point x="1210" y="580" type="curve" smooth="yes"/>
      <point x="1176" y="580"/>
      <point x="1159" y="598"/>
      <point x="1159" y="633" type="curve" smooth="yes"/>
      <point x="1159" y="668"/>
      <point x="1176" y="684"/>
      <point x="1210" y="684" type="curve" smooth="yes"/>
      <point x="1245" y="684"/>
      <point x="1264" y="668"/>
    </contour>
    <contour>
      <point x="600" y="1272" type="curve" smooth="yes"/>
      <point x="600" y="1237"/>
      <point x="584" y="1221"/>
      <point x="549" y="1221" type="curve" smooth="yes"/>
      <point x="514" y="1221"/>
      <point x="496" y="1237"/>
      <point x="496" y="1272" type="curve" smooth="yes"/>
      <point x="496" y="1307" name=".hr04"/>
      <point x="514" y="1325"/>
      <point x="549" y="1325" type="curve" smooth="yes"/>
      <point x="584" y="1325" name=".hr05"/>
      <point x="600" y="1307"/>
    </contour>
    <contour>
      <point x="1399" y="387" type="curve" smooth="yes"/>
      <point x="1399" y="352" name=".hr06"/>
      <point x="1380" y="334"/>
      <point x="1346" y="334" type="curve" smooth="yes"/>
      <point x="1311" y="334"/>
      <point x="1294" y="352"/>
      <point x="1294" y="387" type="curve" smooth="yes"/>
      <point x="1294" y="422"/>
      <point x="1311" y="438"/>
      <point x="1346" y="438" type="curve" smooth="yes"/>
      <point x="1380" y="438"/>
      <point x="1399" y="422"/>
    </contour>
    <contour>
      <point x="1059" y="633" type="curve" smooth="yes"/>
      <point x="1059" y="598"/>
      <point x="1040" y="580"/>
      <point x="1006" y="580" type="curve" smooth="yes"/>
      <point x="971" y="580"/>
      <point x="954" y="598"/>
      <point x="954" y="633" type="curve" smooth="yes"/>
      <point x="954" y="668"/>
      <point x="971" y="684"/>
      <point x="1006" y="684" type="curve" smooth="yes"/>
      <point x="1040" y="684"/>
      <point x="1059" y="668"/>
    </contour>
    <contour>
      <point x="403" y="1141" type="curve" smooth="yes"/>
      <point x="403" y="1106"/>
      <point x="385" y="1087"/>
      <point x="350" y="1087" type="curve" smooth="yes"/>
      <point x="315" y="1087"/>
      <point x="299" y="1106"/>
      <point x="299" y="1141" type="curve" smooth="yes"/>
      <point x="299" y="1176"/>
      <point x="315" y="1192"/>
      <point x="350" y="1192" type="curve" smooth="yes"/>
      <point x="385" y="1192"/>
      <point x="403" y="1176"/>
    </contour>
    <contour>
      <point x="854" y="633" type="curve" smooth="yes"/>
      <point x="854" y="598"/>
      <point x="836" y="580"/>
      <point x="801" y="580" type="curve" smooth="yes"/>
      <point x="766" y="580"/>
      <point x="750" y="598"/>
      <point x="750" y="633" type="curve" smooth="yes"/>
      <point x="750" y="668"/>
      <point x="766" y="684"/>
      <point x="801" y="684" type="curve" smooth="yes"/>
      <point x="836" y="684"/>
      <point x="854" y="668"/>
    </contour>
    <contour>
      <point x="1262" y="215" type="curve" smooth="yes"/>
      <point x="1262" y="180"/>
      <point x="1243" y="162"/>
      <point x="1208" y="162" type="curve" smooth="yes"/>
      <point x="1174" y="162"/>
      <point x="1157" y="180"/>
      <point x="1157" y="215" type="curve" smooth="yes"/>
      <point x="1157" y="250"/>
      <point x="1174" y="266"/>
      <point x="1208" y="266" type="curve" smooth="yes"/>
      <point x="1243" y="266"/>
      <point x="1262" y="250"/>
    </contour>
    <contour>
      <point x="279" y="981" type="curve" smooth="yes"/>
      <point x="279" y="946"/>
      <point x="260" y="928"/>
      <point x="225" y="928" type="curve" smooth="yes"/>
      <point x="190" y="928"/>
      <point x="174" y="946"/>
      <point x="174" y="981" type="curve" smooth="yes"/>
      <point x="174" y="1016"/>
      <point x="190" y="1032"/>
      <point x="225" y="1032" type="curve" smooth="yes"/>
      <point x="260" y="1032"/>
      <point x="279" y="1016"/>
    </contour>
    <contour>
      <point x="1063" y="92" type="curve" smooth="yes"/>
      <point x="1063" y="57"/>
      <point x="1044" y="39"/>
      <point x="1010" y="39" type="curve" smooth="yes"/>
      <point x="975" y="39"/>
      <point x="958" y="57"/>
      <point x="958" y="92" type="curve" smooth="yes"/>
      <point x="958" y="127"/>
      <point x="975" y="143"/>
      <point x="1010" y="143" type="curve" smooth="yes"/>
      <point x="1044" y="143"/>
      <point x="1063" y="127"/>
    </contour>
    <contour>
      <point x="213" y="766" type="curve" smooth="yes"/>
      <point x="213" y="731"/>
      <point x="195" y="713"/>
      <point x="160" y="713" type="curve" smooth="yes"/>
      <point x="125" y="713"/>
      <point x="109" y="731"/>
      <point x="109" y="766" type="curve" smooth="yes"/>
      <point x="109" y="801"/>
      <point x="125" y="817"/>
      <point x="160" y="817" type="curve" smooth="yes"/>
      <point x="195" y="817"/>
      <point x="213" y="801"/>
    </contour>
    <contour>
      <point x="838" y="53" type="curve" smooth="yes"/>
      <point x="838" y="18"/>
      <point x="819" y="0"/>
      <point x="784" y="0" type="curve" smooth="yes"/>
      <point x="750" y="0"/>
      <point x="733" y="18"/>
      <point x="733" y="53" type="curve" smooth="yes"/>
      <point x="733" y="88"/>
      <point x="750" y="104"/>
      <point x="784" y="104" type="curve" smooth="yes"/>
      <point x="819" y="104"/>
      <point x="838" y="88"/>
    </contour>
    <contour>
      <point x="215" y="569" type="curve" smooth="yes"/>
      <point x="215" y="535"/>
      <point x="197" y="516"/>
      <point x="162" y="516" type="curve" smooth="yes"/>
      <point x="127" y="516" name=".hr07"/>
      <point x="111" y="535"/>
      <point x="111" y="569" type="curve" smooth="yes"/>
      <point x="111" y="604" name=".hr08"/>
      <point x="127" y="621"/>
      <point x="162" y="621" type="curve" smooth="yes"/>
      <point x="197" y="621" name=".hr09"/>
      <point x="215" y="604"/>
    </contour>
    <contour>
      <point x="621" y="88" type="curve" smooth="yes"/>
      <point x="621" y="53"/>
      <point x="602" y="35"/>
      <point x="567" y="35" type="curve" smooth="yes"/>
      <point x="532" y="35"/>
      <point x="516" y="53"/>
      <point x="516" y="88" type="curve" smooth="yes"/>
      <point x="516" y="123"/>
      <point x="532" y="139"/>
      <point x="567" y="139" type="curve" smooth="yes"/>
      <point x="602" y="139"/>
      <point x="621" y="123"/>
    </contour>
    <contour>
      <point x="274" y="395" type="curve" smooth="yes"/>
      <point x="274" y="360"/>
      <point x="256" y="342"/>
      <point x="221" y="342" type="curve" smooth="yes"/>
      <point x="186" y="342"/>
      <point x="170" y="360"/>
      <point x="170" y="395" type="curve" smooth="yes" name=".hr10"/>
      <point x="170" y="430"/>
      <point x="186" y="446"/>
      <point x="221" y="446" type="curve" smooth="yes"/>
      <point x="256" y="446"/>
      <point x="274" y="430"/>
    </contour>
    <contour>
      <point x="416" y="217" type="curve" smooth="yes"/>
      <point x="416" y="182"/>
      <point x="397" y="164"/>
      <point x="362" y="164" type="curve" smooth="yes"/>
      <point x="328" y="164"/>
      <point x="311" y="182"/>
      <point x="311" y="217" type="curve" smooth="yes"/>
      <point x="311" y="252"/>
      <point x="328" y="268"/>
      <point x="362" y="268" type="curve" smooth="yes"/>
      <point x="397" y="268"/>
      <point x="416" y="252"/>
    </contour>
    <contour>
      <point x="1290" y="1165" type="curve" smooth="yes"/>
      <point x="1290" y="1204"/>
      <point x="1257" y="1237"/>
      <point x="1219" y="1237" type="curve" smooth="yes"/>
      <point x="1180" y="1237"/>
      <point x="1147" y="1204"/>
      <point x="1147" y="1165" type="curve" smooth="yes"/>
      <point x="1147" y="1126"/>
      <point x="1180" y="1094"/>
      <point x="1219" y="1094" type="curve" smooth="yes"/>
      <point x="1257" y="1094"/>
      <point x="1290" y="1126"/>
    </contour>
  </outline>
</glyph>
<glyph name="H" format="2">
  <advance width="1229"/>
  <unicode hex="0048"/>
  <outline>
    <contour>
      <point x="1159" y="1282" type="curve" smooth="yes"/>
      <point x="1159" y="1247"/>
      <point x="1141" y="1229"/>
      <point x="1106" y="1229" type="curve" smooth="yes"/>
      <point x="1071" y="1229"/>
      <point x="1055" y="1247"/>
      <point x="1055" y="1282" type="curve" smooth="yes"/>
      <point x="1055" y="1317"/>
      <point x="1071" y="1333"/>
      <point x="1106" y="1333" type="curve" smooth="yes"/>
      <point x="1141" y="1333"/>
      <point x="1159" y="1317"/>
    </contour>
    <contour>
      <point x="1159" y="1077" type="curve" smooth="yes"/>
      <point x="1159" y="1042"/>
      <point x="1141" y="1024"/>
      <point x="1106" y="1024" type="curve" smooth="yes"/>
      <point x="1071" y="1024"/>
      <point x="1055" y="1042"/>
      <point x="1055" y="1077" type="curve" smooth="yes"/>
      <point x="1055" y="1112"/>
      <point x="1071" y="1128"/>
      <point x="1106" y="1128" type="curve" smooth="yes"/>
      <point x="1141" y="1128"/>
      <point x="1159" y="1112"/>
    </contour>
    <contour>
      <point x="1159" y="872" type="curve" smooth="yes"/>
      <point x="1159" y="838"/>
      <point x="1141" y="819"/>
      <point x="1106" y="819" type="curve" smooth="yes"/>
      <point x="1071" y="819"/>
      <point x="1055" y="838"/>
      <point x="1055" y="872" type="curve" smooth="yes"/>
      <point x="1055" y="907"/>
      <point x="1071" y="924"/>
      <point x="1106" y="924" type="curve" smooth="yes"/>
      <point x="1141" y="924"/>
      <point x="1159" y="907"/>
    </contour>
    <contour>
      <point x="1159" y="668" type="curve" smooth="yes"/>
      <point x="1159" y="633"/>
      <point x="1141" y="614"/>
      <point x="1106" y="614" type="curve" smooth="yes"/>
      <point x="1071" y="614"/>
      <point x="1055" y="633"/>
      <point x="1055" y="668" type="curve" smooth="yes"/>
      <point x="1055" y="702"/>
      <point x="1071" y="719"/>
      <point x="1106" y="719" type="curve" smooth="yes"/>
      <point x="1141" y="719"/>
      <point x="1159" y="702"/>
    </contour>
    <contour>
      <point x="999" y="682" type="curve" smooth="yes"/>
      <point x="999" y="647"/>
      <point x="981" y="629"/>
      <point x="946" y="629" type="curve" smooth="yes"/>
      <point x="911" y="629"/>
      <point x="895" y="647"/>
      <point x="895" y="682" type="curve" smooth="yes" name=".hr01"/>
      <point x="895" y="717"/>
      <point x="911" y="733"/>
      <point x="946" y="733" type="curve" smooth="yes"/>
      <point x="981" y="733"/>
      <point x="999" y="717"/>
    </contour>
    <contour>
      <point x="1159" y="463" type="curve" smooth="yes"/>
      <point x="1159" y="428"/>
      <point x="1141" y="410"/>
      <point x="1106" y="410" type="curve" smooth="yes"/>
      <point x="1071" y="410"/>
      <point x="1055" y="428"/>
      <point x="1055" y="463" type="curve" smooth="yes"/>
      <point x="1055" y="498"/>
      <point x="1071" y="514"/>
      <point x="1106" y="514" type="curve" smooth="yes"/>
      <point x="1141" y="514"/>
      <point x="1159" y="498"/>
    </contour>
    <contour>
      <point x="795" y="682" type="curve" smooth="yes"/>
      <point x="795" y="647"/>
      <point x="776" y="629"/>
      <point x="741" y="629" type="curve" smooth="yes"/>
      <point x="707" y="629"/>
      <point x="690" y="647"/>
      <point x="690" y="682" type="curve" smooth="yes"/>
      <point x="690" y="717"/>
      <point x="707" y="733"/>
      <point x="741" y="733" type="curve" smooth="yes"/>
      <point x="776" y="733"/>
      <point x="795" y="717"/>
    </contour>
    <contour>
      <point x="231" y="1276" type="curve" smooth="yes"/>
      <point x="231" y="1225"/>
      <point x="190" y="1184"/>
      <point x="139" y="1184" type="curve" smooth="yes"/>
      <point x="88" y="1184"/>
      <point x="47" y="1225"/>
      <point x="47" y="1276" type="curve" smooth="yes"/>
      <point x="47" y="1327"/>
      <point x="88" y="1368"/>
      <point x="139" y="1368" type="curve" smooth="yes"/>
      <point x="190" y="1368"/>
      <point x="231" y="1327"/>
    </contour>
    <contour>
      <point x="1159" y="258" type="curve" smooth="yes"/>
      <point x="1159" y="223"/>
      <point x="1141" y="205"/>
      <point x="1106" y="205" type="curve" smooth="yes"/>
      <point x="1071" y="205"/>
      <point x="1055" y="223"/>
      <point x="1055" y="258" type="curve" smooth="yes"/>
      <point x="1055" y="293"/>
      <point x="1071" y="309"/>
      <point x="1106" y="309" type="curve" smooth="yes"/>
      <point x="1141" y="309"/>
      <point x="1159" y="293"/>
    </contour>
    <contour>
      <point x="207" y="1077" type="curve" smooth="yes"/>
      <point x="207" y="1042"/>
      <point x="188" y="1024"/>
      <point x="154" y="1024" type="curve" smooth="yes"/>
      <point x="119" y="1024"/>
      <point x="102" y="1042"/>
      <point x="102" y="1077" type="curve" smooth="yes"/>
      <point x="102" y="1112"/>
      <point x="119" y="1128"/>
      <point x="154" y="1128" type="curve" smooth="yes"/>
      <point x="188" y="1128"/>
      <point x="207" y="1112"/>
    </contour>
    <contour>
      <point x="582" y="678" type="curve" smooth="yes"/>
      <point x="582" y="643"/>
      <point x="563" y="625"/>
      <point x="528" y="625" type="curve" smooth="yes"/>
      <point x="494" y="625"/>
      <point x="477" y="643"/>
      <point x="477" y="678" type="curve" smooth="yes"/>
      <point x="477" y="713"/>
      <point x="494" y="729"/>
      <point x="528" y="729" type="curve" smooth="yes"/>
      <point x="563" y="729"/>
      <point x="582" y="713"/>
    </contour>
    <contour>
      <point x="1159" y="53" type="curve" smooth="yes" name=".hr02"/>
      <point x="1159" y="18"/>
      <point x="1141" y="0"/>
      <point x="1106" y="0" type="curve" smooth="yes"/>
      <point x="1071" y="0"/>
      <point x="1055" y="18"/>
      <point x="1055" y="53" type="curve" smooth="yes"/>
      <point x="1055" y="88"/>
      <point x="1071" y="104"/>
      <point x="1106" y="104" type="curve" smooth="yes"/>
      <point x="1141" y="104"/>
      <point x="1159" y="88"/>
    </contour>
    <contour>
      <point x="207" y="872" type="curve" smooth="yes"/>
      <point x="207" y="838"/>
      <point x="188" y="819"/>
      <point x="154" y="819" type="curve" smooth="yes"/>
      <point x="119" y="819"/>
      <point x="102" y="838"/>
      <point x="102" y="872" type="curve" smooth="yes"/>
      <point x="102" y="907"/>
      <point x="119" y="924"/>
      <point x="154" y="924" type="curve" smooth="yes"/>
      <point x="188" y="924"/>
      <point x="207" y="907"/>
    </contour>
    <contour>
      <point x="377" y="678" type="curve" smooth="yes"/>
      <point x="377" y="643"/>
      <point x="358" y="625"/>
      <point x="324" y="625" type="curve" smooth="yes"/>
      <point x="289" y="625"/>
      <point x="272" y="643"/>
      <point x="272" y="678" type="curve" smooth="yes"/>
      <point x="272" y="713"/>
      <point x="289" y="729"/>
      <point x="324" y="729" type="curve" smooth="yes"/>
      <point x="358" y="729"/>
      <point x="377" y="713"/>
    </contour>
    <contour>
      <point x="207" y="668" type="curve" smooth="yes"/>
      <point x="207" y="633"/>
      <point x="188" y="614"/>
      <point x="154" y="614" type="curve" smooth="yes"/>
      <point x="119" y="614"/>
      <point x="102" y="633"/>
      <point x="102" y="668" type="curve" smooth="yes"/>
      <point x="102" y="702"/>
      <point x="119" y="719"/>
      <point x="154" y="719" type="curve" smooth="yes"/>
      <point x="188" y="719"/>
      <point x="207" y="702"/>
    </contour>
    <contour>
      <point x="207" y="463" type="curve" smooth="yes"/>
      <point x="207" y="428"/>
      <point x="188" y="410"/>
      <point x="154" y="410" type="curve" smooth="yes"/>
      <point x="119" y="410" name=".hr03"/>
      <point x="102" y="428"/>
      <point x="102" y="463" type="curve" smooth="yes"/>
      <point x="102" y="498"/>
      <point x="119" y="514"/>
      <point x="154" y="514" type="curve" smooth="yes"/>
      <point x="188" y="514"/>
      <point x="207" y="498"/>
    </contour>
    <contour>
      <point x="207" y="258" type="curve" smooth="yes"/>
      <point x="207" y="223"/>
      <point x="188" y="205"/>
      <point x="154" y="205" type="curve" smooth="yes"/>
      <point x="119" y="205"/>
      <point x="102" y="223"/>
      <point x="102" y="258" type="curve" smooth="yes"/>
      <point x="102" y="293"/>
      <point x="119" y="309"/>
      <point x="154" y="309" type="curve" smooth="yes"/>
      <point x="188" y="309"/>
      <point x="207" y="293"/>
    </contour>
    <contour>
      <point x="207" y="53" type="curve" smooth="yes"/>
      <point x="207" y="18"/>
      <point x="188" y="0"/>
      <point x="154" y="0" type="curve" smooth="yes"/>
      <point x="119" y="0"/>
      <point x="102" y="18"/>
      <point x="102" y="53" type="curve" smooth="yes"/>
      <point x="102" y="88"/>
      <point x="119" y="104"/>
      <point x="154" y="104" type="curve" smooth="yes"/>
      <point x="188" y="104"/>
      <point x="207" y="88"/>
    </contour>
    <contour>
      <point x="211" y="1276" type="curve" smooth="yes"/>
      <point x="211" y="1315"/>
      <point x="178" y="1348"/>
      <point x="139" y="1348" type="curve" smooth="yes"/>
      <point x="100" y="1348"/>
      <point x="68" y="1315"/>
      <point x="68" y="1276" type="curve" smooth="yes"/>
      <point x="68" y="1237"/>
      <point x="100" y="1204"/>
      <point x="139" y="1204" type="curve" smooth="yes"/>
      <point x="178" y="1204"/>
      <point x="211" y="1237"/>
    </contour>
  </outline>
</glyph>
<glyph name="K" format="2">
  <advance width="1126"/>
  <unicode hex="004B"/>
  <outline>
    <contour>
      <point x="1008" y="1288" type="curve" smooth="yes"/>
      <point x="1008" y="1253"/>
      <point x="989" y="1235"/>
      <point x="954" y="1235" type="curve" smooth="yes"/>
      <point x="920" y="1235"/>
      <point x="903" y="1253"/>
      <point x="903" y="1288" type="curve" smooth="yes"/>
      <point x="903" y="1323"/>
      <point x="920" y="1339"/>
      <point x="954" y="1339" type="curve" smooth="yes"/>
      <point x="989" y="1339"/>
      <point x="1008" y="1323"/>
    </contour>
    <contour>
      <point x="834" y="1155" type="curve" smooth="yes"/>
      <point x="834" y="1120"/>
      <point x="815" y="1102"/>
      <point x="780" y="1102" type="curve" smooth="yes"/>
      <point x="745" y="1102"/>
      <point x="729" y="1120"/>
      <point x="729" y="1155" type="curve" smooth="yes"/>
      <point x="729" y="1190"/>
      <point x="745" y="1206"/>
      <point x="780" y="1206" type="curve" smooth="yes"/>
      <point x="815" y="1206"/>
      <point x="834" y="1190"/>
    </contour>
    <contour>
      <point x="678" y="1036" type="curve" smooth="yes"/>
      <point x="678" y="1001"/>
      <point x="659" y="983"/>
      <point x="625" y="983" type="curve" smooth="yes"/>
      <point x="590" y="983"/>
      <point x="573" y="1001"/>
      <point x="573" y="1036" type="curve" smooth="yes"/>
      <point x="573" y="1071"/>
      <point x="590" y="1087"/>
      <point x="625" y="1087" type="curve" smooth="yes"/>
      <point x="659" y="1087"/>
      <point x="678" y="1071"/>
    </contour>
    <contour>
      <point x="227" y="1276" type="curve" smooth="yes"/>
      <point x="227" y="1225"/>
      <point x="186" y="1184"/>
      <point x="135" y="1184" type="curve" smooth="yes"/>
      <point x="84" y="1184"/>
      <point x="43" y="1225" name=".hr01"/>
      <point x="43" y="1276" type="curve" smooth="yes"/>
      <point x="43" y="1327"/>
      <point x="84" y="1368"/>
      <point x="135" y="1368" type="curve" smooth="yes"/>
      <point x="186" y="1368"/>
      <point x="227" y="1327"/>
    </contour>
    <contour>
      <point x="522" y="907" type="curve" smooth="yes"/>
      <point x="522" y="872"/>
      <point x="504" y="854"/>
      <point x="469" y="854" type="curve" smooth="yes"/>
      <point x="434" y="854"/>
      <point x="418" y="872"/>
      <point x="418" y="907" type="curve" smooth="yes"/>
      <point x="418" y="942"/>
      <point x="434" y="958"/>
      <point x="469" y="958" type="curve" smooth="yes"/>
      <point x="504" y="958"/>
      <point x="522" y="942"/>
    </contour>
    <contour>
      <point x="207" y="1077" type="curve" smooth="yes"/>
      <point x="207" y="1042"/>
      <point x="188" y="1024"/>
      <point x="154" y="1024" type="curve" smooth="yes"/>
      <point x="119" y="1024"/>
      <point x="102" y="1042"/>
      <point x="102" y="1077" type="curve" smooth="yes"/>
      <point x="102" y="1112"/>
      <point x="119" y="1128"/>
      <point x="154" y="1128" type="curve" smooth="yes"/>
      <point x="188" y="1128"/>
      <point x="207" y="1112"/>
    </contour>
    <contour>
      <point x="360" y="784" type="curve" smooth="yes"/>
      <point x="360" y="750"/>
      <point x="342" y="731"/>
      <point x="307" y="731" type="curve" smooth="yes"/>
      <point x="272" y="731"/>
      <point x="256" y="750"/>
      <point x="256" y="784" type="curve" smooth="yes"/>
      <point x="256" y="819"/>
      <point x="272" y="836"/>
      <point x="307" y="836" type="curve" smooth="yes"/>
      <point x="342" y="836"/>
      <point x="360" y="819"/>
    </contour>
    <contour>
      <point x="1061" y="57" type="curve" smooth="yes"/>
      <point x="1061" y="23" name=".hr02"/>
      <point x="1042" y="4"/>
      <point x="1008" y="4" type="curve" smooth="yes"/>
      <point x="973" y="4"/>
      <point x="956" y="23"/>
      <point x="956" y="57" type="curve" smooth="yes"/>
      <point x="956" y="92"/>
      <point x="973" y="109"/>
      <point x="1008" y="109" type="curve" smooth="yes"/>
      <point x="1042" y="109"/>
      <point x="1061" y="92"/>
    </contour>
    <contour>
      <point x="207" y="872" type="curve" smooth="yes"/>
      <point x="207" y="838"/>
      <point x="188" y="819"/>
      <point x="154" y="819" type="curve" smooth="yes"/>
      <point x="119" y="819"/>
      <point x="102" y="838"/>
      <point x="102" y="872" type="curve" smooth="yes"/>
      <point x="102" y="907"/>
      <point x="119" y="924"/>
      <point x="154" y="924" type="curve" smooth="yes"/>
      <point x="188" y="924"/>
      <point x="207" y="907"/>
    </contour>
    <contour>
      <point x="858" y="213" type="curve" smooth="yes"/>
      <point x="858" y="178"/>
      <point x="840" y="160"/>
      <point x="805" y="160" type="curve" smooth="yes"/>
      <point x="770" y="160"/>
      <point x="754" y="178"/>
      <point x="754" y="213" type="curve" smooth="yes"/>
      <point x="754" y="248"/>
      <point x="770" y="264"/>
      <point x="805" y="264" type="curve" smooth="yes"/>
      <point x="840" y="264"/>
      <point x="858" y="248"/>
    </contour>
    <contour>
      <point x="676" y="348" type="curve" smooth="yes"/>
      <point x="676" y="313"/>
      <point x="657" y="295"/>
      <point x="623" y="295" type="curve" smooth="yes"/>
      <point x="588" y="295"/>
      <point x="571" y="313"/>
      <point x="571" y="348" type="curve" smooth="yes"/>
      <point x="571" y="383"/>
      <point x="588" y="399"/>
      <point x="623" y="399" type="curve" smooth="yes"/>
      <point x="657" y="399"/>
      <point x="676" y="383"/>
    </contour>
    <contour>
      <point x="512" y="475" type="curve" smooth="yes"/>
      <point x="512" y="440"/>
      <point x="494" y="422"/>
      <point x="459" y="422" type="curve" smooth="yes"/>
      <point x="424" y="422"/>
      <point x="408" y="440"/>
      <point x="408" y="475" type="curve" smooth="yes"/>
      <point x="408" y="510"/>
      <point x="424" y="526"/>
      <point x="459" y="526" type="curve" smooth="yes"/>
      <point x="494" y="526"/>
      <point x="512" y="510"/>
    </contour>
    <contour>
      <point x="352" y="588" type="curve" smooth="yes"/>
      <point x="352" y="553"/>
      <point x="334" y="535"/>
      <point x="299" y="535" type="curve" smooth="yes"/>
      <point x="264" y="535"/>
      <point x="248" y="553"/>
      <point x="248" y="588" type="curve" smooth="yes"/>
      <point x="248" y="623"/>
      <point x="264" y="639"/>
      <point x="299" y="639" type="curve" smooth="yes"/>
      <point x="334" y="639"/>
      <point x="352" y="623"/>
    </contour>
    <contour>
      <point x="207" y="668" type="curve" smooth="yes" name=".hr03"/>
      <point x="207" y="633"/>
      <point x="188" y="614"/>
      <point x="154" y="614" type="curve" smooth="yes"/>
      <point x="119" y="614"/>
      <point x="102" y="633"/>
      <point x="102" y="668" type="curve" smooth="yes"/>
      <point x="102" y="702"/>
      <point x="119" y="719"/>
      <point x="154" y="719" type="curve" smooth="yes"/>
      <point x="188" y="719"/>
      <point x="207" y="702"/>
    </contour>
    <contour>
      <point x="207" y="463" type="curve" smooth="yes"/>
      <point x="207" y="428"/>
      <point x="188" y="410"/>
      <point x="154" y="410" type="curve" smooth="yes" name=".hr04"/>
      <point x="119" y="410"/>
      <point x="102" y="428"/>
      <point x="102" y="463" type="curve" smooth="yes"/>
      <point x="102" y="498"/>
      <point x="119" y="514"/>
      <point x="154" y="514" type="curve" smooth="yes"/>
      <point x="188" y="514"/>
      <point x="207" y="498"/>
    </contour>
    <contour>
      <point x="207" y="258" type="curve" smooth="yes"/>
      <point x="207" y="223"/>
      <point x="188" y="205"/>
      <point x="154" y="205" type="curve" smooth="yes"/>
      <point x="119" y="205"/>
      <point x="102" y="223"/>
      <point x="102" y="258" type="curve" smooth="yes"/>
      <point x="102" y="293"/>
      <point x="119" y="309"/>
      <point x="154" y="309" type="curve" smooth="yes"/>
      <point x="188" y="309"/>
      <point x="207" y="293"/>
    </contour>
    <contour>
      <point x="207" y="53" type="curve" smooth="yes"/>
      <point x="207" y="18"/>
      <point x="188" y="0"/>
      <point x="154" y="0" type="curve" smooth="yes"/>
      <point x="119" y="0"/>
      <point x="102" y="18"/>
      <point x="102" y="53" type="curve" smooth="yes"/>
      <point x="102" y="88"/>
      <point x="119" y="104"/>
      <point x="154" y="104" type="curve" smooth="yes"/>
      <point x="188" y="104"/>
      <point x="207" y="88"/>
    </contour>
    <contour>
      <point x="207" y="1276" type="curve" smooth="yes"/>
      <point x="207" y="1315"/>
      <point x="174" y="1348"/>
      <point x="135" y="1348" type="curve" smooth="yes"/>
      <point x="96" y="1348"/>
      <point x="63" y="1315"/>
      <point x="63" y="1276" type="curve" smooth="yes"/>
      <point x="63" y="1237"/>
      <point x="96" y="1204"/>
      <point x="135" y="1204" type="curve" smooth="yes"/>
      <point x="174" y="1204"/>
      <point x="207" y="1237"/>
    </contour>
  </outline>
</glyph>
<glyph name="N" format="2">
  <advance width="1229"/>
  <unicode hex="004E"/>
  <outline>
    <contour>
      <point x="1159" y="1282" type="curve" smooth="yes"/>
      <point x="1159" y="1247"/>
      <point x="1141" y="1229"/>
      <point x="1106" y="1229" type="curve" smooth="yes"/>
      <point x="1071" y="1229"/>
      <point x="1055" y="1247"/>
      <point x="1055" y="1282" type="curve" smooth="yes"/>
      <point x="1055" y="1317"/>
      <point x="1071" y="1333"/>
      <point x="1106" y="1333" type="curve" smooth="yes"/>
      <point x="1141" y="1333"/>
      <point x="1159" y="1317"/>
    </contour>
    <contour>
      <point x="1159" y="1077" type="curve" smooth="yes"/>
      <point x="1159" y="1042"/>
      <point x="1141" y="1024"/>
      <point x="1106" y="1024" type="curve" smooth="yes"/>
      <point x="1071" y="1024"/>
      <point x="1055" y="1042"/>
      <point x="1055" y="1077" type="curve" smooth="yes"/>
      <point x="1055" y="1112"/>
      <point x="1071" y="1128"/>
      <point x="1106" y="1128" type="curve" smooth="yes"/>
      <point x="1141" y="1128"/>
      <point x="1159" y="1112"/>
    </contour>
    <contour>
      <point x="1159" y="872" type="curve" smooth="yes"/>
      <point x="1159" y="838"/>
      <point x="1141" y="819"/>
      <point x="1106" y="819" type="curve" smooth="yes"/>
      <point x="1071" y="819"/>
      <point x="1055" y="838"/>
      <point x="1055" y="872" type="curve" smooth="yes"/>
      <point x="1055" y="907"/>
      <point x="1071" y="924"/>
      <point x="1106" y="924" type="curve" smooth="yes"/>
      <point x="1141" y="924"/>
      <point x="1159" y="907"/>
    </contour>
    <contour>
      <point x="1159" y="668" type="curve" smooth="yes"/>
      <point x="1159" y="633"/>
      <point x="1141" y="614"/>
      <point x="1106" y="614" type="curve" smooth="yes"/>
      <point x="1071" y="614"/>
      <point x="1055" y="633"/>
      <point x="1055" y="668" type="curve" smooth="yes"/>
      <point x="1055" y="702"/>
      <point x="1071" y="719"/>
      <point x="1106" y="719" type="curve" smooth="yes"/>
      <point x="1141" y="719"/>
      <point x="1159" y="702"/>
    </contour>
    <contour>
      <point x="1159" y="463" type="curve" smooth="yes"/>
      <point x="1159" y="428"/>
      <point x="1141" y="410"/>
      <point x="1106" y="410" type="curve" smooth="yes"/>
      <point x="1071" y="410"/>
      <point x="1055" y="428"/>
      <point x="1055" y="463" type="curve" smooth="yes"/>
      <point x="1055" y="498"/>
      <point x="1071" y="514"/>
      <point x="1106" y="514" type="curve" smooth="yes"/>
      <point x="1141" y="514"/>
      <point x="1159" y="498"/>
    </contour>
    <contour>
      <point x="264" y="1276" type="curve" smooth="yes"/>
      <point x="264" y="1225"/>
      <point x="223" y="1184"/>
      <point x="172" y="1184" type="curve" smooth="yes"/>
      <point x="121" y="1184"/>
      <point x="80" y="1225"/>
      <point x="80" y="1276" type="curve" smooth="yes"/>
      <point x="80" y="1327"/>
      <point x="121" y="1368"/>
      <point x="172" y="1368" type="curve" smooth="yes"/>
      <point x="223" y="1368"/>
      <point x="264" y="1327"/>
    </contour>
    <contour>
      <point x="307" y="1151" type="curve" smooth="yes"/>
      <point x="307" y="1116"/>
      <point x="289" y="1098"/>
      <point x="254" y="1098" type="curve" smooth="yes"/>
      <point x="219" y="1098"/>
      <point x="203" y="1116"/>
      <point x="203" y="1151" type="curve" smooth="yes" name=".hr01"/>
      <point x="203" y="1186"/>
      <point x="219" y="1202"/>
      <point x="254" y="1202" type="curve" smooth="yes"/>
      <point x="289" y="1202"/>
      <point x="307" y="1186"/>
    </contour>
    <contour>
      <point x="410" y="1020" type="curve" smooth="yes"/>
      <point x="410" y="985"/>
      <point x="391" y="967"/>
      <point x="356" y="967" type="curve" smooth="yes"/>
      <point x="322" y="967"/>
      <point x="305" y="985"/>
      <point x="305" y="1020" type="curve" smooth="yes"/>
      <point x="305" y="1055"/>
      <point x="322" y="1071"/>
      <point x="356" y="1071" type="curve" smooth="yes"/>
      <point x="391" y="1071"/>
      <point x="410" y="1055"/>
    </contour>
    <contour>
      <point x="1159" y="258" type="curve" smooth="yes" name=".hr02"/>
      <point x="1159" y="223"/>
      <point x="1141" y="205"/>
      <point x="1106" y="205" type="curve" smooth="yes"/>
      <point x="1071" y="205"/>
      <point x="1055" y="223"/>
      <point x="1055" y="258" type="curve" smooth="yes"/>
      <point x="1055" y="293"/>
      <point x="1071" y="309"/>
      <point x="1106" y="309" type="curve" smooth="yes"/>
      <point x="1141" y="309"/>
      <point x="1159" y="293"/>
    </contour>
    <contour>
      <point x="537" y="854" type="curve" smooth="yes"/>
      <point x="537" y="819"/>
      <point x="518" y="801"/>
      <point x="483" y="801" type="curve" smooth="yes"/>
      <point x="449" y="801"/>
      <point x="432" y="819"/>
      <point x="432" y="854" type="curve" smooth="yes"/>
      <point x="432" y="889"/>
      <point x="449" y="905"/>
      <point x="483" y="905" type="curve" smooth="yes"/>
      <point x="518" y="905"/>
      <point x="537" y="889" name=".hr03"/>
    </contour>
    <contour>
      <point x="659" y="692" type="curve" smooth="yes"/>
      <point x="659" y="657"/>
      <point x="641" y="639" name=".hr04"/>
      <point x="606" y="639" type="curve" smooth="yes"/>
      <point x="571" y="639"/>
      <point x="555" y="657" name=".hr05"/>
      <point x="555" y="692" type="curve" smooth="yes"/>
      <point x="555" y="727"/>
      <point x="571" y="743"/>
      <point x="606" y="743" type="curve" smooth="yes"/>
      <point x="641" y="743"/>
      <point x="659" y="727"/>
    </contour>
    <contour>
      <point x="786" y="535" type="curve" smooth="yes"/>
      <point x="786" y="500"/>
      <point x="768" y="481"/>
      <point x="733" y="481" type="curve" smooth="yes"/>
      <point x="698" y="481"/>
      <point x="682" y="500"/>
      <point x="682" y="535" type="curve" smooth="yes"/>
      <point x="682" y="569"/>
      <point x="698" y="586"/>
      <point x="733" y="586" type="curve" smooth="yes"/>
      <point x="768" y="586"/>
      <point x="786" y="569"/>
    </contour>
    <contour>
      <point x="207" y="1077" type="curve" smooth="yes"/>
      <point x="207" y="1042"/>
      <point x="188" y="1024"/>
      <point x="154" y="1024" type="curve" smooth="yes"/>
      <point x="119" y="1024"/>
      <point x="102" y="1042"/>
      <point x="102" y="1077" type="curve" smooth="yes"/>
      <point x="102" y="1112"/>
      <point x="119" y="1128"/>
      <point x="154" y="1128" type="curve" smooth="yes"/>
      <point x="188" y="1128"/>
      <point x="207" y="1112"/>
    </contour>
    <contour>
      <point x="915" y="369" type="curve" smooth="yes"/>
      <point x="915" y="334"/>
      <point x="897" y="315"/>
      <point x="862" y="315" type="curve" smooth="yes"/>
      <point x="827" y="315"/>
      <point x="811" y="334"/>
      <point x="811" y="369" type="curve" smooth="yes"/>
      <point x="811" y="403"/>
      <point x="827" y="420"/>
      <point x="862" y="420" type="curve" smooth="yes"/>
      <point x="897" y="420"/>
      <point x="915" y="403"/>
    </contour>
    <contour>
      <point x="1034" y="213" type="curve" smooth="yes"/>
      <point x="1034" y="178"/>
      <point x="1016" y="160"/>
      <point x="981" y="160" type="curve" smooth="yes"/>
      <point x="946" y="160"/>
      <point x="930" y="178"/>
      <point x="930" y="213" type="curve" smooth="yes"/>
      <point x="930" y="248"/>
      <point x="946" y="264"/>
      <point x="981" y="264" type="curve" smooth="yes"/>
      <point x="1016" y="264"/>
      <point x="1034" y="248"/>
    </contour>
    <contour>
      <point x="1159" y="53" type="curve" smooth="yes"/>
      <point x="1159" y="18"/>
      <point x="1141" y="0"/>
      <point x="1106" y="0" type="curve" smooth="yes"/>
      <point x="1071" y="0"/>
      <point x="1055" y="18"/>
      <point x="1055" y="53" type="curve" smooth="yes"/>
      <point x="1055" y="88"/>
      <point x="1071" y="104"/>
      <point x="1106" y="104" type="curve" smooth="yes"/>
      <point x="1141" y="104"/>
      <point x="1159" y="88"/>
    </contour>
    <contour>
      <point x="207" y="872" type="curve" smooth="yes"/>
      <point x="207" y="838"/>
      <point x="188" y="819"/>
      <point x="154" y="819" type="curve" smooth="yes"/>
      <point x="119" y="819"/>
      <point x="102" y="838"/>
      <point x="102" y="872" type="curve" smooth="yes"/>
      <point x="102" y="907"/>
      <point x="119" y="924"/>
      <point x="154" y="924" type="curve" smooth="yes"/>
      <point x="188" y="924"/>
      <point x="207" y="907"/>
    </contour>
    <contour>
      <point x="207" y="668" type="curve" smooth="yes"/>
      <point x="207" y="633"/>
      <point x="188" y="614"/>
      <point x="154" y="614" type="curve" smooth="yes"/>
      <point x="119" y="614"/>
      <point x="102" y="633"/>
      <point x="102" y="668" type="curve" smooth="yes" name=".hr06"/>
      <point x="102" y="702"/>
      <point x="119" y="719"/>
      <point x="154" y="719" type="curve" smooth="yes"/>
      <point x="188" y="719"/>
      <point x="207" y="702"/>
    </contour>
    <contour>
      <point x="207" y="463" type="curve" smooth="yes"/>
      <point x="207" y="428"/>
      <point x="188" y="410"/>
      <point x="154" y="410" type="curve" smooth="yes"/>
      <point x="119" y="410"/>
      <point x="102" y="428"/>
      <point x="102" y="463" type="curve" smooth="yes"/>
      <point x="102" y="498"/>
      <point x="119" y="514"/>
      <point x="154" y="514" type="curve" smooth="yes"/>
      <point x="188" y="514"/>
      <point x="207" y="498"/>
    </contour>
    <contour>
      <point x="207" y="258" type="curve" smooth="yes"/>
      <point x="207" y="223"/>
      <point x="188" y="205"/>
      <point x="154" y="205" type="curve" smooth="yes"/>
      <point x="119" y="205"/>
      <point x="102" y="223"/>
      <point x="102" y="258" type="curve" smooth="yes"/>
      <point x="102" y="293"/>
      <point x="119" y="309"/>
      <point x="154" y="309" type="curve" smooth="yes"/>
      <point x="188" y="309"/>
      <point x="207" y="293"/>
    </contour>
    <contour>
      <point x="207" y="53" type="curve" smooth="yes"/>
      <point x="207" y="18"/>
      <point x="188" y="0"/>
      <point x="154" y="0" type="curve" smooth="yes"/>
      <point x="119" y="0"/>
      <point x="102" y="18"/>
      <point x="102" y="53" type="curve" smooth="yes"/>
      <point x="102" y="88"/>
      <point x="119" y="104"/>
      <point x="154" y="104" type="curve" smooth="yes"/>
      <point x="188" y="104"/>
      <point x="207" y="88"/>
    </contour>
    <contour>
      <point x="244" y="1276" type="curve" smooth="yes"/>
      <point x="244" y="1315"/>
      <point x="211" y="1348"/>
      <point x="172" y="1348" type="curve" smooth="yes"/>
      <point x="133" y="1348"/>
      <point x="100" y="1315"/>
      <point x="100" y="1276" type="curve" smooth="yes"/>
      <point x="100" y="1237"/>
      <point x="133" y="1204"/>
      <point x="172" y="1204" type="curve" smooth="yes"/>
      <point x="211" y="1204"/>
      <point x="244" y="1237"/>
    </contour>
  </outline>
</glyph>
<glyph name="U" format="2">
  <advance width="1229"/>
  <unicode hex="0055"/>
  <outline>
    <contour>
      <point x="1069" y="1278" type="curve" smooth="yes"/>
      <point x="1069" y="1243"/>
      <point x="1051" y="1225"/>
      <point x="1016" y="1225" type="curve" smooth="yes"/>
      <point x="981" y="1225"/>
      <point x="965" y="1243"/>
      <point x="965" y="1278" type="curve" smooth="yes"/>
      <point x="965" y="1313"/>
      <point x="981" y="1329"/>
      <point x="1016" y="1329" type="curve" smooth="yes"/>
      <point x="1051" y="1329"/>
      <point x="1069" y="1313"/>
    </contour>
    <contour>
      <point x="1069" y="1073" type="curve" smooth="yes"/>
      <point x="1069" y="1038"/>
      <point x="1051" y="1020"/>
      <point x="1016" y="1020" type="curve" smooth="yes"/>
      <point x="981" y="1020"/>
      <point x="965" y="1038"/>
      <point x="965" y="1073" type="curve" smooth="yes"/>
      <point x="965" y="1108"/>
      <point x="981" y="1124"/>
      <point x="1016" y="1124" type="curve" smooth="yes"/>
      <point x="1051" y="1124"/>
      <point x="1069" y="1108"/>
    </contour>
    <contour>
      <point x="1069" y="868" type="curve" smooth="yes"/>
      <point x="1069" y="834"/>
      <point x="1051" y="815"/>
      <point x="1016" y="815" type="curve" smooth="yes"/>
      <point x="981" y="815"/>
      <point x="965" y="834"/>
      <point x="965" y="868" type="curve" smooth="yes"/>
      <point x="965" y="903"/>
      <point x="981" y="920"/>
      <point x="1016" y="920" type="curve" smooth="yes"/>
      <point x="1051" y="920"/>
      <point x="1069" y="903"/>
    </contour>
    <contour>
      <point x="1069" y="664" type="curve" smooth="yes"/>
      <point x="1069" y="629"/>
      <point x="1051" y="610"/>
      <point x="1016" y="610" type="curve" smooth="yes"/>
      <point x="981" y="610"/>
      <point x="965" y="629"/>
      <point x="965" y="664" type="curve" smooth="yes"/>
      <point x="965" y="698"/>
      <point x="981" y="715"/>
      <point x="1016" y="715" type="curve" smooth="yes"/>
      <point x="1051" y="715"/>
      <point x="1069" y="698"/>
    </contour>
    <contour>
      <point x="1069" y="459" type="curve" smooth="yes"/>
      <point x="1069" y="424"/>
      <point x="1051" y="406"/>
      <point x="1016" y="406" type="curve" smooth="yes"/>
      <point x="981" y="406"/>
      <point x="965" y="424"/>
      <point x="965" y="459" type="curve" smooth="yes"/>
      <point x="965" y="494"/>
      <point x="981" y="510"/>
      <point x="1016" y="510" type="curve" smooth="yes"/>
      <point x="1051" y="510"/>
      <point x="1069" y="494"/>
    </contour>
    <contour>
      <point x="227" y="1276" type="curve" smooth="yes"/>
      <point x="227" y="1225"/>
      <point x="186" y="1184"/>
      <point x="135" y="1184" type="curve" smooth="yes"/>
      <point x="84" y="1184"/>
      <point x="43" y="1225"/>
      <point x="43" y="1276" type="curve" smooth="yes"/>
      <point x="43" y="1327"/>
      <point x="84" y="1368"/>
      <point x="135" y="1368" type="curve" smooth="yes"/>
      <point x="186" y="1368"/>
      <point x="227" y="1327"/>
    </contour>
    <contour>
      <point x="207" y="1075" type="curve" smooth="yes"/>
      <point x="207" y="1040"/>
      <point x="188" y="1022"/>
      <point x="154" y="1022" type="curve" smooth="yes"/>
      <point x="119" y="1022"/>
      <point x="102" y="1040"/>
      <point x="102" y="1075" type="curve" smooth="yes"/>
      <point x="102" y="1110"/>
      <point x="119" y="1126"/>
      <point x="154" y="1126" type="curve" smooth="yes"/>
      <point x="188" y="1126"/>
      <point x="207" y="1110"/>
    </contour>
    <contour>
      <point x="1010" y="266" type="curve" smooth="yes"/>
      <point x="1010" y="231"/>
      <point x="991" y="213"/>
      <point x="956" y="213" type="curve" smooth="yes"/>
      <point x="922" y="213"/>
      <point x="905" y="231"/>
      <point x="905" y="266" type="curve" smooth="yes"/>
      <point x="905" y="301"/>
      <point x="922" y="317"/>
      <point x="956" y="317" type="curve" smooth="yes"/>
      <point x="991" y="317"/>
      <point x="1010" y="301"/>
    </contour>
    <contour>
      <point x="207" y="870" type="curve" smooth="yes" name=".hr01"/>
      <point x="207" y="836"/>
      <point x="188" y="817"/>
      <point x="154" y="817" type="curve" smooth="yes"/>
      <point x="119" y="817"/>
      <point x="102" y="836"/>
      <point x="102" y="870" type="curve" smooth="yes"/>
      <point x="102" y="905"/>
      <point x="119" y="922"/>
      <point x="154" y="922" type="curve" smooth="yes"/>
      <point x="188" y="922"/>
      <point x="207" y="905"/>
    </contour>
    <contour>
      <point x="866" y="115" type="curve" smooth="yes"/>
      <point x="866" y="80"/>
      <point x="848" y="61"/>
      <point x="813" y="61" type="curve" smooth="yes"/>
      <point x="778" y="61"/>
      <point x="762" y="80"/>
      <point x="762" y="115" type="curve" smooth="yes"/>
      <point x="762" y="150"/>
      <point x="778" y="166"/>
      <point x="813" y="166" type="curve" smooth="yes"/>
      <point x="848" y="166"/>
      <point x="866" y="150"/>
    </contour>
    <contour>
      <point x="207" y="666" type="curve" smooth="yes"/>
      <point x="207" y="631"/>
      <point x="188" y="612"/>
      <point x="154" y="612" type="curve" smooth="yes"/>
      <point x="119" y="612"/>
      <point x="102" y="631"/>
      <point x="102" y="666" type="curve" smooth="yes"/>
      <point x="102" y="700"/>
      <point x="119" y="717"/>
      <point x="154" y="717" type="curve" smooth="yes"/>
      <point x="188" y="717"/>
      <point x="207" y="700"/>
    </contour>
    <contour>
      <point x="637" y="53" type="curve" smooth="yes"/>
      <point x="637" y="18"/>
      <point x="618" y="0"/>
      <point x="584" y="0" type="curve" smooth="yes"/>
      <point x="549" y="0"/>
      <point x="532" y="18"/>
      <point x="532" y="53" type="curve" smooth="yes"/>
      <point x="532" y="88"/>
      <point x="549" y="104"/>
      <point x="584" y="104" type="curve" smooth="yes"/>
      <point x="618" y="104"/>
      <point x="637" y="88"/>
    </contour>
    <contour>
      <point x="207" y="461" type="curve" smooth="yes"/>
      <point x="207" y="426" name=".hr02"/>
      <point x="188" y="408"/>
      <point x="154" y="408" type="curve" smooth="yes"/>
      <point x="119" y="408"/>
      <point x="102" y="426"/>
      <point x="102" y="461" type="curve" smooth="yes"/>
      <point x="102" y="496"/>
      <point x="119" y="512"/>
      <point x="154" y="512" type="curve" smooth="yes"/>
      <point x="188" y="512"/>
      <point x="207" y="496"/>
    </contour>
    <contour>
      <point x="424" y="104" type="curve" smooth="yes"/>
      <point x="424" y="70"/>
      <point x="406" y="51"/>
      <point x="371" y="51" type="curve" smooth="yes"/>
      <point x="336" y="51"/>
      <point x="319" y="70"/>
      <point x="319" y="104" type="curve" smooth="yes"/>
      <point x="319" y="139"/>
      <point x="336" y="156"/>
      <point x="371" y="156" type="curve" smooth="yes"/>
      <point x="406" y="156"/>
      <point x="424" y="139"/>
    </contour>
    <contour>
      <point x="268" y="258" type="curve" smooth="yes"/>
      <point x="268" y="223"/>
      <point x="250" y="205"/>
      <point x="215" y="205" type="curve" smooth="yes" name=".hr03"/>
      <point x="180" y="205"/>
      <point x="164" y="223"/>
      <point x="164" y="258" type="curve" smooth="yes"/>
      <point x="164" y="293" name=".hr04"/>
      <point x="180" y="309"/>
      <point x="215" y="309" type="curve" smooth="yes"/>
      <point x="250" y="309"/>
      <point x="268" y="293"/>
    </contour>
    <contour>
      <point x="207" y="1276" type="curve" smooth="yes"/>
      <point x="207" y="1315"/>
      <point x="174" y="1348"/>
      <point x="135" y="1348" type="curve" smooth="yes"/>
      <point x="96" y="1348"/>
      <point x="63" y="1315"/>
      <point x="63" y="1276" type="curve" smooth="yes"/>
      <point x="63" y="1237"/>
      <point x="96" y="1204"/>
      <point x="135" y="1204" type="curve" smooth="yes"/>
      <point x="174" y="1204"/>
      <point x="207" y="1237"/>
    </contour>
  </outline>
</glyph>
<glyph name="W" format="2">
  <advance width="2048"/>
  <unicode hex="0057"/>
  <outline>
    <contour>
      <point x="1970" y="1284" type="curve" smooth="yes"/>
      <point x="1970" y="1249"/>
      <point x="1952" y="1231"/>
      <point x="1917" y="1231" type="curve" smooth="yes"/>
      <point x="1882" y="1231"/>
      <point x="1866" y="1249"/>
      <point x="1866" y="1284" type="curve" smooth="yes"/>
      <point x="1866" y="1319"/>
      <point x="1882" y="1335"/>
      <point x="1917" y="1335" type="curve" smooth="yes"/>
      <point x="1952" y="1335"/>
      <point x="1970" y="1319"/>
    </contour>
    <contour>
      <point x="1907" y="1106" type="curve" smooth="yes"/>
      <point x="1907" y="1071"/>
      <point x="1888" y="1053"/>
      <point x="1853" y="1053" type="curve" smooth="yes"/>
      <point x="1819" y="1053"/>
      <point x="1802" y="1071"/>
      <point x="1802" y="1106" type="curve" smooth="yes" name=".hr01"/>
      <point x="1802" y="1141"/>
      <point x="1819" y="1157"/>
      <point x="1853" y="1157" type="curve" smooth="yes"/>
      <point x="1888" y="1157"/>
      <point x="1907" y="1141"/>
    </contour>
    <contour>
      <point x="1839" y="913" type="curve" smooth="yes"/>
      <point x="1839" y="879"/>
      <point x="1821" y="860" name=".hr02"/>
      <point x="1786" y="860" type="curve" smooth="yes"/>
      <point x="1751" y="860"/>
      <point x="1735" y="879"/>
      <point x="1735" y="913" type="curve" smooth="yes"/>
      <point x="1735" y="948"/>
      <point x="1751" y="965"/>
      <point x="1786" y="965" type="curve" smooth="yes"/>
      <point x="1821" y="965"/>
      <point x="1839" y="948"/>
    </contour>
    <contour>
      <point x="1759" y="696" type="curve" smooth="yes"/>
      <point x="1759" y="662"/>
      <point x="1741" y="643"/>
      <point x="1706" y="643" type="curve" smooth="yes" name=".hr03"/>
      <point x="1671" y="643"/>
      <point x="1655" y="662"/>
      <point x="1655" y="696" type="curve" smooth="yes"/>
      <point x="1655" y="731"/>
      <point x="1671" y="748"/>
      <point x="1706" y="748" type="curve" smooth="yes"/>
      <point x="1741" y="748"/>
      <point x="1759" y="731"/>
    </contour>
    <contour>
      <point x="1081" y="1282" type="curve" smooth="yes"/>
      <point x="1081" y="1247"/>
      <point x="1063" y="1229"/>
      <point x="1028" y="1229" type="curve" smooth="yes"/>
      <point x="993" y="1229"/>
      <point x="977" y="1247"/>
      <point x="977" y="1282" type="curve" smooth="yes"/>
      <point x="977" y="1317"/>
      <point x="993" y="1333"/>
      <point x="1028" y="1333" type="curve" smooth="yes"/>
      <point x="1063" y="1333"/>
      <point x="1081" y="1317"/>
    </contour>
    <contour>
      <point x="1151" y="1087" type="curve" smooth="yes"/>
      <point x="1151" y="1053"/>
      <point x="1133" y="1034"/>
      <point x="1098" y="1034" type="curve" smooth="yes"/>
      <point x="1063" y="1034"/>
      <point x="1047" y="1053" name=".hr04"/>
      <point x="1047" y="1087" type="curve" smooth="yes"/>
      <point x="1047" y="1122" name=".hr05"/>
      <point x="1063" y="1139"/>
      <point x="1098" y="1139" type="curve" smooth="yes"/>
      <point x="1133" y="1139" name=".hr06"/>
      <point x="1151" y="1122"/>
    </contour>
    <contour>
      <point x="1681" y="477" type="curve" smooth="yes"/>
      <point x="1681" y="442"/>
      <point x="1663" y="424"/>
      <point x="1628" y="424" type="curve" smooth="yes"/>
      <point x="1593" y="424"/>
      <point x="1577" y="442"/>
      <point x="1577" y="477" type="curve" smooth="yes"/>
      <point x="1577" y="512"/>
      <point x="1593" y="528"/>
      <point x="1628" y="528" type="curve" smooth="yes"/>
      <point x="1663" y="528"/>
      <point x="1681" y="512"/>
    </contour>
    <contour>
      <point x="1010" y="1106" type="curve" smooth="yes"/>
      <point x="1010" y="1071"/>
      <point x="991" y="1053"/>
      <point x="956" y="1053" type="curve" smooth="yes"/>
      <point x="922" y="1053"/>
      <point x="905" y="1071"/>
      <point x="905" y="1106" type="curve" smooth="yes"/>
      <point x="905" y="1141"/>
      <point x="922" y="1157"/>
      <point x="956" y="1157" type="curve" smooth="yes"/>
      <point x="991" y="1157"/>
      <point x="1010" y="1141"/>
    </contour>
    <contour>
      <point x="1219" y="887" type="curve" smooth="yes"/>
      <point x="1219" y="852"/>
      <point x="1200" y="834"/>
      <point x="1165" y="834" type="curve" smooth="yes"/>
      <point x="1130" y="834"/>
      <point x="1114" y="852"/>
      <point x="1114" y="887" type="curve" smooth="yes"/>
      <point x="1114" y="922"/>
      <point x="1130" y="938"/>
      <point x="1165" y="938" type="curve" smooth="yes"/>
      <point x="1200" y="938"/>
      <point x="1219" y="922"/>
    </contour>
    <contour>
      <point x="1296" y="690" type="curve" smooth="yes"/>
      <point x="1296" y="655" name=".hr07"/>
      <point x="1278" y="637"/>
      <point x="1243" y="637" type="curve" smooth="yes"/>
      <point x="1208" y="637"/>
      <point x="1192" y="655"/>
      <point x="1192" y="690" type="curve" smooth="yes"/>
      <point x="1192" y="725"/>
      <point x="1208" y="741"/>
      <point x="1243" y="741" type="curve" smooth="yes" name=".hr08"/>
      <point x="1278" y="741"/>
      <point x="1296" y="725"/>
    </contour>
    <contour>
      <point x="1606" y="276" type="curve" smooth="yes"/>
      <point x="1606" y="242"/>
      <point x="1587" y="223"/>
      <point x="1552" y="223" type="curve" smooth="yes"/>
      <point x="1518" y="223"/>
      <point x="1501" y="242"/>
      <point x="1501" y="276" type="curve" smooth="yes"/>
      <point x="1501" y="311"/>
      <point x="1518" y="328"/>
      <point x="1552" y="328" type="curve" smooth="yes"/>
      <point x="1587" y="328"/>
      <point x="1606" y="311"/>
    </contour>
    <contour>
      <point x="942" y="913" type="curve" smooth="yes"/>
      <point x="942" y="879"/>
      <point x="924" y="860"/>
      <point x="889" y="860" type="curve" smooth="yes"/>
      <point x="854" y="860"/>
      <point x="838" y="879"/>
      <point x="838" y="913" type="curve" smooth="yes"/>
      <point x="838" y="948"/>
      <point x="854" y="965"/>
      <point x="889" y="965" type="curve" smooth="yes"/>
      <point x="924" y="965"/>
      <point x="942" y="948"/>
    </contour>
    <contour>
      <point x="1372" y="469" type="curve" smooth="yes"/>
      <point x="1372" y="434"/>
      <point x="1354" y="416"/>
      <point x="1319" y="416" type="curve" smooth="yes"/>
      <point x="1284" y="416"/>
      <point x="1268" y="434"/>
      <point x="1268" y="469" type="curve" smooth="yes"/>
      <point x="1268" y="504"/>
      <point x="1284" y="520"/>
      <point x="1319" y="520" type="curve" smooth="yes"/>
      <point x="1354" y="520"/>
      <point x="1372" y="504"/>
    </contour>
    <contour>
      <point x="1448" y="262" type="curve" smooth="yes" name=".hr09"/>
      <point x="1448" y="227"/>
      <point x="1430" y="209"/>
      <point x="1395" y="209" type="curve" smooth="yes"/>
      <point x="1360" y="209"/>
      <point x="1343" y="227"/>
      <point x="1343" y="262" type="curve" smooth="yes"/>
      <point x="1343" y="297"/>
      <point x="1360" y="313"/>
      <point x="1395" y="313" type="curve" smooth="yes"/>
      <point x="1430" y="313"/>
      <point x="1448" y="297"/>
    </contour>
    <contour>
      <point x="1526" y="53" type="curve" smooth="yes"/>
      <point x="1526" y="18"/>
      <point x="1507" y="0"/>
      <point x="1473" y="0" type="curve" smooth="yes"/>
      <point x="1438" y="0"/>
      <point x="1421" y="18"/>
      <point x="1421" y="53" type="curve" smooth="yes" name=".hr10"/>
      <point x="1421" y="88"/>
      <point x="1438" y="104"/>
      <point x="1473" y="104" type="curve" smooth="yes"/>
      <point x="1507" y="104"/>
      <point x="1526" y="88"/>
    </contour>
    <contour>
      <point x="862" y="696" type="curve" smooth="yes"/>
      <point x="862" y="662"/>
      <point x="844" y="643"/>
      <point x="809" y="643" type="curve" smooth="yes"/>
      <point x="774" y="643"/>
      <point x="758" y="662"/>
      <point x="758" y="696" type="curve" smooth="yes"/>
      <point x="758" y="731" name=".hr11"/>
      <point x="774" y="748"/>
      <point x="809" y="748" type="curve" smooth="yes"/>
      <point x="844" y="748"/>
      <point x="862" y="731"/>
    </contour>
    <contour>
      <point x="242" y="1276" type="curve" smooth="yes"/>
      <point x="242" y="1225"/>
      <point x="201" y="1184"/>
      <point x="150" y="1184" type="curve" smooth="yes"/>
      <point x="98" y="1184"/>
      <point x="57" y="1225"/>
      <point x="57" y="1276" type="curve" smooth="yes"/>
      <point x="57" y="1327"/>
      <point x="98" y="1368"/>
      <point x="150" y="1368" type="curve" smooth="yes"/>
      <point x="201" y="1368"/>
      <point x="242" y="1327"/>
    </contour>
    <contour>
      <point x="254" y="1087" type="curve" smooth="yes"/>
      <point x="254" y="1053"/>
      <point x="236" y="1034"/>
      <point x="201" y="1034" type="curve" smooth="yes"/>
      <point x="166" y="1034"/>
      <point x="150" y="1053"/>
      <point x="150" y="1087" type="curve" smooth="yes"/>
      <point x="150" y="1122"/>
      <point x="166" y="1139"/>
      <point x="201" y="1139" type="curve" smooth="yes"/>
      <point x="236" y="1139"/>
      <point x="254" y="1122"/>
    </contour>
    <contour>
      <point x="784" y="477" type="curve" smooth="yes"/>
      <point x="784" y="442"/>
      <point x="766" y="424"/>
      <point x="731" y="424" type="curve" smooth="yes"/>
      <point x="696" y="424"/>
      <point x="680" y="442"/>
      <point x="680" y="477" type="curve" smooth="yes"/>
      <point x="680" y="512" name=".hr12"/>
      <point x="696" y="528"/>
      <point x="731" y="528" type="curve" smooth="yes"/>
      <point x="766" y="528" name=".hr13"/>
      <point x="784" y="512"/>
    </contour>
    <contour>
      <point x="322" y="887" type="curve" smooth="yes"/>
      <point x="322" y="852"/>
      <point x="303" y="834"/>
      <point x="268" y="834" type="curve" smooth="yes"/>
      <point x="233" y="834"/>
      <point x="217" y="852"/>
      <point x="217" y="887" type="curve" smooth="yes"/>
      <point x="217" y="922"/>
      <point x="233" y="938"/>
      <point x="268" y="938" type="curve" smooth="yes"/>
      <point x="303" y="938"/>
      <point x="322" y="922"/>
    </contour>
    <contour>
      <point x="399" y="690" type="curve" smooth="yes"/>
      <point x="399" y="655"/>
      <point x="381" y="637"/>
      <point x="346" y="637" type="curve" smooth="yes"/>
      <point x="311" y="637"/>
      <point x="295" y="655"/>
      <point x="295" y="690" type="curve" smooth="yes"/>
      <point x="295" y="725"/>
      <point x="311" y="741"/>
      <point x="346" y="741" type="curve" smooth="yes"/>
      <point x="381" y="741"/>
      <point x="399" y="725"/>
    </contour>
    <contour>
      <point x="709" y="276" type="curve" smooth="yes" name=".hr14"/>
      <point x="709" y="242"/>
      <point x="690" y="223"/>
      <point x="655" y="223" type="curve" smooth="yes"/>
      <point x="621" y="223"/>
      <point x="604" y="242"/>
      <point x="604" y="276" type="curve" smooth="yes"/>
      <point x="604" y="311"/>
      <point x="621" y="328" name=".hr15"/>
      <point x="655" y="328" type="curve" smooth="yes"/>
      <point x="690" y="328"/>
      <point x="709" y="311"/>
    </contour>
    <contour>
      <point x="475" y="469" type="curve" smooth="yes"/>
      <point x="475" y="434"/>
      <point x="457" y="416"/>
      <point x="422" y="416" type="curve" smooth="yes"/>
      <point x="387" y="416"/>
      <point x="371" y="434"/>
      <point x="371" y="469" type="curve" smooth="yes"/>
      <point x="371" y="504"/>
      <point x="387" y="520"/>
      <point x="422" y="520" type="curve" smooth="yes"/>
      <point x="457" y="520"/>
      <point x="475" y="504"/>
    </contour>
    <contour>
      <point x="551" y="262" type="curve" smooth="yes"/>
      <point x="551" y="227"/>
      <point x="532" y="209"/>
      <point x="498" y="209" type="curve" smooth="yes"/>
      <point x="463" y="209"/>
      <point x="446" y="227"/>
      <point x="446" y="262" type="curve" smooth="yes"/>
      <point x="446" y="297"/>
      <point x="463" y="313"/>
      <point x="498" y="313" type="curve" smooth="yes"/>
      <point x="532" y="313" name=".hr16"/>
      <point x="551" y="297"/>
    </contour>
    <contour>
      <point x="629" y="53" type="curve" smooth="yes"/>
      <point x="629" y="18"/>
      <point x="610" y="0"/>
      <point x="575" y="0" type="curve" smooth="yes"/>
      <point x="541" y="0"/>
      <point x="524" y="18"/>
      <point x="524" y="53" type="curve" smooth="yes"/>
      <point x="524" y="88"/>
      <point x="541" y="104"/>
      <point x="575" y="104" type="curve" smooth="yes"/>
      <point x="610" y="104"/>
      <point x="629" y="88"/>
    </contour>
    <contour>
      <point x="221" y="1276" type="curve" smooth="yes"/>
      <point x="221" y="1315"/>
      <point x="188" y="1348"/>
      <point x="150" y="1348" type="curve" smooth="yes"/>
      <point x="111" y="1348" name=".hr17"/>
      <point x="78" y="1315"/>
      <point x="78" y="1276" type="curve" smooth="yes"/>
      <point x="78" y="1237"/>
      <point x="111" y="1204"/>
      <point x="150" y="1204" type="curve" smooth="yes"/>
      <point x="188" y="1204"/>
      <point x="221" y="1237"/>
    </contour>
  </outline>
</glyph>
<glyph name="Z" format="2">
  <advance width="1229"/>
  <unicode hex="005A"/>
  <outline>
    <contour>
      <point x="983" y="1280" type="curve" smooth="yes"/>
      <point x="983" y="1245"/>
      <point x="965" y="1227"/>
      <point x="930" y="1227" type="curve" smooth="yes"/>
      <point x="895" y="1227"/>
      <point x="879" y="1245"/>
      <point x="879" y="1280" type="curve" smooth="yes"/>
      <point x="879" y="1315"/>
      <point x="895" y="1331"/>
      <point x="930" y="1331" type="curve" smooth="yes"/>
      <point x="965" y="1331"/>
      <point x="983" y="1315"/>
    </contour>
    <contour>
      <point x="821" y="1282" type="curve" smooth="yes"/>
      <point x="821" y="1247"/>
      <point x="805" y="1231"/>
      <point x="770" y="1231" type="curve" smooth="yes"/>
      <point x="735" y="1231" name=".hr01"/>
      <point x="717" y="1247"/>
      <point x="717" y="1282" type="curve" smooth="yes" name=".hr02"/>
      <point x="717" y="1317"/>
      <point x="735" y="1335"/>
      <point x="770" y="1335" type="curve" smooth="yes"/>
      <point x="805" y="1335" name=".hr03"/>
      <point x="821" y="1317"/>
    </contour>
    <contour>
      <point x="874" y="1110" type="curve" smooth="yes" name=".hr04"/>
      <point x="874" y="1075"/>
      <point x="856" y="1057" name=".hr05"/>
      <point x="821" y="1057" type="curve" smooth="yes"/>
      <point x="786" y="1057"/>
      <point x="770" y="1075" name=".hr06"/>
      <point x="770" y="1110" type="curve" smooth="yes"/>
      <point x="770" y="1145" name=".hr07"/>
      <point x="786" y="1161"/>
      <point x="821" y="1161" type="curve" smooth="yes"/>
      <point x="856" y="1161"/>
      <point x="874" y="1145" name=".hr08"/>
    </contour>
    <contour>
      <point x="616" y="1282" type="curve" smooth="yes"/>
      <point x="616" y="1247" name=".hr09"/>
      <point x="600" y="1231"/>
      <point x="565" y="1231" type="curve" smooth="yes"/>
      <point x="530" y="1231"/>
      <point x="512" y="1247"/>
      <point x="512" y="1282" type="curve" smooth="yes"/>
      <point x="512" y="1317"/>
      <point x="530" y="1335"/>
      <point x="565" y="1335" type="curve" smooth="yes"/>
      <point x="600" y="1335"/>
      <point x="616" y="1317"/>
    </contour>
    <contour>
      <point x="766" y="940" type="curve" smooth="yes"/>
      <point x="766" y="905"/>
      <point x="748" y="887"/>
      <point x="713" y="887" type="curve" smooth="yes"/>
      <point x="678" y="887"/>
      <point x="662" y="905"/>
      <point x="662" y="940" type="curve" smooth="yes"/>
      <point x="662" y="975"/>
      <point x="678" y="991"/>
      <point x="713" y="991" type="curve" smooth="yes"/>
      <point x="748" y="991"/>
      <point x="766" y="975"/>
    </contour>
    <contour>
      <point x="412" y="1282" type="curve" smooth="yes"/>
      <point x="412" y="1247"/>
      <point x="395" y="1231"/>
      <point x="360" y="1231" type="curve" smooth="yes"/>
      <point x="326" y="1231"/>
      <point x="307" y="1247"/>
      <point x="307" y="1282" type="curve" smooth="yes"/>
      <point x="307" y="1317"/>
      <point x="326" y="1335"/>
      <point x="360" y="1335" type="curve" smooth="yes"/>
      <point x="395" y="1335"/>
      <point x="412" y="1317"/>
    </contour>
    <contour>
      <point x="242" y="1276" type="curve" smooth="yes"/>
      <point x="242" y="1225"/>
      <point x="201" y="1184"/>
      <point x="150" y="1184" type="curve" smooth="yes"/>
      <point x="98" y="1184"/>
      <point x="57" y="1225"/>
      <point x="57" y="1276" type="curve" smooth="yes"/>
      <point x="57" y="1327"/>
      <point x="98" y="1368"/>
      <point x="150" y="1368" type="curve" smooth="yes"/>
      <point x="201" y="1368"/>
      <point x="242" y="1327"/>
    </contour>
    <contour>
      <point x="659" y="772" type="curve" smooth="yes"/>
      <point x="659" y="737"/>
      <point x="641" y="719"/>
      <point x="606" y="719" type="curve" smooth="yes"/>
      <point x="571" y="719"/>
      <point x="555" y="737"/>
      <point x="555" y="772" type="curve" smooth="yes"/>
      <point x="555" y="807" name=".hr10"/>
      <point x="571" y="823"/>
      <point x="606" y="823" type="curve" smooth="yes"/>
      <point x="641" y="823"/>
      <point x="659" y="807"/>
    </contour>
    <contour>
      <point x="1081" y="53" type="curve" smooth="yes"/>
      <point x="1081" y="18"/>
      <point x="1063" y="0"/>
      <point x="1028" y="0" type="curve" smooth="yes"/>
      <point x="993" y="0"/>
      <point x="977" y="18"/>
      <point x="977" y="53" type="curve" smooth="yes"/>
      <point x="977" y="88"/>
      <point x="993" y="104"/>
      <point x="1028" y="104" type="curve" smooth="yes"/>
      <point x="1063" y="104"/>
      <point x="1081" y="88"/>
    </contour>
    <contour>
      <point x="541" y="590" type="curve" smooth="yes"/>
      <point x="541" y="555"/>
      <point x="522" y="537"/>
      <point x="487" y="537" type="curve" smooth="yes"/>
      <point x="453" y="537"/>
      <point x="436" y="555"/>
      <point x="436" y="590" type="curve" smooth="yes"/>
      <point x="436" y="625"/>
      <point x="453" y="641"/>
      <point x="487" y="641" type="curve" smooth="yes"/>
      <point x="522" y="641"/>
      <point x="541" y="625"/>
    </contour>
    <contour>
      <point x="877" y="53" type="curve" smooth="yes"/>
      <point x="877" y="18"/>
      <point x="858" y="0"/>
      <point x="823" y="0" type="curve" smooth="yes"/>
      <point x="788" y="0"/>
      <point x="772" y="18"/>
      <point x="772" y="53" type="curve" smooth="yes"/>
      <point x="772" y="88"/>
      <point x="788" y="104"/>
      <point x="823" y="104" type="curve" smooth="yes"/>
      <point x="858" y="104"/>
      <point x="877" y="88"/>
    </contour>
    <contour>
      <point x="420" y="408" type="curve" smooth="yes"/>
      <point x="420" y="373"/>
      <point x="401" y="354"/>
      <point x="367" y="354" type="curve" smooth="yes"/>
      <point x="332" y="354"/>
      <point x="315" y="373"/>
      <point x="315" y="408" type="curve" smooth="yes"/>
      <point x="315" y="442"/>
      <point x="332" y="459"/>
      <point x="367" y="459" type="curve" smooth="yes"/>
      <point x="401" y="459"/>
      <point x="420" y="442"/>
    </contour>
    <contour>
      <point x="672" y="53" type="curve" smooth="yes"/>
      <point x="672" y="18"/>
      <point x="653" y="0"/>
      <point x="618" y="0" type="curve" smooth="yes"/>
      <point x="584" y="0"/>
      <point x="567" y="18"/>
      <point x="567" y="53" type="curve" smooth="yes"/>
      <point x="567" y="88"/>
      <point x="584" y="104"/>
      <point x="618" y="104" type="curve" smooth="yes"/>
      <point x="653" y="104"/>
      <point x="672" y="88"/>
    </contour>
    <contour>
      <point x="467" y="53" type="curve" smooth="yes"/>
      <point x="467" y="18"/>
      <point x="449" y="0"/>
      <point x="414" y="0" type="curve" smooth="yes"/>
      <point x="379" y="0"/>
      <point x="362" y="18" name=".hr11"/>
      <point x="362" y="53" type="curve" smooth="yes"/>
      <point x="362" y="88"/>
      <point x="379" y="104"/>
      <point x="414" y="104" type="curve" smooth="yes"/>
      <point x="449" y="104"/>
      <point x="467" y="88"/>
    </contour>
    <contour>
      <point x="299" y="215" type="curve" smooth="yes"/>
      <point x="299" y="180"/>
      <point x="281" y="162"/>
      <point x="246" y="162" type="curve" smooth="yes"/>
      <point x="211" y="162"/>
      <point x="195" y="180"/>
      <point x="195" y="215" type="curve" smooth="yes"/>
      <point x="195" y="250"/>
      <point x="211" y="266"/>
      <point x="246" y="266" type="curve" smooth="yes"/>
      <point x="281" y="266"/>
      <point x="299" y="250"/>
    </contour>
    <contour>
      <point x="195" y="53" type="curve" smooth="yes"/>
      <point x="195" y="18"/>
      <point x="176" y="0"/>
      <point x="141" y="0" type="curve" smooth="yes"/>
      <point x="106" y="0"/>
      <point x="90" y="18"/>
      <point x="90" y="53" type="curve" smooth="yes"/>
      <point x="90" y="88"/>
      <point x="106" y="104"/>
      <point x="141" y="104" type="curve" smooth="yes"/>
      <point x="176" y="104"/>
      <point x="195" y="88"/>
    </contour>
    <contour>
      <point x="221" y="1276" type="curve" smooth="yes"/>
      <point x="221" y="1315"/>
      <point x="188" y="1348"/>
      <point x="150" y="1348" type="curve" smooth="yes"/>
      <point x="111" y="1348"/>
      <point x="78" y="1315"/>
      <point x="78" y="1276" type="curve" smooth="yes"/>
      <point x="78" y="1237"/>
      <point x="111" y="1204"/>
      <point x="150" y="1204" type="curve" smooth="yes"/>
      <point x="188" y="1204"/>
      <point x="221" y="1237"/>
    </contour>
  </outline>
</glyph>
<glyph name="bracketleft" format="2">
  <advance width="717"/>
  <unicode hex="005B"/>
  <outline>
    <contour>
      <point x="522" y="1282" type="curve" smooth="yes"/>
      <point x="522" y="1247"/>
      <point x="504" y="1229"/>
      <point x="469" y="1229" type="curve" smooth="yes"/>
      <point x="434" y="1229"/>
      <point x="418" y="1247"/>
      <point x="418" y="1282" type="curve" smooth="yes"/>
      <point x="418" y="1317"/>
      <point x="434" y="1333"/>
      <point x="469" y="1333" type="curve" smooth="yes"/>
      <point x="504" y="1333"/>
      <point x="522" y="1317"/>
    </contour>
    <contour>
      <point x="272" y="1282" type="curve" smooth="yes"/>
      <point x="272" y="1247"/>
      <point x="254" y="1229"/>
      <point x="219" y="1229" type="curve" smooth="yes"/>
      <point x="184" y="1229"/>
      <point x="168" y="1247"/>
      <point x="168" y="1282" type="curve" smooth="yes"/>
      <point x="168" y="1317"/>
      <point x="184" y="1333"/>
      <point x="219" y="1333" type="curve" smooth="yes"/>
      <point x="254" y="1333"/>
      <point x="272" y="1317"/>
    </contour>
    <contour>
      <point x="272" y="1077" type="curve" smooth="yes"/>
      <point x="272" y="1042"/>
      <point x="254" y="1024"/>
      <point x="219" y="1024" type="curve" smooth="yes"/>
      <point x="184" y="1024"/>
      <point x="168" y="1042"/>
      <point x="168" y="1077" type="curve" smooth="yes"/>
      <point x="168" y="1112"/>
      <point x="184" y="1128"/>
      <point x="219" y="1128" type="curve" smooth="yes"/>
      <point x="254" y="1128"/>
      <point x="272" y="1112"/>
    </contour>
    <contour>
      <point x="272" y="872" type="curve" smooth="yes"/>
      <point x="272" y="838"/>
      <point x="254" y="819"/>
      <point x="219" y="819" type="curve" smooth="yes"/>
      <point x="184" y="819"/>
      <point x="168" y="838"/>
      <point x="168" y="872" type="curve" smooth="yes"/>
      <point x="168" y="907"/>
      <point x="184" y="924"/>
      <point x="219" y="924" type="curve" smooth="yes"/>
      <point x="254" y="924"/>
      <point x="272" y="907"/>
    </contour>
    <contour>
      <point x="272" y="668" type="curve" smooth="yes"/>
      <point x="272" y="633"/>
      <point x="254" y="614"/>
      <point x="219" y="614" type="curve" smooth="yes"/>
      <point x="184" y="614"/>
      <point x="168" y="633"/>
      <point x="168" y="668" type="curve" smooth="yes"/>
      <point x="168" y="702"/>
      <point x="184" y="719"/>
      <point x="219" y="719" type="curve" smooth="yes"/>
      <point x="254" y="719"/>
      <point x="272" y="702"/>
    </contour>
    <contour>
      <point x="272" y="463" type="curve" smooth="yes"/>
      <point x="272" y="428"/>
      <point x="254" y="410"/>
      <point x="219" y="410" type="curve" smooth="yes"/>
      <point x="184" y="410"/>
      <point x="168" y="428"/>
      <point x="168" y="463" type="curve" smooth="yes"/>
      <point x="168" y="498"/>
      <point x="184" y="514"/>
      <point x="219" y="514" type="curve" smooth="yes"/>
      <point x="254" y="514"/>
      <point x="272" y="498"/>
    </contour>
    <contour>
      <point x="518" y="51" type="curve" smooth="yes"/>
      <point x="518" y="16"/>
      <point x="502" y="-2"/>
      <point x="467" y="-2" type="curve" smooth="yes"/>
      <point x="432" y="-2"/>
      <point x="414" y="16"/>
      <point x="414" y="51" type="curve" smooth="yes"/>
      <point x="414" y="86"/>
      <point x="432" y="104"/>
      <point x="467" y="104" type="curve" smooth="yes"/>
      <point x="502" y="104"/>
      <point x="518" y="86"/>
    </contour>
    <contour>
      <point x="272" y="258" type="curve" smooth="yes"/>
      <point x="272" y="223"/>
      <point x="254" y="205"/>
      <point x="219" y="205" type="curve" smooth="yes"/>
      <point x="184" y="205"/>
      <point x="168" y="223"/>
      <point x="168" y="258" type="curve" smooth="yes"/>
      <point x="168" y="293"/>
      <point x="184" y="309"/>
      <point x="219" y="309" type="curve" smooth="yes"/>
      <point x="254" y="309"/>
      <point x="272" y="293"/>
    </contour>
    <contour>
      <point x="272" y="53" type="curve" smooth="yes"/>
      <point x="272" y="18"/>
      <point x="254" y="0"/>
      <point x="219" y="0" type="curve" smooth="yes"/>
      <point x="184" y="0"/>
      <point x="168" y="18"/>
      <point x="168" y="53" type="curve" smooth="yes"/>
      <point x="168" y="88"/>
      <point x="184" y="104"/>
      <point x="219" y="104" type="curve" smooth="yes"/>
      <point x="254" y="104"/>
      <point x="272" y="88"/>
    </contour>
  </outline>
</glyph>
<glyph name="backslash" format="2">
  <advance width="717"/>
  <unicode hex="005C"/>
  <outline>
    <contour>
      <point x="303" y="1110" type="curve" smooth="yes"/>
      <point x="303" y="1075"/>
      <point x="285" y="1057"/>
      <point x="250" y="1057" type="curve" smooth="yes"/>
      <point x="215" y="1057"/>
      <point x="199" y="1075"/>
      <point x="199" y="1110" type="curve" smooth="yes"/>
      <point x="199" y="1145"/>
      <point x="215" y="1161"/>
      <point x="250" y="1161" type="curve" smooth="yes"/>
      <point x="285" y="1161"/>
      <point x="303" y="1145"/>
    </contour>
    <contour>
      <point x="350" y="903" type="curve" smooth="yes"/>
      <point x="350" y="868" name=".hr01"/>
      <point x="332" y="850"/>
      <point x="297" y="850" type="curve" smooth="yes" name=".hr02"/>
      <point x="262" y="850"/>
      <point x="246" y="868"/>
      <point x="246" y="903" type="curve" smooth="yes" name=".hr03"/>
      <point x="246" y="938"/>
      <point x="262" y="954"/>
      <point x="297" y="954" type="curve" smooth="yes"/>
      <point x="332" y="954"/>
      <point x="350" y="938" name=".hr04"/>
    </contour>
    <contour>
      <point x="393" y="690" type="curve" smooth="yes" name=".hr05"/>
      <point x="393" y="655"/>
      <point x="375" y="637" name=".hr06"/>
      <point x="340" y="637" type="curve" smooth="yes"/>
      <point x="305" y="637"/>
      <point x="289" y="655"/>
      <point x="289" y="690" type="curve" smooth="yes"/>
      <point x="289" y="725"/>
      <point x="305" y="741"/>
      <point x="340" y="741" type="curve" smooth="yes"/>
      <point x="375" y="741"/>
      <point x="393" y="725"/>
    </contour>
    <contour>
      <point x="436" y="479" type="curve" smooth="yes"/>
      <point x="436" y="444"/>
      <point x="418" y="426"/>
      <point x="383" y="426" type="curve" smooth="yes" name=".hr07"/>
      <point x="348" y="426"/>
      <point x="332" y="444"/>
      <point x="332" y="479" type="curve" smooth="yes"/>
      <point x="332" y="514"/>
      <point x="348" y="530"/>
      <point x="383" y="530" type="curve" smooth="yes"/>
      <point x="418" y="530"/>
      <point x="436" y="514"/>
    </contour>
    <contour>
      <point x="477" y="276" type="curve" smooth="yes"/>
      <point x="477" y="242"/>
      <point x="459" y="223"/>
      <point x="424" y="223" type="curve" smooth="yes"/>
      <point x="389" y="223" name=".hr08"/>
      <point x="373" y="242"/>
      <point x="373" y="276" type="curve" smooth="yes"/>
      <point x="373" y="311" name=".hr09"/>
      <point x="389" y="328"/>
      <point x="424" y="328" type="curve" smooth="yes" name=".hr10"/>
      <point x="459" y="328"/>
      <point x="477" y="311"/>
    </contour>
    <contour>
      <point x="528" y="41" type="curve" smooth="yes"/>
      <point x="528" y="6" name=".hr11"/>
      <point x="510" y="-12"/>
      <point x="475" y="-12" type="curve" smooth="yes" name=".hr12"/>
      <point x="440" y="-12"/>
      <point x="424" y="6" name=".hr13"/>
      <point x="424" y="41" type="curve" smooth="yes"/>
      <point x="424" y="76"/>
      <point x="440" y="92"/>
      <point x="475" y="92" type="curve" smooth="yes"/>
      <point x="510" y="92"/>
      <point x="528" y="76"/>
    </contour>
  </outline>
</glyph>
